SplineFontDB: 3.0
FontName: SignikaNegative-Regular
FullName: Signika Negative Regular
FamilyName: Signika Negative
Weight: Regular
Copyright: Copyright (c) 2011 by Anna Giedrys (http://ancymonic.com), with Reserved Font Names "Signika".
Version: 001.001
ItalicAngle: 0
UnderlinePosition: -100
UnderlineWidth: 50
Ascent: 800
Descent: 200
sfntRevision: 0x00010042
LayerCount: 2
Layer: 0 1 "Back"  1
Layer: 1 1 "Fore"  0
NeedsXUIDChange: 1
XUID: [1021 288 713564382 11640697]
FSType: 0
OS2Version: 2
OS2_WeightWidthSlopeOnly: 0
OS2_UseTypoMetrics: 1
CreationTime: 1323970521
ModificationTime: 1323999444
PfmFamily: 17
TTFWeight: 400
TTFWidth: 5
LineGap: 0
VLineGap: 0
Panose: 2 1 0 3 2 6 0 0 0 4
OS2TypoAscent: 140
OS2TypoAOffset: 1
OS2TypoDescent: -92
OS2TypoDOffset: 1
OS2TypoLinegap: 0
OS2WinAscent: 41
OS2WinAOffset: 1
OS2WinDescent: 32
OS2WinDOffset: 1
HheadAscent: 41
HheadAOffset: 1
HheadDescent: -32
HheadDOffset: 1
OS2SubXSize: 700
OS2SubYSize: 650
OS2SubXOff: 0
OS2SubYOff: 140
OS2SupXSize: 700
OS2SupYSize: 650
OS2SupXOff: 0
OS2SupYOff: 477
OS2StrikeYSize: 50
OS2StrikeYPos: 250
OS2CodePages: 00000093.00000000
OS2UnicodeRanges: a00000ef.40000043.00000000.00000000
Lookup: 258 0 0 "'kern' Horizontal Kerning in Latin lookup 0"  {"'kern' Horizontal Kerning in Latin lookup 0 subtable"  } ['kern' ('DFLT' <'dflt' > 'latn' <'dflt' > ) ]
MarkAttachClasses: 1
DEI: 91125
LangName: 1033 "" "" "" "AnnaGiedrys: Signika Light: 2011" "SignikaNegative-Regular" "Version 1.001" "" "Signika is a trademark of Anna Giedrys." "Anna Giedrys" "Anna Giedrys" "" "www.ancymonic.com" "www.ancymonic.com" "This Font Software is licensed under the SIL Open Font License, Version 1.1. This license is available with a FAQ at: http://scripts.sil.org/OFL" "http://scripts.sil.org/OFL" 
Encoding: UnicodeBmp
UnicodeInterp: none
NameList: Adobe Glyph List
DisplaySize: -36
AntiAlias: 1
FitToEm: 1
WinInfo: 50 25 10
BeginPrivate: 6
BlueValues 57 [-224 -209 -13 8 491 506 545 558 648 661 683 699 729 744]

StartChar: a
Encoding: 97 97 5
Width: 506
Flags: HMW
HStem: -13 78<189 224.5> 231 68<209.5 250.5 181 255.5> 424 79<234 277.5>
VStem: 45 97<119.5 169 119.5 190.5> 335 95<130 131 131 226 226 226 292 333 333 336>
LayerCount: 2
Fore
SplineSet
458 43 m 1,0,1
 448 8 448 8 420 -7 c 1,2,3
 365 4 365 4 344 57 c 1,4,5
 272 -13 272 -13 197 -13 c 0,6,7
 122 -13 122 -13 83.5 31 c 128,-1,8
 45 75 45 75 45 134 c 0,9,10
 45 216 45 216 97.5 257.5 c 128,-1,11
 150 299 150 299 236 299 c 0,12,13
 287 299 287 299 335 292 c 1,14,-1
 335 333 l 2,15,16
 335 424 335 424 251 424 c 0,17,18
 186 424 186 424 92 385 c 1,19,20
 65 412 65 412 63 457 c 1,21,22
 168 503 168 503 268 503 c 0,23,24
 345 503 345 503 387.5 461 c 128,-1,25
 430 419 430 419 430 336 c 2,26,-1
 430 131 l 2,27,28
 430 67 430 67 458 43 c 1,0,1
212 65 m 0,29,30
 279 65 279 65 335 130 c 1,31,-1
 335 226 l 1,32,33
 296 231 296 231 245 231 c 0,34,35
 194 231 194 231 168 207 c 128,-1,36
 142 183 142 183 142 145 c 0,37,38
 142 107 142 107 160.5 86 c 128,-1,39
 179 65 179 65 212 65 c 0,29,30
EndSplineSet
EndChar

StartChar: b
Encoding: 98 98 6
Width: 527
Flags: HMW
HStem: -8 73<244.5 296 244.5 320> 420 81<281 315>
VStem: 80 95<78 360 448 673> 383 99<189.5 311.5>
LayerCount: 2
Fore
SplineSet
437 433 m 128,-1,1
 482 365 482 365 482 246 c 128,-1,2
 482 127 482 127 419 59.5 c 128,-1,3
 356 -8 356 -8 262 -8 c 128,-1,4
 168 -8 168 -8 80 25 c 1,5,-1
 80 729 l 1,6,-1
 87 735 l 1,7,-1
 122 735 l 2,8,9
 152 735 152 735 163.5 721 c 128,-1,10
 175 707 175 707 175 673 c 2,11,-1
 175 448 l 1,12,13
 236 501 236 501 314 501 c 128,-1,0
 392 501 392 501 437 433 c 128,-1,1
289 420 m 0,14,15
 223 420 223 420 175 360 c 1,16,-1
 175 78 l 1,17,18
 213 65 213 65 264.5 65 c 128,-1,19
 316 65 316 65 349.5 113 c 128,-1,20
 383 161 383 161 383 249 c 128,-1,21
 383 337 383 337 357 378.5 c 128,-1,22
 331 420 331 420 289 420 c 0,14,15
EndSplineSet
EndChar

StartChar: c
Encoding: 99 99 7
Width: 471
Flags: HMW
HStem: -13 80<225.5 283.5> 431 75<218.5 288.5>
VStem: 46 100<182.5 305.5 182.5 335.5> 343 90
LayerCount: 2
Fore
SplineSet
343 306 m 1,0,1
 343.16 311 343.16 311 343.16 315.8 c 0,2,3
 343.16 431 343.16 431 251 431 c 0,4,5
 201 431 201 431 173.5 383 c 128,-1,6
 146 335 146 335 146 243 c 0,7,8
 146 67 146 67 262 67 c 0,9,10
 315 67 315 67 385 119 c 1,11,12
 399 111 399 111 411 94 c 128,-1,13
 423 77 423 77 427 61 c 1,14,15
 353 -13 353 -13 250 -13 c 0,16,17
 147 -13 147 -13 96.5 60 c 128,-1,18
 46 133 46 133 46 253 c 0,19,20
 46 373 46 373 106 439.5 c 128,-1,21
 166 506 166 506 252 506 c 0,22,23
 338 506 338 506 385.5 459.5 c 128,-1,24
 433 413 433 413 433 357.5 c 0,25,26
 433 302 433 302 383 302 c 0,27,28
 360 302 360 302 343 306 c 1,0,1
EndSplineSet
EndChar

StartChar: d
Encoding: 100 100 8
Width: 529
Flags: HMW
HStem: -13 81<213 247> 423 78<220.5 257.5 189.5 267>
VStem: 46 98<179 303 179 330> 352 95<134 140 140 385 385 385 467 673>
LayerCount: 2
Fore
SplineSet
90 56 m 128,-1,1
 46 125 46 125 46 245.5 c 128,-1,2
 46 366 46 366 102.5 433.5 c 128,-1,3
 159 501 159 501 236 501 c 0,4,5
 292 501 292 501 352 467 c 1,6,-1
 352 729 l 1,7,-1
 358 735 l 1,8,-1
 395 735 l 2,9,10
 425 735 425 735 436 720.5 c 128,-1,11
 447 706 447 706 447 673 c 2,12,-1
 447 140 l 2,13,14
 447 68 447 68 475 43 c 1,15,16
 465 8 465 8 437 -7 c 1,17,18
 383 4 383 4 363 56 c 1,19,20
 303 -13 303 -13 218.5 -13 c 128,-1,0
 134 -13 134 -13 90 56 c 128,-1,1
238 68 m 0,21,22
 304 68 304 68 352 134 c 1,23,-1
 352 385 l 1,24,25
 296 423 296 423 249.5 423 c 128,-1,26
 203 423 203 423 173.5 376.5 c 128,-1,27
 144 330 144 330 144 242 c 128,-1,28
 144 154 144 154 170.5 111 c 128,-1,29
 197 68 197 68 238 68 c 0,21,22
EndSplineSet
EndChar

StartChar: e
Encoding: 101 101 9
Width: 501
Flags: HMW
HStem: -13 80<221 284.5> 216 71<146 356 146 443 146 356> 434 72<218.5 289.5>
VStem: 46 100<216 216 216 287 216 320.5> 356 94<287 300 300 336.5>
LayerCount: 2
Fore
SplineSet
443 216 m 1,0,-1
 146 216 l 1,1,2
 149 145 149 145 176 106 c 128,-1,3
 203 67 203 67 266 67 c 128,-1,4
 329 67 329 67 405 106 c 1,5,6
 430 82 430 82 436 43 c 1,7,8
 356 -13 356 -13 248.5 -13 c 128,-1,9
 141 -13 141 -13 93.5 59 c 128,-1,10
 46 131 46 131 46 246.5 c 128,-1,11
 46 362 46 362 99.5 434 c 128,-1,12
 153 506 153 506 249.5 506 c 128,-1,13
 346 506 346 506 398 445.5 c 128,-1,14
 450 385 450 385 450 292 c 0,15,16
 450 254 450 254 443 216 c 1,0,-1
330.5 396.5 m 128,-1,18
 305 434 305 434 254 434 c 128,-1,19
 203 434 203 434 176 395.5 c 128,-1,20
 149 357 149 357 146 287 c 1,21,-1
 356 287 l 1,22,-1
 356 300 l 2,23,17
 356 359 356 359 330.5 396.5 c 128,-1,18
EndSplineSet
EndChar

StartChar: f
Encoding: 102 102 10
Width: 331
Flags: HMW
HStem: 422 71 666 73<234.5 265.5 195 272.5>
VStem: 102 95<0 423 0 423>
LayerCount: 2
Fore
SplineSet
102 0 m 1,0,-1
 102 423 l 1,1,-1
 16 422 l 1,2,3
 12 444 12 444 12 457 c 0,4,5
 12 470 12 470 16 494 c 1,6,-1
 98 493 l 1,7,8
 91 549 91 549 91 586 c 0,9,10
 91 653 91 653 131.5 696 c 128,-1,11
 172 739 172 739 241 739 c 0,12,13
 310 739 310 739 368 716 c 1,14,15
 368 675 368 675 346 651 c 1,16,17
 295 666 295 666 259 666 c 0,18,19
 223 666 223 666 203 643.5 c 128,-1,20
 183 621 183 621 183 581.5 c 0,21,22
 183 542 183 542 191 492 c 1,23,-1
 333 494 l 1,24,25
 337 470 337 470 337 457 c 0,26,27
 337 444 337 444 333 422 c 1,28,-1
 197 423 l 1,29,-1
 197 0 l 1,30,31
 178 -4 178 -4 150 -4 c 0,32,33
 122 -4 122 -4 102 0 c 1,0,-1
EndSplineSet
EndChar

StartChar: g
Encoding: 103 103 11
Width: 527
Flags: HMW
HStem: -220 75<209.5 275.5> -9 82<211.5 246.5> 427 79<220.5 267 189.5 268> 480 20G
VStem: 46 98<184 307.5 184 334.5> 355 93<-1 48 48 48 136 353>
LayerCount: 2
Fore
SplineSet
90.5 59.5 m 128,-1,1
 46 128 46 128 46 249.5 c 128,-1,2
 46 371 46 371 102.5 438.5 c 128,-1,3
 159 506 159 506 236.5 506 c 128,-1,4
 314 506 314 506 374 453 c 1,5,6
 395 490 395 490 438 500 c 1,7,8
 466 485 466 485 476 450 c 1,9,10
 448 425 448 425 448 353 c 2,11,-1
 448 53 l 2,12,13
 448 -98 448 -98 401 -155 c 0,14,15
 348 -220 348 -220 238 -220 c 0,16,17
 149 -220 149 -220 67 -187 c 1,18,19
 67 -142 67 -142 93 -113 c 1,20,21
 159 -145 159 -145 230 -145 c 128,-1,22
 301 -145 301 -145 328 -106.5 c 128,-1,23
 355 -68 355 -68 355 -1 c 2,24,-1
 355 48 l 1,25,26
 294 -9 294 -9 214.5 -9 c 128,-1,0
 135 -9 135 -9 90.5 59.5 c 128,-1,1
355 136 m 1,27,-1
 355 380 l 1,28,29
 303 427 303 427 253 427 c 128,-1,30
 203 427 203 427 173.5 381 c 128,-1,31
 144 335 144 335 144 246.5 c 128,-1,32
 144 158 144 158 170 115.5 c 128,-1,33
 196 73 196 73 237 73 c 0,34,35
 305 73 305 73 355 136 c 1,27,-1
EndSplineSet
EndChar

StartChar: h
Encoding: 104 104 12
Width: 544
Flags: HMW
HStem: 414 87<306 332.5>
VStem: 80 95<0 349 0 434 434 673> 372 96<86 103 103 314 314 339>
LayerCount: 2
Fore
SplineSet
468 339 m 2,0,-1
 468 103 l 2,1,2
 468 45 468 45 484 14 c 1,3,4
 458 -7 458 -7 423 -7 c 0,5,6
 372 -7 372 -7 372 55 c 2,7,-1
 372 314 l 2,8,9
 372 368 372 368 358 391 c 128,-1,10
 344 414 344 414 309.5 414 c 0,11,12
 275 414 275 414 238.5 396 c 128,-1,13
 202 378 202 378 175 349 c 1,14,-1
 175 0 l 1,15,16
 158 -4 158 -4 128.5 -4 c 0,17,18
 99 -4 99 -4 80 0 c 1,19,-1
 80 729 l 1,20,-1
 87 735 l 1,21,-1
 123 735 l 2,22,23
 153 735 153 735 164 720.5 c 128,-1,24
 175 706 175 706 175 673 c 2,25,-1
 175 434 l 1,26,27
 249 501 249 501 336 501 c 0,28,29
 403 501 403 501 435.5 456 c 128,-1,30
 468 411 468 411 468 339 c 2,0,-1
EndSplineSet
EndChar

StartChar: j
Encoding: 106 106 14
Width: 275
Flags: HMW
HStem: -219 21G 422 74<37 120 37 120> 587 86<76 76 182 182>
VStem: 68 114 100 96<-36 17 17 371 371 389>
LayerCount: 2
Fore
SplineSet
196 411 m 2,0,-1
 196 17 l 2,1,2
 196 -68.8 196 -68.8 187 -105.4 c 128,-1,3
 178 -142 178 -142 163.5 -159.5 c 0,4,5
 129.630697674 -200.376744186 129.630697674 -200.376744186 57 -219 c 1,6,7
 34 -198 34 -198 28 -159 c 1,8,9
 70 -138 70 -138 85 -112 c 128,-1,10
 100 -86 100 -86 100 -36 c 2,11,-1
 100 371 l 2,12,13
 100 399 100 399 90.5 410.5 c 128,-1,14
 81 422 81 422 57 422 c 2,15,-1
 37 422 l 1,16,17
 33 444 33 444 33 455 c 128,-1,18
 33 466 33 466 37 492 c 1,19,20
 73 496 73 496 108 496 c 2,21,-1
 120 496 l 2,22,23
 155 496 155 496 175.5 473.5 c 128,-1,24
 196 451 196 451 196 411 c 2,0,-1
68 630 m 128,-1,26
 68 655 68 655 76 673 c 1,27,28
 97 685 97 685 131 685 c 128,-1,29
 165 685 165 685 182 673 c 1,30,31
 190 655 190 655 190 630 c 128,-1,32
 190 605 190 605 182 587 c 1,33,34
 165 575 165 575 130 575 c 128,-1,35
 95 575 95 575 76 587 c 1,36,25
 68 605 68 605 68 630 c 128,-1,26
EndSplineSet
EndChar

StartChar: k
Encoding: 107 107 15
Width: 499
Flags: HMW
HStem: 217 80<215.5 216.5 211 247> 487 9
VStem: 80 95<0 214 0 295 295 673>
LayerCount: 2
Fore
SplineSet
398 185 m 1,0,-1
 433 101 l 2,1,2
 457 41 457 41 481 23 c 1,3,4
 457 -7 457 -7 416 -7 c 0,5,6
 391 -7 391 -7 378.5 6 c 128,-1,7
 366 19 366 19 353 50 c 2,8,-1
 311 149 l 2,9,10
 294 189 294 189 276.5 203 c 128,-1,11
 259 217 259 217 229.75 217 c 0,12,13
 200.5 217 200.5 217 175 214 c 1,14,-1
 175 0 l 1,15,16
 158 -4 158 -4 128.5 -4 c 0,17,18
 99 -4 99 -4 80 0 c 1,19,-1
 80 729 l 1,20,-1
 87 735 l 1,21,-1
 123 735 l 2,22,23
 153 735 153 735 164 720.5 c 128,-1,24
 175 706 175 706 175 673 c 2,25,-1
 175 295 l 1,26,-1
 211 297 l 2,27,28
 224 297 224 297 235 312 c 1,29,-1
 327 454 l 1,30,31
 340 476 340 476 354 486 c 128,-1,32
 368 496 368 496 396.5 496 c 0,33,34
 425 496 425 496 443 495 c 1,35,-1
 449 487 l 1,36,-1
 336 311 l 2,37,38
 323 290 323 290 305 275 c 1,39,40
 366 259 366 259 398 185 c 1,0,-1
EndSplineSet
EndChar

StartChar: l
Encoding: 108 108 16
Width: 291
Flags: HMW
HStem: -4 77<143.5 251>
VStem: 79 94<102.5 117 117 673>
LayerCount: 2
Fore
SplineSet
212 73 m 2,0,-1
 251 73 l 1,1,2
 259 51 259 51 259 33 c 0,3,4
 259 15 259 15 257 3 c 1,5,6
 217 -4 217 -4 174 -4 c 0,7,8
 79 -4 79 -4 79 94 c 2,9,-1
 79 729 l 1,10,-1
 85 735 l 1,11,-1
 121 735 l 2,12,13
 151 735 151 735 162 721 c 128,-1,14
 173 707 173 707 173 673 c 2,15,-1
 173 117 l 2,16,17
 173 73 173 73 212 73 c 2,0,-1
EndSplineSet
EndChar

StartChar: m
Encoding: 109 109 17
Width: 796
Flags: HMW
HStem: 414 88<294 311 564 582.5>
VStem: 80 97<0 350 0 490> 352 96<0 315 315 347 347 349 0 351> 624 96<86 103 103 316 316 346>
LayerCount: 2
Fore
SplineSet
352 315 m 2,0,1
 352 368 352 368 337 391 c 128,-1,2
 322 414 322 414 290 414 c 0,3,4
 233 414 233 414 177 350 c 1,5,-1
 177 0 l 1,6,7
 160 -4 160 -4 129.5 -4 c 128,-1,8
 99 -4 99 -4 80 0 c 1,9,-1
 80 490 l 1,10,-1
 87 497 l 1,11,-1
 123 497 l 2,12,13
 174 497 174 497 177 434 c 1,14,15
 243 502 243 502 322 502 c 128,-1,16
 401 502 401 502 433 428 c 1,17,18
 512 502 512 502 593 502 c 0,19,20
 655 502 655 502 687.5 458 c 128,-1,21
 720 414 720 414 720 346 c 2,22,-1
 720 103 l 2,23,24
 720 45 720 45 736 14 c 1,25,26
 712 -7 712 -7 675 -7 c 0,27,28
 624 -7 624 -7 624 55 c 2,29,-1
 624 316 l 2,30,31
 624 369 624 369 609 391.5 c 128,-1,32
 594 414 594 414 562 414 c 0,33,34
 503 414 503 414 448 349 c 1,35,-1
 448 0 l 1,36,37
 431 -4 431 -4 400 -4 c 128,-1,38
 369 -4 369 -4 352 0 c 1,39,-1
 352 315 l 2,0,1
EndSplineSet
EndChar

StartChar: n
Encoding: 110 110 18
Width: 546
Flags: HMW
HStem: 414 88<308 334> 477 20G<87 123 123 142.5>
VStem: 80 97<0 349 0 491> 373 97<86 103 103 315 315 340>
LayerCount: 2
Fore
SplineSet
470 340 m 2,0,-1
 470 103 l 2,1,2
 470 43 470 43 485 14 c 1,3,4
 460 -7 460 -7 425 -7 c 0,5,6
 373 -7 373 -7 373 55 c 2,7,-1
 373 315 l 2,8,9
 373 369 373 369 359.5 391.5 c 128,-1,10
 346 414 346 414 311.5 414 c 0,11,12
 277 414 277 414 240.5 396 c 128,-1,13
 204 378 204 378 177 349 c 1,14,-1
 177 0 l 1,15,16
 160 -4 160 -4 129.5 -4 c 0,17,18
 99 -4 99 -4 80 0 c 1,19,-1
 80 491 l 1,20,-1
 87 497 l 1,21,-1
 123 497 l 2,22,23
 174 497 174 497 177 434 c 1,24,25
 252 502 252 502 338 502 c 0,26,27
 405 502 405 502 437.5 457 c 128,-1,28
 470 412 470 412 470 340 c 2,0,-1
EndSplineSet
EndChar

StartChar: o
Encoding: 111 111 19
Width: 520
Flags: HMW
HStem: -13 75<231 289> 432 74<231 289 231 304.5>
VStem: 46 100<205 287> 374 100<205 287 205 293>
LayerCount: 2
Fore
SplineSet
404 451 m 0,0,1
 474 380 474 380 474 246.5 c 128,-1,2
 474 113 474 113 404 42 c 0,3,4
 349 -13 349 -13 260 -13 c 128,-1,5
 171 -13 171 -13 116 42 c 0,6,7
 46 113 46 113 46 246.5 c 128,-1,8
 46 380 46 380 116 451 c 0,9,10
 171 506 171 506 260 506 c 128,-1,11
 349 506 349 506 404 451 c 0,0,1
146 246 m 0,12,13
 146 62 146 62 260 62 c 128,-1,14
 374 62 374 62 374 246 c 0,15,16
 374 298 374 298 364.5 337 c 128,-1,17
 355 376 355 376 328.5 404 c 128,-1,18
 302 432 302 432 260 432 c 128,-1,19
 218 432 218 432 191.5 404 c 128,-1,20
 165 376 165 376 155.5 337 c 128,-1,21
 146 298 146 298 146 246 c 0,12,13
EndSplineSet
EndChar

StartChar: p
Encoding: 112 112 20
Width: 529
Flags: HMW
HStem: -215 21G<87 123 87 87> -209 21G<80 80> -9 79<271 308.5 261 339.5> 424 82<283.5 316> 477 20G<87 117 117 134.5>
VStem: 80 95<-174.5 -153 -153 26 109 355> 385 98<190 314>
LayerCount: 2
Fore
SplineSet
439 437 m 128,-1,1
 483 368 483 368 483 247 c 128,-1,2
 483 126 483 126 426.5 58.5 c 128,-1,3
 370 -9 370 -9 293 -9 c 0,4,5
 233 -9 233 -9 175 26 c 1,6,-1
 175 -153 l 2,7,8
 175 -186 175 -186 164 -200.5 c 128,-1,9
 153 -215 153 -215 123 -215 c 2,10,-1
 87 -215 l 1,11,-1
 80 -209 l 1,12,-1
 80 491 l 1,13,-1
 87 497 l 1,14,-1
 117 497 l 2,15,16
 165 497 165 497 173 445 c 1,17,18
 232 506 232 506 313.5 506 c 128,-1,0
 395 506 395 506 439 437 c 128,-1,1
291 424 m 0,19,20
 221 424 221 424 175 355 c 1,21,-1
 175 109 l 1,22,23
 230 70 230 70 278 70 c 128,-1,24
 326 70 326 70 355.5 116.5 c 128,-1,25
 385 163 385 163 385 251 c 128,-1,26
 385 339 385 339 358.5 381.5 c 128,-1,27
 332 424 332 424 291 424 c 0,19,20
EndSplineSet
EndChar

StartChar: q
Encoding: 113 113 21
Width: 528
Flags: HMW
HStem: -215 21G<384.5 405 405 441> -209 21G<448 448> -9 82<212.5 246> 427 79<221 267 189.5 267.5> 480 20G
VStem: 46 98<184 307.5 184 334.5> 353 95<-153 46 46 46 133 353 -209 371 -209 382 -209 382>
LayerCount: 2
Fore
SplineSet
353 -153 m 2,0,-1
 353 46 l 1,1,2
 292 -9 292 -9 213.5 -9 c 128,-1,3
 135 -9 135 -9 90.5 59.5 c 128,-1,4
 46 128 46 128 46 249.5 c 128,-1,5
 46 371 46 371 102.5 438.5 c 128,-1,6
 159 506 159 506 237 506 c 128,-1,7
 315 506 315 506 373 455 c 1,8,9
 396 490 396 490 438 500 c 1,10,11
 464 485 464 485 476 450 c 1,12,13
 448 426 448 426 448 353 c 2,14,-1
 448 -209 l 1,15,-1
 441 -215 l 1,16,-1
 405 -215 l 2,17,18
 375 -215 375 -215 364 -200.5 c 128,-1,19
 353 -186 353 -186 353 -153 c 2,0,-1
237 73 m 0,20,21
 303 73 303 73 353 133 c 1,22,-1
 353 382 l 1,23,24
 301 427 301 427 252.5 427 c 128,-1,25
 204 427 204 427 174 380.5 c 128,-1,26
 144 334 144 334 144 246.5 c 128,-1,27
 144 159 144 159 170.5 116 c 128,-1,28
 197 73 197 73 237 73 c 0,20,21
EndSplineSet
EndChar

StartChar: r
Encoding: 114 114 22
Width: 365
Flags: HMW
HStem: 407 93<273.5 296>
VStem: 89 97<0 329 0 346 0 372>
LayerCount: 2
Fore
SplineSet
53 448 m 1,0,1
 61 482 61 482 89 500 c 1,2,3
 155 484 155 484 176 411 c 1,4,5
 217 500 217 500 307 500 c 0,6,7
 331 500 331 500 359 494 c 1,8,9
 359 440 359 440 336 403 c 1,10,11
 330 404 330 404 296 407 c 1,12,13
 226 407 226 407 186 329 c 1,14,-1
 186 0 l 1,15,16
 169 -4 169 -4 137.5 -4 c 0,17,18
 106 -4 106 -4 89 0 c 1,19,-1
 89 346 l 2,20,21
 89 414 89 414 53 448 c 1,0,1
EndSplineSet
EndChar

StartChar: s
Encoding: 115 115 23
Width: 437
Flags: HMW
HStem: -13 73<182 234.5 182 265.5> 431 75<201.5 249>
VStem: 50 98<355 388.5 355 405.5> 299 100<126 141>
LayerCount: 2
Fore
SplineSet
32 37 m 1,0,1
 33 54 33 54 42.5 74 c 128,-1,2
 52 94 52 94 65 105 c 1,3,4
 147 60 147 60 197.5 60 c 0,5,6
 248 60 248 60 273 78.5 c 128,-1,7
 298 97 298 97 299 126 c 1,8,9
 299 172 299 172 234 197 c 2,10,-1
 178 219 l 1,11,12
 50 267 50 267 50 360 c 0,13,14
 50 427 50 427 99.5 466.5 c 128,-1,15
 149 506 149 506 229.5 506 c 0,16,17
 310 506 310 506 386 471 c 1,18,19
 387 452 387 452 378.5 431 c 128,-1,20
 370 410 370 410 357 399 c 1,21,22
 284 431 284 431 224 431 c 0,23,24
 190 431 190 431 169 414.5 c 128,-1,25
 148 398 148 398 148 373 c 0,26,27
 148 348 148 348 163.5 333.5 c 128,-1,28
 179 319 179 319 213 306 c 2,29,-1
 273 284 l 1,30,31
 399 235 399 235 399 134 c 0,32,33
 399 67 399 67 346.5 27 c 128,-1,34
 294 -13 294 -13 204.5 -13 c 0,35,36
 115 -13 115 -13 32 37 c 1,0,1
EndSplineSet
EndChar

StartChar: t
Encoding: 116 116 24
Width: 348
Flags: HMW
HStem: -4 77<168.5 304> 422 71
VStem: 99 94<103 116 116 423 493 584 584 605.5>
LayerCount: 2
Fore
SplineSet
318 494 m 1,0,1
 322 477 322 477 322 457.5 c 0,2,3
 322 438 322 438 318 422 c 1,4,-1
 193 423 l 1,5,-1
 193 116 l 2,6,7
 193 73 193 73 234 73 c 2,8,-1
 304 73 l 1,9,10
 312 54 312 54 312 31.5 c 0,11,12
 312 9 312 9 311 3 c 1,13,14
 253 -4 253 -4 201 -4 c 0,15,16
 99 -4 99 -4 99 94 c 2,17,-1
 99 423 l 1,18,-1
 26 422 l 1,19,20
 22 438 22 438 22 457.5 c 0,21,22
 22 477 22 477 26 494 c 1,23,-1
 99 493 l 1,24,-1
 99 584 l 2,25,26
 99 618 99 618 110 632 c 128,-1,27
 121 646 121 646 151 646 c 2,28,-1
 187 646 l 1,29,-1
 193 640 l 1,30,-1
 193 492 l 1,31,-1
 318 494 l 1,0,1
EndSplineSet
EndChar

StartChar: u
Encoding: 117 117 25
Width: 547
Flags: HMW
HStem: -9 87<211.5 239> 473 20G<369 369 465 465> 479 20<109.5 140>
VStem: 76 96<153 178 178 390 390 407> 369 96<144 493>
LayerCount: 2
Fore
SplineSet
76 153 m 2,0,-1
 76 390 l 2,1,2
 76 448 76 448 60 479 c 1,3,4
 83 499 83 499 116 499 c 0,5,6
 149 499 149 499 160.5 484 c 128,-1,7
 172 469 172 469 172 437 c 2,8,-1
 172 178 l 2,9,10
 172 124 172 124 186 101 c 128,-1,11
 200 78 200 78 234.5 78 c 0,12,13
 269 78 269 78 305 96 c 128,-1,14
 341 114 341 114 369 144 c 1,15,-1
 369 493 l 1,16,17
 395 497 395 497 417 497 c 128,-1,18
 439 497 439 497 465 493 c 1,19,-1
 465 139 l 2,20,21
 465 67 465 67 493 42 c 1,22,23
 484 9 484 9 456 -7 c 1,24,25
 395 6 395 6 377 66 c 1,26,27
 302 -9 302 -9 207 -9 c 0,28,29
 141 -9 141 -9 108.5 36 c 128,-1,30
 76 81 76 81 76 153 c 2,0,-1
EndSplineSet
EndChar

StartChar: v
Encoding: 118 118 26
Width: 453
Flags: HMW
HStem: -5 84<199 235> 477 20G<387.5 401.5> 480 20G<55 76.5>
VStem: 7 438<486 486>
LayerCount: 2
Fore
SplineSet
235 79 m 1,0,-1
 356 493 l 1,1,2
 369 497 369 497 395 497 c 0,3,4
 421 497 421 497 442 490 c 1,5,-1
 445 486 l 1,6,7
 346 167 346 167 288 0 c 1,8,9
 262 -5 262 -5 225 -5 c 0,10,11
 188 -5 188 -5 173.5 5.5 c 128,-1,12
 159 16 159 16 148 50 c 2,13,-1
 7 486 l 1,14,15
 38 500 38 500 63 500 c 0,16,17
 104 500 104 500 115 460 c 1,18,-1
 185 236 l 2,19,20
 208 164 208 164 225 87 c 0,21,22
 227 79 227 79 235 79 c 1,0,-1
EndSplineSet
EndChar

StartChar: w
Encoding: 119 119 27
Width: 718
Flags: HMW
HStem: -5 77<179 215 508.5 511> 402 89<303 363 303 358> 480 20G<73.5 94> 485 12
VStem: 25 672<485 487>
LayerCount: 2
Fore
SplineSet
129 50 m 2,0,-1
 25 487 l 1,1,2
 54 500 54 500 82 500 c 0,3,4
 119 500 119 500 127 461 c 2,5,-1
 174 248 l 1,6,7
 192 160 192 160 207 81 c 0,8,9
 209 72 209 72 215 72 c 1,10,-1
 303 491 l 1,11,12
 328 496 328 496 362 496 c 128,-1,13
 396 496 396 496 419 491 c 1,14,-1
 503 81 l 2,15,16
 505 72 505 72 511 72 c 1,17,18
 516 93 516 93 523 128 c 0,19,20
 534 183 534 183 549 248 c 2,21,-1
 604 493 l 1,22,23
 619 497 619 497 648 497 c 128,-1,24
 677 497 677 497 694 490 c 1,25,-1
 697 485 l 1,26,-1
 575 -1 l 1,27,28
 550 -5 550 -5 510.5 -5 c 128,-1,29
 471 -5 471 -5 455 5.5 c 128,-1,30
 439 16 439 16 433 49 c 2,31,-1
 403 192 l 1,32,-1
 363 402 l 1,33,-1
 358 402 l 1,34,35
 348 346 348 346 316 193 c 1,36,-1
 274 0 l 1,37,38
 237 -5 237 -5 202.5 -5 c 128,-1,39
 168 -5 168 -5 152.5 6 c 128,-1,40
 137 17 137 17 129 50 c 2,0,-1
EndSplineSet
EndChar

StartChar: x
Encoding: 120 120 28
Width: 458
Flags: HMW
HStem: 477 20G<364.5 381> 481 20G<85.5 108>
VStem: 16 427<10 15>
LayerCount: 2
Fore
SplineSet
332 493 m 1,0,1
 348 497 348 497 374 497 c 0,2,3
 400 497 400 497 419 490 c 1,4,-1
 422 483 l 1,5,-1
 281 262 l 1,6,-1
 443 15 l 1,7,8
 407 -8 407 -8 376 -8 c 128,-1,9
 345 -8 345 -8 326 22 c 2,10,-1
 222 181 l 1,11,-1
 110 -1 l 1,12,13
 98 -5 98 -5 68.5 -5 c 0,14,15
 39 -5 39 -5 20 3 c 1,16,-1
 16 10 l 1,17,-1
 174 256 l 1,18,-1
 29 479 l 1,19,20
 61 501 61 501 93 501 c 0,21,22
 125 501 125 501 145 472 c 2,23,-1
 234 335 l 1,24,-1
 332 493 l 1,0,1
EndSplineSet
EndChar

StartChar: y
Encoding: 121 121 29
Width: 464
Flags: HMW
HStem: -218 73<86.5 133.5 86.5 163> 480 20G<68.5 87.5> 485 12
VStem: 6 446
LayerCount: 2
Fore
SplineSet
452 485 m 1,0,-1
 318 16 l 2,1,2
 282 -109 282 -109 236 -163.5 c 128,-1,3
 190 -218 190 -218 98 -218 c 0,4,5
 49 -218 49 -218 6 -203 c 1,6,7
 5.66666666667 -198.555555556 5.66666666667 -198.555555556 5.66666666667 -194.234567901 c 0,8,9
 5.66666666667 -159.666666667 5.66666666667 -159.666666667 27 -133 c 1,10,11
 59 -145 59 -145 103.5 -145 c 0,12,13
 148 -145 148 -145 175 -113 c 128,-1,14
 202 -81 202 -81 222 -16 c 1,15,-1
 225 -5 l 1,16,17
 194 -3 194 -3 177 8 c 128,-1,18
 160 19 160 19 151 48 c 2,19,-1
 18 486 l 1,20,21
 49 500 49 500 76 500 c 0,22,23
 113 500 113 500 126 457 c 2,24,-1
 196 222 l 2,25,26
 202 203 202 203 235 73 c 0,27,28
 237 66 237 66 244 66 c 1,29,-1
 357 493 l 1,30,31
 373 497 373 497 400 497 c 0,32,33
 427 497 427 497 448 490 c 1,34,-1
 452 485 l 1,0,-1
EndSplineSet
EndChar

StartChar: z
Encoding: 122 122 30
Width: 446
Flags: HMW
HStem: 0 76<146 146 243 292 292 315.5> 417 76<56 163 54 389>
VStem: 36 375<47.5 53.5 32 59.5>
LayerCount: 2
Fore
SplineSet
52 93 m 2,0,-1
 220 323 l 1,1,2
 260.733333333 376.266666667 260.733333333 376.266666667 299 420 c 1,3,-1
 296 423 l 1,4,5
 242 417 242 417 163 417 c 2,6,-1
 54 417 l 1,7,8
 51 433 51 433 51 450.5 c 128,-1,9
 51 468 51 468 56 493 c 1,10,-1
 389 493 l 1,11,12
 404 451 404 451 404 435.5 c 128,-1,13
 404 420 404 420 391 401 c 2,14,-1
 223 174 l 2,15,16
 217 165 217 165 146 76 c 1,17,-1
 149 72 l 1,18,19
 193 76 193 76 243 76 c 2,20,-1
 292 76 l 2,21,22
 370 76 370 76 401 89 c 1,23,24
 411 68 411 68 411 46 c 0,25,26
 411 0 411 0 348 0 c 2,27,-1
 50 0 l 1,28,29
 36 41 36 41 36 56.5 c 128,-1,30
 36 72 36 72 52 93 c 2,0,-1
EndSplineSet
EndChar

StartChar: A
Encoding: 65 65 31
Width: 608
Flags: HMW
HStem: -13 20G<21 21> 168 83<227 352 249 352 352 355.5 249 368> 583 100<248 302 248 296>
VStem: 21 566<6 7>
LayerCount: 2
Fore
SplineSet
429 169 m 1,0,-1
 368 168 l 1,1,-1
 231 168 l 1,2,-1
 170 169 l 1,3,-1
 116 -1 l 1,4,5
 100 -5 100 -5 74.5 -5 c 128,-1,6
 49 -5 49 -5 24 2 c 1,7,-1
 21 7 l 1,8,-1
 248 683 l 1,9,10
 268 687 268 687 306 687 c 128,-1,11
 344 687 344 687 361 683 c 1,12,-1
 587 6 l 1,13,14
 565 -7 565 -7 534.5 -7 c 128,-1,15
 504 -7 504 -7 491.5 4 c 128,-1,16
 479 15 479 15 469 46 c 2,17,-1
 429 169 l 1,0,-1
196 250 m 1,18,-1
 249 251 l 1,19,-1
 352 251 l 2,20,21
 354 251 354 251 374 250.5 c 128,-1,22
 394 250 394 250 403 250 c 1,23,-1
 354 405 l 1,24,25
 324 496 324 496 302 583 c 1,26,-1
 296 583 l 1,27,28
 280 511 280 511 258 444 c 2,29,-1
 196 250 l 1,18,-1
EndSplineSet
EndChar

StartChar: B
Encoding: 66 66 32
Width: 604
Flags: HMW
HStem: -4 77<297.5 373 297.5 400> 320 78<191 300 300 310 191 300> 609 78<288 351>
VStem: 92 99<72 320 72 398 398 610> 419 102<480 529> 450 103<170.5 221.5>
LayerCount: 2
Fore
SplineSet
316 -4 m 1,0,-1
 99 -1 l 1,1,-1
 92 6 l 1,2,-1
 92 677 l 1,3,-1
 99 684 l 1,4,-1
 304 687 l 1,5,6
 412 687 412 687 466.5 639.5 c 128,-1,7
 521 592 521 592 521 506 c 0,8,9
 521 459 521 459 494.5 420 c 128,-1,10
 468 381 468 381 425 365 c 1,11,12
 479 350 479 350 516 302 c 128,-1,13
 553 254 553 254 553 191 c 0,14,15
 553 104 553 104 494.5 50 c 128,-1,16
 436 -4 436 -4 316 -4 c 1,0,-1
310 320 m 2,17,-1
 191 320 l 1,18,-1
 191 72 l 1,19,20
 235 73 235 73 296 73 c 128,-1,21
 357 73 357 73 385 84.5 c 128,-1,22
 413 96 413 96 426 116 c 0,23,24
 450 152.923076923 450 152.923076923 450 198.461538462 c 128,-1,25
 450 244 450 244 417.5 282 c 128,-1,26
 385 320 385 320 310 320 c 2,17,-1
191 610 m 1,27,-1
 191 398 l 1,28,-1
 300 398 l 2,29,30
 366 398 366 398 392.5 429 c 128,-1,31
 419 460 419 460 419 504 c 0,32,33
 419 609 419 609 302 609 c 0,34,35
 225 609 225 609 191 610 c 1,27,-1
EndSplineSet
EndChar

StartChar: C
Encoding: 67 67 33
Width: 603
Flags: HMW
HStem: -13 87<272.5 356 272.5 360> 614 82<267 376>
VStem: 51 105<254 428.5 254 462.5>
LayerCount: 2
Fore
SplineSet
464 451 m 1,0,1
 464.076923077 454.153846154 464.076923077 454.153846154 464.076923077 474.423076923 c 128,-1,2
 464.076923077 494.692307692 464.076923077 494.692307692 452.538461538 528.346153846 c 128,-1,3
 441 562 441 562 407 588 c 128,-1,4
 373 614 373 614 321 614 c 0,5,6
 240 614 240 614 198 544 c 128,-1,7
 156 474 156 474 156 343.5 c 128,-1,8
 156 213 156 213 201 143.5 c 128,-1,9
 246 74 246 74 329 74 c 128,-1,10
 412 74 412 74 505 151 c 1,11,12
 545 125 545 125 555 86 c 1,13,14
 512 42 512 42 447 14.5 c 128,-1,15
 382 -13 382 -13 311.5 -13 c 128,-1,16
 241 -13 241 -13 189.5 16.5 c 128,-1,17
 138 46 138 46 108.5 96.5 c 0,18,19
 51 194.93220339 51 194.93220339 51 338 c 0,20,21
 51 515 51 515 128 605.5 c 128,-1,22
 205 696 205 696 317 696 c 128,-1,23
 429 696 429 696 495.5 638 c 128,-1,24
 562 580 562 580 562 502 c 0,25,26
 562 445 562 445 505 445 c 0,27,28
 487 445 487 445 464 451 c 1,0,1
EndSplineSet
EndChar

StartChar: D
Encoding: 68 68 34
Width: 646
Flags: HMW
HStem: -5 81<292.5 341> 606 81<292.5 341 274.5 390.5>
VStem: 92 100<77 607 77 677 77 677> 489 104<282.5 399 282.5 402>
LayerCount: 2
Fore
SplineSet
571 513 m 128,-1,1
 593 441 593 441 593 340.5 c 128,-1,2
 593 240 593 240 571.5 168.5 c 128,-1,3
 550 97 550 97 488 46 c 0,4,5
 458 21 458 21 408.5 8 c 128,-1,6
 359 -5 359 -5 316 -5 c 128,-1,7
 273 -5 273 -5 99 -1 c 1,8,-1
 92 6 l 1,9,-1
 92 677 l 1,10,-1
 99 684 l 1,11,12
 185 687 185 687 315 687 c 0,13,14
 359 687 359 687 408.5 674 c 128,-1,15
 458 661 458 661 488 636 c 0,16,0
 549 585 549 585 571 513 c 128,-1,1
192 77 m 1,17,-1
 314 76 l 2,18,19
 358 76 358 76 390.5 92.5 c 128,-1,20
 423 109 423 109 441.5 134 c 128,-1,21
 460 159 460 159 471 196 c 128,-1,22
 482 233 482 233 485.5 266.5 c 128,-1,23
 489 300 489 300 489 341 c 128,-1,24
 489 382 489 382 485.5 415.5 c 128,-1,25
 482 449 482 449 471 486 c 128,-1,26
 460 523 460 523 441.5 548 c 128,-1,27
 423 573 423 573 390.5 589.5 c 128,-1,28
 358 606 358 606 314 606 c 2,29,-1
 192 607 l 1,30,-1
 192 77 l 1,17,-1
EndSplineSet
EndChar

StartChar: E
Encoding: 69 69 35
Width: 565
Flags: HMW
HStem: -1 86<254 450> 303 84<244.5 444 252 444> 598 85<244.5 252 252 493>
VStem: 92 98<121.5 130 130 304 386 534>
LayerCount: 2
Fore
SplineSet
190 386 m 1,0,-1
 252 387 l 1,1,-1
 444 387 l 1,2,3
 449 364 449 364 449 345 c 128,-1,4
 449 326 449 326 444 303 c 1,5,-1
 252 303 l 2,6,7
 213 303 213 303 190 304 c 1,8,-1
 190 130 l 2,9,10
 190 122 190 122 189.5 106.5 c 128,-1,11
 189 91 189 91 189 82 c 1,12,13
 217 85 217 85 254 85 c 2,14,-1
 516 85 l 1,15,16
 516 59 516 59 514 46 c 0,17,18
 505 -1 505 -1 450 -1 c 2,19,-1
 149 -1 l 2,20,21
 123 -1 123 -1 107.5 15.5 c 128,-1,22
 92 32 92 32 92 61 c 2,23,-1
 92 677 l 1,24,-1
 98 683 l 1,25,-1
 497 683 l 1,26,27
 500 668 500 668 500 643.5 c 128,-1,28
 500 619 500 619 493 598 c 1,29,-1
 252 598 l 2,30,31
 212 598 212 598 189 599 c 1,32,-1
 190 534 l 1,33,-1
 190 386 l 1,0,-1
EndSplineSet
EndChar

StartChar: F
Encoding: 70 70 36
Width: 520
Flags: HMW
HStem: 302 84<230 439 237 439> 597 86<271 290 290 440>
VStem: 92 100<0 303 385 476>
LayerCount: 2
Fore
SplineSet
191 598 m 1,0,-1
 192 476 l 1,1,-1
 192 385 l 1,2,3
 208 386 208 386 237 386 c 2,4,-1
 439 386 l 1,5,6
 444 364 444 364 444 344.5 c 128,-1,7
 444 325 444 325 439 302 c 1,8,-1
 237 302 l 2,9,10
 208 302 208 302 192 303 c 1,11,-1
 192 0 l 1,12,13
 172 -4 172 -4 142 -4 c 128,-1,14
 112 -4 112 -4 92 0 c 1,15,-1
 92 677 l 1,16,-1
 99 683 l 1,17,-1
 491 683 l 1,18,19
 497 665 497 665 497 643 c 0,20,21
 497 597 497 597 440 597 c 2,22,-1
 290 597 l 2,23,24
 219 597 219 597 191 598 c 1,0,-1
EndSplineSet
EndChar

StartChar: G
Encoding: 71 71 37
Width: 642
Flags: HMW
HStem: -13 84<285.5 376.5 285.5 380.5> 269 87<374 390 390 482> 610 86<292 378>
VStem: 51 104<247.5 437 247.5 464.5> 481 96<89 206 206 217.5>
LayerCount: 2
Fore
SplineSet
351 356 m 1,0,-1
 505 356 l 2,1,2
 544 356 544 356 560.5 339.5 c 128,-1,3
 577 323 577 323 577 290 c 2,4,-1
 577 30 l 1,5,6
 465 -13 465 -13 332 -13 c 0,7,8
 257 -13 257 -13 201 15.5 c 128,-1,9
 145 44 145 44 113.5 93.5 c 0,10,11
 51 191.714285714 51 191.714285714 51 337 c 0,12,13
 51 429 51 429 76 500 c 128,-1,14
 101 571 101 571 143.5 612.5 c 0,15,16
 229.012048193 696 229.012048193 696 344 696 c 0,17,18
 481 696 481 696 576 622 c 1,19,20
 568 575 568 575 526 547 c 1,21,22
 445 610 445 610 343 610 c 0,23,24
 259 610 259 610 207 544 c 128,-1,25
 155 478 155 478 155 336 c 0,26,27
 155 71 155 71 350 71 c 0,28,29
 420 71 420 71 481 89 c 1,30,-1
 481 206 l 2,31,32
 481 250 481 250 482 269 c 1,33,-1
 390 269 l 2,34,35
 343 269 343 269 343 314 c 0,36,37
 343 332 343 332 351 356 c 1,0,-1
EndSplineSet
EndChar

StartChar: H
Encoding: 72 72 38
Width: 673
Flags: HMW
HStem: 310 86<244.5 424 249 424>
VStem: 92 100<0 237 455 469 469 683> 481 100<0 237 237 251 469 683 0 683>
LayerCount: 2
Fore
SplineSet
482 395 m 1,0,-1
 481 469 l 1,1,-1
 481 683 l 1,2,3
 500 687 500 687 530.5 687 c 128,-1,4
 561 687 561 687 581 683 c 1,5,-1
 581 0 l 1,6,7
 560 -4 560 -4 530.5 -4 c 128,-1,8
 501 -4 501 -4 481 0 c 1,9,-1
 481 237 l 1,10,-1
 482 311 l 1,11,-1
 424 310 l 1,12,-1
 249 310 l 1,13,-1
 191 311 l 1,14,-1
 192 237 l 1,15,-1
 192 0 l 1,16,17
 172 -4 172 -4 142 -4 c 128,-1,18
 112 -4 112 -4 92 0 c 1,19,-1
 92 683 l 1,20,21
 112 687 112 687 142 687 c 128,-1,22
 172 687 172 687 192 683 c 1,23,-1
 192 469 l 1,24,-1
 191 395 l 1,25,-1
 249 396 l 1,26,-1
 424 396 l 1,27,-1
 482 395 l 1,0,-1
EndSplineSet
EndChar

StartChar: I
Encoding: 73 73 39
Width: 292
Flags: HMW
HStem: -4 691<137.5 153>
VStem: 96 100<0 683 0 683>
LayerCount: 2
Fore
SplineSet
96 0 m 1,0,-1
 96 683 l 1,1,2
 115 687 115 687 145.5 687 c 0,3,4
 176 687 176 687 196 683 c 1,5,-1
 196 0 l 1,6,7
 176 -4 176 -4 145.5 -4 c 0,8,9
 115 -4 115 -4 96 0 c 1,0,-1
EndSplineSet
EndChar

StartChar: J
Encoding: 74 74 40
Width: 446
Flags: HMW
HStem: -10 84<139 198.5 138.5 250.5>
VStem: 266 100<232 247 247 683>
LayerCount: 2
Fore
SplineSet
48 107 m 1,0,1
 103 74 103 74 160.5 74 c 128,-1,2
 218 74 218 74 242 110.5 c 128,-1,3
 266 147 266 147 266 232 c 2,4,-1
 266 683 l 1,5,6
 286 687 286 687 316.5 687 c 128,-1,7
 347 687 347 687 366 683 c 1,8,-1
 366 247 l 2,9,10
 366 187 366 187 358.5 144.5 c 128,-1,11
 351 102 351 102 330 65 c 0,12,13
 287.432432432 -10 287.432432432 -10 165 -10 c 0,14,15
 77 -10 77 -10 10 32 c 1,16,17
 18 75 18 75 48 107 c 1,0,1
EndSplineSet
EndChar

StartChar: K
Encoding: 75 75 41
Width: 594
Flags: HMW
HStem: 310 85<256 261.5 252 293.5> 674 12
VStem: 92 100<0 307 0 394 394 683>
LayerCount: 2
Fore
SplineSet
576 26 m 1,0,1
 555 -6 555 -6 508 -6 c 0,2,3
 480 -6 480 -6 466 8 c 128,-1,4
 452 22 452 22 441 56 c 1,5,-1
 385 205 l 2,6,7
 363 263 363 263 336 286.5 c 128,-1,8
 309 310 309 310 263 310 c 0,9,10
 242 310 242 310 192 307 c 1,11,-1
 192 0 l 1,12,13
 172 -4 172 -4 142 -4 c 128,-1,14
 112 -4 112 -4 92 0 c 1,15,-1
 92 683 l 1,16,17
 112 687 112 687 142 687 c 128,-1,18
 172 687 172 687 192 683 c 1,19,-1
 192 394 l 1,20,-1
 252 395 l 2,21,22
 274 395 274 395 289 423 c 1,23,-1
 422 644 l 1,24,25
 434 667 434 667 446.5 676.5 c 128,-1,26
 459 686 459 686 484.5 686 c 0,27,28
 510 686 510 686 540 683 c 1,29,-1
 546 674 l 1,30,-1
 391 414 l 2,31,32
 373 384 373 384 353 367 c 1,33,34
 401 359 401 359 427.5 329.5 c 128,-1,35
 454 300 454 300 476 243 c 2,36,-1
 532 96 l 2,37,38
 551 47 551 47 576 26 c 1,0,1
EndSplineSet
EndChar

StartChar: L
Encoding: 76 76 42
Width: 511
Flags: HMW
HStem: -1 87<280 415>
VStem: 92 100<83 623 83 681 83 681>
LayerCount: 2
Fore
SplineSet
280 86 m 2,0,-1
 482 86 l 1,1,2
 482 59 482 59 480 46 c 0,3,4
 471 -1 471 -1 415 -1 c 2,5,-1
 150 -1 l 2,6,7
 124 -1 124 -1 108 15.5 c 128,-1,8
 92 32 92 32 92 62 c 2,9,-1
 92 681 l 1,10,-1
 98 687 l 1,11,-1
 137 687 l 2,12,13
 167 687 167 687 179.5 672 c 128,-1,14
 192 657 192 657 192 623 c 2,15,-1
 192 83 l 1,16,17
 239 86 239 86 280 86 c 2,0,-1
EndSplineSet
EndChar

StartChar: M
Encoding: 77 77 43
Width: 804
Flags: HMW
HStem: -19 20G<76 76 728 728> 105 100<352 405 399 453> 576 107<129 210 129 204>
VStem: 76 652<1 1>
LayerCount: 2
Fore
SplineSet
76 1 m 1,0,-1
 129 683 l 1,1,2
 152 687 152 687 195 687 c 0,3,4
 238 687 238 687 260 683 c 1,5,-1
 360 361 l 2,6,7
 368 338 368 338 382 281 c 128,-1,8
 396 224 396 224 399 205 c 1,9,-1
 405 205 l 1,10,11
 415 268 415 268 445 361 c 1,12,-1
 544 683 l 1,13,14
 569 687 569 687 610 687 c 0,15,16
 651 687 651 687 675 683 c 1,17,-1
 728 1 l 1,18,19
 707 -5 707 -5 679.5 -5 c 0,20,21
 652 -5 652 -5 633 -1 c 1,22,-1
 608 376 l 2,23,24
 601 489 601 489 600 576 c 1,25,-1
 594 576 l 1,26,-1
 453 105 l 1,27,28
 432 101 432 101 401.5 101 c 0,29,30
 371 101 371 101 352 105 c 1,31,-1
 210 576 l 1,32,-1
 204 576 l 1,33,34
 198 404 198 404 196 376 c 2,35,-1
 172 -1 l 1,36,37
 152 -5 152 -5 124 -5 c 0,38,39
 96 -5 96 -5 76 1 c 1,0,-1
EndSplineSet
EndChar

StartChar: N
Encoding: 78 78 44
Width: 678
Flags: HMW
HStem: -4 691<132.5 158.5 146 531.5> 565 122<146 180 146 177 146 181>
VStem: 92 93<0 326 0 682> 493 93<360 624 624 646>
LayerCount: 2
Fore
SplineSet
181 565 m 1,0,-1
 177 565 l 1,1,2
 185 429 185 429 185 326 c 2,3,-1
 185 0 l 1,4,5
 162 -4 162 -4 138.5 -4 c 128,-1,6
 115 -4 115 -4 92 0 c 1,7,-1
 92 682 l 1,8,9
 120 687 120 687 153.5 687 c 128,-1,10
 187 687 187 687 212 683 c 1,11,-1
 430 256 l 2,12,13
 445 227 445 227 468 176.5 c 128,-1,14
 491 126 491 126 498 113 c 1,15,-1
 498 112 l 1,16,-1
 501 113 l 1,17,18
 493 239 493 239 493 360 c 2,19,-1
 493 624 l 2,20,21
 493 658 493 658 504.5 672.5 c 128,-1,22
 516 687 516 687 547 687 c 2,23,-1
 579 687 l 1,24,-1
 586 682 l 1,25,-1
 586 1 l 1,26,27
 558 -4 558 -4 524 -4 c 128,-1,28
 490 -4 490 -4 465 0 c 1,29,-1
 246 427 l 2,30,31
 216 486 216 486 181 565 c 1,0,-1
EndSplineSet
EndChar

StartChar: O
Encoding: 79 79 45
Width: 657
Flags: HMW
HStem: -13 81<288.5 368> 615 81<288.5 368 288.5 399.5>
VStem: 51 105<287 396.5> 500 106<287 396.5 287 403.5>
LayerCount: 2
Fore
SplineSet
156 342 m 128,-1,1
 156 290 156 290 163.5 246 c 128,-1,2
 171 202 171 202 188.5 159.5 c 128,-1,3
 206 117 206 117 241.5 92.5 c 128,-1,4
 277 68 277 68 323 68 c 128,-1,5
 369 68 369 68 400.5 85 c 128,-1,6
 432 102 432 102 450.5 128.5 c 128,-1,7
 469 155 469 155 480.5 192.5 c 0,8,9
 500 256.086956522 500 256.086956522 500 325.043478261 c 128,-1,10
 500 394 500 394 493 437.5 c 128,-1,11
 486 481 486 481 468.5 523.5 c 128,-1,12
 451 566 451 566 415 590.5 c 128,-1,13
 379 615 379 615 328 615 c 128,-1,14
 277 615 277 615 241.5 590.5 c 128,-1,15
 206 566 206 566 188.5 523.5 c 128,-1,16
 171 481 171 481 163.5 437.5 c 128,-1,0
 156 394 156 394 156 342 c 128,-1,1
157 47 m 0,17,18
 51 139 51 139 51 341.5 c 128,-1,19
 51 544 51 544 157 636 c 0,20,21
 225 696 225 696 328 696 c 128,-1,22
 431 696 431 696 499 636 c 1,23,24
 606 544 606 544 606 341.5 c 128,-1,25
 606 139 606 139 499 47 c 1,26,27
 431 -13 431 -13 328 -13 c 128,-1,28
 225 -13 225 -13 157 47 c 0,17,18
EndSplineSet
EndChar

StartChar: P
Encoding: 80 80 46
Width: 565
Flags: HMW
HStem: 245 80<288.5 301> 606 81<284.5 350>
VStem: 92 100<0 245 0 324 324 607> 424 105<435 497.5>
LayerCount: 2
Fore
SplineSet
99 684 m 1,0,-1
 301 687 l 1,1,2
 404 687 404 687 466.5 630 c 128,-1,3
 529 573 529 573 529 466.5 c 128,-1,4
 529 360 529 360 466.5 302.5 c 128,-1,5
 404 245 404 245 301 245 c 2,6,-1
 192 245 l 1,7,-1
 192 0 l 1,8,9
 172 -4 172 -4 142 -4 c 128,-1,10
 112 -4 112 -4 92 0 c 1,11,-1
 92 677 l 1,12,-1
 99 684 l 1,0,-1
192 324 m 1,13,-1
 299 325 l 2,14,15
 347 325 347 325 376.5 348.5 c 128,-1,16
 406 372 406 372 415 401 c 128,-1,17
 424 430 424 430 424 477 c 128,-1,18
 424 524 424 524 396 565 c 128,-1,19
 368 606 368 606 297 606 c 128,-1,20
 226 606 226 606 192 607 c 1,21,-1
 192 324 l 1,13,-1
EndSplineSet
EndChar

StartChar: Q
Encoding: 81 81 47
Width: 650
Flags: HMW
HStem: -126 73 -13 83<289.5 331> 615 81<285.5 364.5 285.5 396>
VStem: 51 104<288 395> 493 105<290 395 290 404.5>
LayerCount: 2
Fore
SplineSet
455 -100 m 2,0,-1
 340 -12 l 1,1,2
 336 -13 336 -13 329 -13 c 0,3,4
 222 -13 222 -13 154 45 c 1,5,6
 51 136 51 136 51 341.5 c 128,-1,7
 51 547 51 547 154 638 c 0,8,9
 220 696 220 696 324.5 696 c 128,-1,10
 429 696 429 696 495 638 c 0,11,12
 598 547 598 547 598 346.5 c 128,-1,13
 598 146 598 146 506 59 c 1,14,15
 478 31 478 31 448 19 c 1,16,-1
 470 4 l 1,17,18
 547 -52 547 -52 597 -53 c 1,19,20
 595 -88 595 -88 575 -107 c 128,-1,21
 555 -126 555 -126 522 -126 c 128,-1,22
 489 -126 489 -126 455 -100 c 2,0,-1
325 615 m 0,23,24
 155 615 155 615 155 342.5 c 128,-1,25
 155 70 155 70 325 70 c 0,26,27
 493 70 493 70 493 342.5 c 128,-1,28
 493 615 493 615 325 615 c 0,23,24
EndSplineSet
EndChar

StartChar: R
Encoding: 82 82 48
Width: 599
Flags: HMW
HStem: 277 83<192 357.5> 607 80<292 357.5>
VStem: 92 100<0 277 0 357 357 608> 432 104<453.5 514>
LayerCount: 2
Fore
SplineSet
99 684 m 1,0,-1
 311 687 l 1,1,2
 416 687 416 687 476 633.5 c 128,-1,3
 536 580 536 580 536 483 c 0,4,5
 536 416 536 416 500 368 c 128,-1,6
 464 320 464 320 407 301 c 1,7,8
 452 285 452 285 477 217 c 2,9,-1
 523 96 l 2,10,11
 543 43 543 43 567 24 c 1,12,13
 547 -7 547 -7 500 -7 c 0,14,15
 473 -7 473 -7 459 7.5 c 128,-1,16
 445 22 445 22 433 55 c 2,17,-1
 381 194 l 2,18,19
 366 235 366 235 343.5 256 c 128,-1,20
 321 277 321 277 278 277 c 2,21,-1
 192 277 l 1,22,-1
 192 0 l 1,23,24
 172 -4 172 -4 142 -4 c 128,-1,25
 112 -4 112 -4 92 0 c 1,26,-1
 92 677 l 1,27,-1
 99 684 l 1,0,-1
192 608 m 1,28,-1
 192 357 l 1,29,30
 251 360 251 360 313.5 360 c 128,-1,31
 376 360 376 360 404 395 c 128,-1,32
 432 430 432 430 432 483 c 0,33,34
 432 607 432 607 307 607 c 0,35,36
 226 607 226 607 192 608 c 1,28,-1
EndSplineSet
EndChar

StartChar: S
Encoding: 83 83 49
Width: 556
Flags: HMW
HStem: -13 84<241.5 317.5 241.5 352> 613 83<248 312>
VStem: 60 102<492 543 492 557.5> 409 104
LayerCount: 2
Fore
SplineSet
32 62 m 1,0,1
 37 110 37 110 75 139 c 1,2,3
 179 71 179 71 276 71 c 0,4,5
 337 71 337 71 373.005154639 98.3842021199 c 0,6,7
 409.010309278 125.76840424 409.010309278 125.76840424 409.010309278 170.440323095 c 0,8,9
 409.010309278 239.432989691 409.010309278 239.432989691 314 281 c 2,10,-1
 197 331 l 1,11,12
 60 391 60 391 60 504 c 0,13,14
 60 586 60 586 122.5 641 c 128,-1,15
 185 696 185 696 288 696 c 0,16,17
 391 696 391 696 493 645 c 1,18,19
 491 597 491 597 456 566 c 1,20,21
 362 613 362 613 296 613 c 0,22,23
 230 613 230 613 196 585.5 c 128,-1,24
 162 558 162 558 162 520.5 c 0,25,26
 162 483 162 483 184 461 c 128,-1,27
 206 439 206 439 248 421 c 2,28,-1
 364 372 l 1,29,30
 513 306 513 306 513 186 c 0,31,32
 513 97 513 97 451 42 c 128,-1,33
 389 -13 389 -13 264.5 -13 c 0,34,35
 140 -13 140 -13 32 62 c 1,0,1
EndSplineSet
EndChar

StartChar: T
Encoding: 84 84 50
Width: 490
Flags: HMW
HStem: 599 84<18 139 18 473 346.5 353 353 423>
VStem: 196 100<0 526 0 600 0 600>
LayerCount: 2
Fore
SplineSet
295 600 m 1,0,-1
 296 526 l 1,1,-1
 296 0 l 1,2,3
 275 -4 275 -4 245.5 -4 c 128,-1,4
 216 -4 216 -4 196 0 c 1,5,-1
 196 600 l 1,6,-1
 139 599 l 1,7,-1
 18 599 l 1,8,9
 14 618 14 618 14 640.5 c 128,-1,10
 14 663 14 663 18 683 c 1,11,-1
 473 683 l 1,12,13
 479 666 479 666 479 643 c 0,14,15
 479 599 479 599 423 599 c 2,16,-1
 353 599 l 1,17,-1
 296 600 l 1,18,-1
 295 600 l 1,0,-1
EndSplineSet
EndChar

StartChar: U
Encoding: 85 85 51
Width: 668
Flags: HMW
HStem: -13 81<285 383 285 409>
VStem: 84 100<238 239 239 623> 485 99<239 683>
LayerCount: 2
Fore
SplineSet
584 683 m 1,0,-1
 584 238 l 2,1,2
 584 117 584 117 516.5 52 c 128,-1,3
 449 -13 449 -13 334 -13 c 0,4,5
 219 -13 219 -13 151.5 52 c 128,-1,6
 84 117 84 117 84 238 c 2,7,-1
 84 681 l 1,8,-1
 90 687 l 1,9,-1
 128 687 l 2,10,11
 159 687 159 687 171.5 672 c 128,-1,12
 184 657 184 657 184 623 c 2,13,-1
 184 239 l 2,14,15
 184 155 184 155 222 111.5 c 128,-1,16
 260 68 260 68 334 68 c 128,-1,17
 408 68 408 68 446.5 111.5 c 128,-1,18
 485 155 485 155 485 239 c 2,19,-1
 485 683 l 1,20,21
 504 687 504 687 534.5 687 c 0,22,23
 565 687 565 687 584 683 c 1,0,-1
EndSplineSet
EndChar

StartChar: V
Encoding: 86 86 52
Width: 571
Flags: HMW
HStem: -5 96<260.5 298>
VStem: 22 531<674 674>
LayerCount: 2
Fore
SplineSet
298 91 m 1,0,-1
 460 683 l 1,1,2
 477 687 477 687 503.5 687 c 0,3,4
 530 687 530 687 549 681 c 1,5,-1
 553 674 l 1,6,-1
 353 -1 l 1,7,8
 305 -5 305 -5 277 -5 c 128,-1,9
 249 -5 249 -5 232.5 4.5 c 128,-1,10
 216 14 216 14 208 44 c 2,11,-1
 22 674 l 1,12,13
 56 690 56 690 83 690 c 0,14,15
 124 690 124 690 138 641 c 2,16,-1
 245 271 l 2,17,18
 254 241 254 241 289 100 c 0,19,20
 291 91 291 91 298 91 c 1,0,-1
EndSplineSet
EndChar

StartChar: W
Encoding: 87 87 53
Width: 844
Flags: HMW
HStem: -5 88<209.5 247> 568 101<360 427 360 420>
VStem: 32 783<674 678>
LayerCount: 2
Fore
SplineSet
158 46 m 2,0,-1
 32 678 l 1,1,2
 57 690 57 690 84.5 690 c 0,3,4
 112 690 112 690 124 678 c 128,-1,5
 136 666 136 666 141 636 c 2,6,-1
 206 287 l 1,7,-1
 239 94 l 2,8,9
 240 86 240 86 241.5 84.5 c 128,-1,10
 243 83 243 83 247 83 c 1,11,-1
 360 669 l 1,12,13
 385 673 385 673 426.5 673 c 0,14,15
 468 673 468 673 489 669 c 1,16,-1
 592 94 l 2,17,18
 593 86 593 86 595 84.5 c 128,-1,19
 597 83 597 83 601 83 c 1,20,21
 614 169 614 169 637 288 c 1,22,-1
 717 683 l 1,23,24
 734 687 734 687 761 687 c 0,25,26
 788 687 788 687 810 681 c 1,27,-1
 815 674 l 1,28,-1
 670 1 l 1,29,30
 634 -5 634 -5 594 -5 c 0,31,32
 554 -5 554 -5 539 5 c 128,-1,33
 524 15 524 15 518 45 c 2,34,-1
 469 319 l 1,35,36
 451 413 451 413 427 568 c 1,37,-1
 420 568 l 1,38,39
 396 426 396 426 375 319 c 2,40,-1
 311 0 l 1,41,42
 271 -5 271 -5 225 -5 c 0,43,44
 168 -5 168 -5 158 46 c 2,0,-1
EndSplineSet
EndChar

StartChar: X
Encoding: 88 88 54
Width: 584
Flags: HMW
HStem: -7 697<100 508.5>
VStem: 19 546<11 15>
LayerCount: 2
Fore
SplineSet
447 683 m 1,0,1
 460 688 460 688 490 688 c 0,2,3
 520 688 520 688 540 679 c 1,4,-1
 543 672 l 1,5,-1
 351 361 l 1,6,-1
 565 15 l 1,7,8
 534 -7 534 -7 497 -7 c 0,9,10
 460 -7 460 -7 435 33 c 2,11,-1
 285 276 l 1,12,-1
 118 0 l 1,13,14
 103 -5 103 -5 73.5 -5 c 0,15,16
 44 -5 44 -5 22 4 c 1,17,-1
 19 11 l 1,18,-1
 235 358 l 1,19,-1
 44 668 l 1,20,21
 75 690 75 690 111.5 690 c 0,22,23
 148 690 148 690 173 650 c 2,24,-1
 301 442 l 1,25,-1
 447 683 l 1,0,1
EndSplineSet
EndChar

StartChar: Y
Encoding: 89 89 55
Width: 498
Flags: HMW
HStem: -4 694<63.5 257.5>
VStem: 200 100<0 220 0 222 0 222>
LayerCount: 2
Fore
SplineSet
301 447 m 2,0,-1
 394 683 l 1,1,2
 411 688 411 688 435.5 688 c 0,3,4
 460 688 460 688 485 681 c 1,5,-1
 490 674 l 1,6,-1
 300 220 l 1,7,-1
 300 0 l 1,8,9
 280 -4 280 -4 249.5 -4 c 0,10,11
 219 -4 219 -4 200 0 c 1,12,-1
 200 222 l 1,13,-1
 10 672 l 1,14,15
 42 690 42 690 67.5 690 c 0,16,17
 93 690 93 690 105.5 679.5 c 128,-1,18
 118 669 118 669 127 646 c 2,19,-1
 210 445 l 2,20,21
 226 405 226 405 252 322 c 1,22,-1
 257 322 l 1,23,24
 273 377 273 377 301 447 c 2,0,-1
EndSplineSet
EndChar

StartChar: Z
Encoding: 90 90 56
Width: 560
Flags: HMW
HStem: 0 87<275 385 385 411.5 275 441> 598 85<78 238 75 487>
VStem: 49 462<58.5 64.5 38 70.5>
LayerCount: 2
Fore
SplineSet
62 108 m 1,0,-1
 319 496 l 2,1,2
 348 539 348 539 397 603 c 1,3,-1
 394 606 l 1,4,5
 353 598 353 598 238 598 c 2,6,-1
 75 598 l 1,7,8
 71 614 71 614 71 636.5 c 0,9,10
 71 659 71 659 78 683 c 1,11,-1
 487 683 l 1,12,13
 502 632 502 632 502 615 c 0,14,15
 502 598 502 598 488 577 c 2,16,-1
 233 193 l 2,17,18
 197 138 197 138 155 84 c 1,19,-1
 158 81 l 1,20,21
 221 87 221 87 275 87 c 2,22,-1
 385 87 l 2,23,24
 464 87 464 87 503 105 c 1,25,26
 511 83 511 83 511 56 c 0,27,28
 511 0 511 0 441 0 c 2,29,-1
 62 0 l 1,30,31
 49 48 49 48 49 67 c 0,32,33
 49 86 49 86 62 108 c 1,0,-1
EndSplineSet
EndChar

StartChar: ampersand
Encoding: 38 38 57
Width: 618
Flags: HMW
HStem: -13 80<231 272> 320 84<247.5 493 310 400 495 511 310 527 495 495> 615 81<260 321.5 222 323>
VStem: 51 104<147 217 147 226> 80 104<482.5 542 480 567> 399 97<131 150 150 257 257 258>
LayerCount: 2
Fore
SplineSet
495 320 m 1,0,-1
 496 258 l 1,1,-1
 496 150 l 2,2,3
 496 111 496 111 502 0 c 1,4,5
 482 -5 482 -5 457.5 -5 c 128,-1,6
 433 -5 433 -5 411 -1 c 1,7,-1
 403 40 l 1,8,9
 330 -13 330 -13 240.5 -13 c 128,-1,10
 151 -13 151 -13 101 40.5 c 128,-1,11
 51 94 51 94 51 180 c 0,12,13
 51 246 51 246 89.5 297.5 c 128,-1,14
 128 349 128 349 183 366 c 1,15,16
 138 382 138 382 109 424 c 128,-1,17
 80 466 80 466 80 518 c 0,18,19
 80 594 80 594 136 645 c 128,-1,20
 192 696 192 696 290 696 c 128,-1,21
 388 696 388 696 468 667 c 1,22,23
 468.133333333 663.8 468.133333333 663.8 468.133333333 660.684444444 c 0,24,25
 468.133333333 617.066666667 468.133333333 617.066666667 442 590 c 1,26,27
 357 615 357 615 300 615 c 128,-1,28
 243 615 243 615 213.5 586.5 c 128,-1,29
 184 558 184 558 184 510 c 128,-1,30
 184 462 184 462 215 433 c 128,-1,31
 246 404 246 404 310 404 c 2,32,-1
 493 404 l 2,33,34
 554 404 554 404 587 419 c 1,35,36
 600 403 600 403 600 372 c 0,37,38
 600 320 600 320 527 320 c 2,39,-1
 495 320 l 1,0,-1
399 257 m 2,40,41
 399 297 399 297 400 320 c 1,42,-1
 300 320 l 2,43,44
 227 320 227 320 191 280 c 128,-1,45
 155 240 155 240 155 184.5 c 128,-1,46
 155 129 155 129 184.5 98 c 128,-1,47
 214 67 214 67 264 67 c 0,48,49
 343 67 343 67 399 115 c 1,50,-1
 399 257 l 2,40,41
EndSplineSet
EndChar

StartChar: zero
Encoding: 48 48 58
Width: 530
Flags: HMW
HStem: -13 77<249 281.5 249 299> 584 77<249 281.5>
VStem: 48 102<265 383.5 265 387.5> 380 102<265 383.5>
LayerCount: 2
Fore
SplineSet
63.5 155.5 m 128,-1,1
 48 221 48 221 48 324.5 c 128,-1,2
 48 428 48 428 63 493 c 128,-1,3
 78 558 78 558 121 604 c 0,4,5
 176 661 176 661 264 661 c 128,-1,6
 352 661 352 661 409 604 c 1,7,8
 451 558 451 558 466.5 492.5 c 128,-1,9
 482 427 482 427 482 324 c 128,-1,10
 482 221 482 221 466.5 155.5 c 128,-1,11
 451 90 451 90 409 44 c 1,12,13
 352 -13 352 -13 265 -13 c 128,-1,14
 178 -13 178 -13 121 44 c 1,15,0
 79 90 79 90 63.5 155.5 c 128,-1,1
150 324 m 128,-1,17
 150 151 150 151 191 99 c 1,18,19
 217 64 217 64 265 64 c 128,-1,20
 313 64 313 64 339 99 c 1,21,22
 380 151 380 151 380 324 c 128,-1,23
 380 497 380 497 339 549 c 1,24,25
 313 584 313 584 265 584 c 128,-1,26
 217 584 217 584 191 549 c 1,27,16
 150 497 150 497 150 324 c 128,-1,17
EndSplineSet
EndChar

StartChar: one
Encoding: 49 49 59
Width: 530
Flags: HMW
HStem: 0 82<97 190 190 196 398 468 97 190> 628 20G<341 341>
VStem: 245 96<147 387 387 399>
LayerCount: 2
Fore
SplineSet
246 81 m 1,0,-1
 245 147 l 1,1,-1
 245 387 l 2,2,3
 245 406 245 406 250 508 c 1,4,5
 192 436 192 436 104 399 c 1,6,7
 71 418 71 418 62 457 c 1,8,9
 204 545 204 545 249 648 c 1,10,11
 269 653 269 653 294.5 653 c 128,-1,12
 320 653 320 653 341 648 c 1,13,-1
 341 147 l 1,14,-1
 340 81 l 1,15,-1
 398 82 l 1,16,-1
 468 82 l 1,17,18
 473 60 473 60 473 41.5 c 128,-1,19
 473 23 473 23 468 0 c 1,20,-1
 97 0 l 1,21,22
 92 23 92 23 92 41.5 c 128,-1,23
 92 60 92 60 97 82 c 1,24,-1
 190 82 l 1,25,-1
 246 81 l 1,0,-1
EndSplineSet
EndChar

StartChar: two
Encoding: 50 50 60
Width: 530
Flags: HMW
HStem: 0 86<284 408> 580 81<228 285>
VStem: 357 100<449 508.5>
LayerCount: 2
Fore
SplineSet
473 86 m 1,0,1
 473 61 473 61 471 48 c 0,2,3
 463 0 463 0 408 0 c 2,4,-1
 96 0 l 1,5,6
 56 35 56 35 56 62 c 0,7,8
 56 146 56 146 182 253 c 1,9,-1
 279 338 l 1,10,11
 357 405 357 405 357 477 c 0,12,13
 357 524 357 524 328.5 552 c 128,-1,14
 300 580 300 580 258 580 c 0,15,16
 216 580 216 580 183.5 553.5 c 128,-1,17
 151 527 151 527 133 484 c 1,18,19
 81 488 81 488 63 518 c 1,20,21
 86 579 86 579 139.5 620 c 128,-1,22
 193 661 193 661 272.5 661 c 0,23,24
 352 661 352 661 404.5 609.5 c 128,-1,25
 457 558 457 558 457 476 c 0,26,27
 457 429 457 429 437.5 388 c 128,-1,28
 418 347 418 347 395.5 323.5 c 128,-1,29
 373 300 373 300 332 265 c 2,30,-1
 255 198 l 1,31,32
 166 122 166 122 154 79 c 1,33,34
 221 86 221 86 284 86 c 2,35,-1
 473 86 l 1,0,1
EndSplineSet
EndChar

StartChar: three
Encoding: 51 51 61
Width: 530
Flags: HMW
HStem: -13 80<207 273 207 302> 326 67 563 85<81 222 78 428>
VStem: 371 102<160.5 245>
LayerCount: 2
Fore
SplineSet
429 541 m 2,0,-1
 320 425 l 2,1,2
 301 405 301 405 283 393 c 1,3,4
 365 391 365 391 419 342.5 c 128,-1,5
 473 294 473 294 473 197 c 0,6,7
 473 100 473 100 405.5 43.5 c 128,-1,8
 338 -13 338 -13 247 -13 c 0,9,10
 127 -13 127 -13 50 52 c 1,11,12
 59 92 59 92 93 118 c 1,13,14
 161 67 161 67 228 67 c 0,15,16
 295 67 295 67 333 103.5 c 128,-1,17
 371 140 371 140 371 201.5 c 0,18,19
 371 263 371 263 340 294.5 c 128,-1,20
 309 326 309 326 263 326 c 0,21,22
 217 326 217 326 186 309 c 1,23,24
 157 322 157 322 146 362 c 1,25,-1
 275 502 l 2,26,27
 305 536 305 536 343 568 c 1,28,-1
 339 572 l 1,29,30
 298 563 298 563 222 563 c 2,31,-1
 78 563 l 1,32,33
 72 580 72 580 72 603 c 0,34,35
 72 626 72 626 81 648 c 1,36,-1
 428 648 l 1,37,38
 449 610 449 610 449 586 c 128,-1,39
 449 562 449 562 429 541 c 2,0,-1
EndSplineSet
EndChar

StartChar: four
Encoding: 52 52 62
Width: 530
Flags: HMW
HStem: 140 82<136 136 136 244 63 136> 634 20G<231 231>
VStem: 294 95<0 91 0 98.5 265.5 273 273 340 340 363.5>
LayerCount: 2
Fore
SplineSet
388 141 m 1,0,-1
 389 91 l 1,1,-1
 389 0 l 1,2,3
 369 -4 369 -4 341.5 -4 c 128,-1,4
 314 -4 314 -4 294 0 c 1,5,-1
 294 91 l 1,6,-1
 295 141 l 1,7,-1
 244 140 l 1,8,-1
 63 140 l 1,9,10
 41 177 41 177 41 195.5 c 128,-1,11
 41 214 41 214 61 261 c 2,12,-1
 231 654 l 1,13,14
 241 656.380952381 241 656.380952381 253.166666667 656.380952381 c 0,15,16
 298.222222222 656.380952381 298.222222222 656.380952381 322 636 c 1,17,-1
 201 358 l 2,18,19
 160 262 160 262 136 222 c 1,20,-1
 138 219 l 1,21,22
 195 222 195 222 251 222 c 2,23,-1
 295 222 l 1,24,25
 294 233 294 233 294 256 c 2,26,-1
 294 340 l 2,27,28
 294 375 294 375 311 394.5 c 128,-1,29
 328 414 328 414 358 414 c 2,30,-1
 385 414 l 1,31,-1
 389 410 l 1,32,-1
 389 273 l 1,33,-1
 388 222 l 1,34,-1
 433 223 l 1,35,-1
 489 223 l 1,36,37
 492 210 492 210 492 186 c 128,-1,38
 492 162 492 162 485 141 c 1,39,-1
 388 141 l 1,0,-1
EndSplineSet
EndChar

StartChar: five
Encoding: 53 53 63
Width: 530
Flags: HMW
HStem: -13 80<211 272.5 211 301.5> 353 77<253.5 273> 564 84<185 227 185 185 227 401>
VStem: 88 94 370 101<165.5 270>
LayerCount: 2
Fore
SplineSet
437 648 m 1,0,1
 444 628 444 628 444 608 c 0,2,3
 444 564 444 564 401 564 c 2,4,-1
 185 564 l 1,5,6
 185 523 185 523 184 511 c 2,7,-1
 180 438 l 2,8,9
 180 428 180 428 177 410 c 1,10,11
 224 430 224 430 270 430 c 0,12,13
 362 430 362 430 416.5 375 c 128,-1,14
 471 320 471 320 471 214.5 c 128,-1,15
 471 109 471 109 404.5 48 c 128,-1,16
 338 -13 338 -13 236 -13 c 128,-1,17
 134 -13 134 -13 58 50 c 1,18,19
 66 90 66 90 100 116 c 1,20,21
 170 67 170 67 232 67 c 128,-1,22
 294 67 294 67 332 105.5 c 128,-1,23
 370 144 370 144 370 216.5 c 128,-1,24
 370 289 370 289 332.5 321 c 128,-1,25
 295 353 295 353 238.5 353 c 128,-1,26
 182 353 182 353 128 307 c 1,27,28
 115 309 115 309 101 319 c 128,-1,29
 87 329 87 329 81 340 c 1,30,-1
 95 641 l 1,31,-1
 102 648 l 1,32,-1
 437 648 l 1,0,1
EndSplineSet
EndChar

StartChar: six
Encoding: 54 54 64
Width: 530
Flags: HMW
HStem: -13 76<256 309 256 334> 350 82<272.5 307.5> 582 79<258 335>
VStem: 52 102<248 275 275 291 248 429> 384 100<165 262.5>
LayerCount: 2
Fore
SplineSet
424.5 50.5 m 128,-1,1
 365 -13 365 -13 270 -13 c 128,-1,2
 175 -13 175 -13 123 50 c 0,3,4
 112 63 112 63 108 68.5 c 128,-1,5
 104 74 104 74 91 99 c 128,-1,6
 78 124 78 124 71.5 150.5 c 0,7,8
 52 230 52 230 52 328 c 0,9,10
 52 483 52 483 118 572 c 128,-1,11
 184 661 184 661 308 661 c 0,12,13
 396 661 396 661 450 629 c 1,14,15
 446 584 446 584 415 560 c 1,16,17
 365 582 365 582 313 582 c 0,18,19
 235 582 235 582 196 524.5 c 128,-1,20
 157 467 157 467 154 373 c 1,21,22
 218 432 218 432 302 432 c 128,-1,23
 386 432 386 432 435 377.5 c 128,-1,24
 484 323 484 323 484 218.5 c 128,-1,0
 484 114 484 114 424.5 50.5 c 128,-1,1
277 350 m 0,25,26
 210 350 210 350 154 291 c 1,27,-1
 154 275 l 2,28,29
 154 156 154 156 197 101 c 0,30,31
 226 63 226 63 276 63 c 128,-1,32
 326 63 326 63 355 102.5 c 128,-1,33
 384 142 384 142 384 209 c 0,34,35
 384 350 384 350 277 350 c 0,25,26
EndSplineSet
EndChar

StartChar: seven
Encoding: 55 55 65
Width: 530
Flags: HMW
HStem: 563 85<70 231 66 464>
VStem: 156 100
LayerCount: 2
Fore
SplineSet
70 648 m 1,0,-1
 464 648 l 1,1,2
 483 612 483 612 483 589.5 c 0,3,4
 483 567 483 567 467 545 c 2,5,-1
 434 497 l 2,6,7
 356 382 356 382 313.5 276.5 c 128,-1,8
 271 171 271 171 258 35 c 1,9,-1
 255 0 l 1,10,11
 233 -5 233 -5 205 -5 c 0,12,13
 177 -5 177 -5 154 0 c 1,14,-1
 158 40 l 2,15,16
 181 276 181 276 323 482 c 2,17,-1
 334 498 l 2,18,19
 350 523 350 523 389 568 c 1,20,-1
 386 572 l 1,21,22
 346 563 346 563 231 563 c 2,23,-1
 66 563 l 1,24,25
 62 578 62 578 62 600 c 0,26,27
 62 622 62 622 70 648 c 1,0,-1
EndSplineSet
EndChar

StartChar: eight
Encoding: 56 56 66
Width: 530
Flags: HMW
HStem: -13 72<231 296.5 231 320.5> 588 73<235.5 293>
VStem: 46 100<134 196.5 134 202> 64 98<462.5 521 462.5 540> 368 97<467 521.5> 382 101<171 207.5>
LayerCount: 2
Fore
SplineSet
46 163 m 0,0,1
 46 219 46 219 79.5 265 c 128,-1,2
 113 311 113 311 164 337 c 1,3,4
 64 392 64 392 64 490 c 0,5,6
 64 564 64 564 121.5 612.5 c 128,-1,7
 179 661 179 661 266 661 c 0,8,9
 353 661 353 661 409 614.5 c 128,-1,10
 465 568 465 568 465 495 c 0,11,12
 465 447 465 447 438 409 c 128,-1,13
 411 371 411 371 367 347 c 1,14,15
 483 286 483 286 483 171 c 1,16,17
 482 87 482 87 418 37 c 128,-1,18
 354 -13 354 -13 258.5 -13 c 0,19,20
 163 -13 163 -13 104.5 33.5 c 128,-1,21
 46 80 46 80 46 163 c 0,0,1
237 307 m 1,22,-1
 235 307 l 1,23,24
 192 284 192 284 169 247.5 c 128,-1,25
 146 211 146 211 146 164.5 c 0,26,27
 146 118 146 118 179.5 88.5 c 128,-1,28
 213 59 213 59 263.5 59 c 0,29,30
 314 59 314 59 348 90 c 128,-1,31
 382 121 382 121 382 172 c 0,32,33
 382 265 382 265 253 302 c 1,34,-1
 237 307 l 1,22,-1
162 492 m 0,35,36
 162 413 162 413 281 380 c 1,37,-1
 293 376 l 1,38,39
 368 417 368 417 368 491 c 0,40,41
 368 536 368 536 338.5 562 c 128,-1,42
 309 588 309 588 264.5 588 c 0,43,44
 220 588 220 588 191 561.5 c 128,-1,45
 162 535 162 535 162 492 c 0,35,36
EndSplineSet
EndChar

StartChar: nine
Encoding: 57 57 67
Width: 530
Flags: HMW
HStem: -13 79<195 271.5 195 306> 216 82<222.5 257.5> 585 76<221 274>
VStem: 46 100<385.5 483 385.5 500> 375 103
LayerCount: 2
Fore
SplineSet
105.5 597.5 m 128,-1,1
 165 661 165 661 260 661 c 128,-1,2
 355 661 355 661 407 598 c 0,3,4
 418 585 418 585 422 579.5 c 128,-1,5
 426 574 426 574 439 549 c 128,-1,6
 452 524 452 524 458.5 497.5 c 0,7,8
 478 418 478 418 478 320 c 0,9,10
 478 165 478 165 412 76 c 128,-1,11
 346 -13 346 -13 222 -13 c 0,12,13
 134 -13 134 -13 80 19 c 1,14,15
 84 64 84 64 115 88 c 1,16,17
 165 66 165 66 217 66 c 0,18,19
 295 66 295 66 334 123 c 128,-1,20
 373 180 373 180 375 274 c 1,21,22
 312 216 312 216 228 216 c 128,-1,23
 144 216 144 216 95 270.5 c 128,-1,24
 46 325 46 325 46 429.5 c 128,-1,0
 46 534 46 534 105.5 597.5 c 128,-1,1
253 298 m 0,25,26
 320 298 320 298 376 357 c 1,27,-1
 376 373 l 2,28,29
 376 492 376 492 333 547 c 0,30,31
 304 585 304 585 254 585 c 128,-1,32
 204 585 204 585 175 545.5 c 128,-1,33
 146 506 146 506 146 439 c 0,34,35
 146 298 146 298 253 298 c 0,25,26
EndSplineSet
EndChar

StartChar: period
Encoding: 46 46 68
Width: 260
Flags: HMW
HStem: 4 98<71 71 189 189>
VStem: 62 127
LayerCount: 2
Fore
SplineSet
62 53 m 128,-1,1
 62 84 62 84 71 102 c 1,2,3
 93 114 93 114 130.5 114 c 0,4,5
 168 114 168 114 189 102 c 1,6,7
 198 84 198 84 198 53 c 128,-1,8
 198 22 198 22 189 4 c 1,9,10
 170 -8 170 -8 131.5 -8 c 0,11,12
 93 -8 93 -8 71 4 c 1,13,0
 62 22 62 22 62 53 c 128,-1,1
EndSplineSet
EndChar

StartChar: periodcentered
Encoding: 183 183 69
Width: 302
Flags: HMW
HStem: 234 98<96 96 207 207>
VStem: 87 120
LayerCount: 2
Fore
SplineSet
87 283 m 128,-1,1
 87 314 87 314 96 332 c 1,2,3
 117 344 117 344 151.5 344 c 0,4,5
 186 344 186 344 207 332 c 1,6,7
 215 313 215 313 215 283 c 128,-1,8
 215 253 215 253 207 234 c 1,9,10
 188 222 188 222 152.5 222 c 0,11,12
 117 222 117 222 96 234 c 1,13,0
 87 252 87 252 87 283 c 128,-1,1
EndSplineSet
EndChar

StartChar: bullet
Encoding: 8226 8226 70
Width: 445
Flags: HMW
HStem: 186 171<127 127 320 320>
VStem: 112 208
LayerCount: 2
Fore
SplineSet
127 186 m 1,0,1
 112 217 112 217 112 271.5 c 128,-1,2
 112 326 112 326 127 357 c 1,3,4
 164 378 164 378 225.5 378 c 128,-1,5
 287 378 287 378 320 357 c 1,6,7
 335 326 335 326 335 272 c 128,-1,8
 335 218 335 218 320 186 c 1,9,10
 288 165 288 165 226 165 c 128,-1,11
 164 165 164 165 127 186 c 1,0,1
EndSplineSet
EndChar

StartChar: comma
Encoding: 44 44 71
Width: 266
Flags: HMW
HStem: -159 273
VStem: 77 127
LayerCount: 2
Fore
SplineSet
60 -159 m 1,0,1
 34.5555555556 -145.299145299 34.5555555556 -145.299145299 34.5555555556 -115.617283951 c 0,2,3
 34.5555555556 -112.333333333 34.5555555556 -112.333333333 35 -109 c 1,4,5
 70 -93 70 -93 92.5 -66.5 c 128,-1,6
 115 -40 115 -40 116 -9 c 1,7,8
 86 -1 86 -1 77 5 c 1,9,10
 68 21 68 21 68 54.5 c 128,-1,11
 68 88 68 88 77 101 c 1,12,13
 101 114 101 114 138.5 114 c 128,-1,14
 176 114 176 114 194 101 c 1,15,16
 204 78 204 78 204 37 c 0,17,18
 204 -28 204 -28 167 -81 c 128,-1,19
 130 -134 130 -134 60 -159 c 1,0,1
EndSplineSet
EndChar

StartChar: colon
Encoding: 58 58 72
Width: 265
Flags: HMW
HStem: 4 98<74 74 192 192> 336 98<74 74 192 192>
VStem: 65 127
LayerCount: 2
Fore
SplineSet
65 53 m 128,-1,1
 65 84 65 84 74 102 c 1,2,3
 96 114 96 114 133.5 114 c 0,4,5
 171 114 171 114 192 102 c 1,6,7
 201 84 201 84 201 53 c 128,-1,8
 201 22 201 22 192 4 c 1,9,10
 173 -8 173 -8 134.5 -8 c 0,11,12
 96 -8 96 -8 74 4 c 1,13,0
 65 22 65 22 65 53 c 128,-1,1
65 385 m 128,-1,15
 65 416 65 416 74 434 c 1,16,17
 96 446 96 446 133.5 446 c 0,18,19
 171 446 171 446 192 434 c 1,20,21
 201 416 201 416 201 385 c 128,-1,22
 201 354 201 354 192 336 c 1,23,24
 173 324 173 324 134.5 324 c 0,25,26
 96 324 96 324 74 336 c 1,27,14
 65 354 65 354 65 385 c 128,-1,15
EndSplineSet
EndChar

StartChar: semicolon
Encoding: 59 59 73
Width: 269
Flags: HMW
HStem: -159 273 336 98<76 76 194 194>
VStem: 67 127 76 127
LayerCount: 2
Fore
SplineSet
59 -159 m 1,0,1
 33.5555555556 -145.299145299 33.5555555556 -145.299145299 33.5555555556 -115.617283951 c 0,2,3
 33.5555555556 -112.333333333 33.5555555556 -112.333333333 34 -109 c 1,4,5
 69 -93 69 -93 91.5 -66.5 c 128,-1,6
 114 -40 114 -40 115 -9 c 1,7,8
 84 -1 84 -1 76 5 c 1,9,10
 67 21 67 21 67 54.5 c 128,-1,11
 67 88 67 88 76 101 c 1,12,13
 100 114 100 114 137.5 114 c 128,-1,14
 175 114 175 114 193 101 c 1,15,16
 203 78 203 78 203 37 c 0,17,18
 203 -28 203 -28 166 -81 c 128,-1,19
 129 -134 129 -134 59 -159 c 1,0,1
67 385 m 128,-1,21
 67 416 67 416 76 434 c 1,22,23
 98 446 98 446 135.5 446 c 128,-1,24
 173 446 173 446 194 434 c 1,25,26
 203 416 203 416 203 385 c 128,-1,27
 203 354 203 354 194 336 c 1,28,29
 175 324 175 324 136.5 324 c 128,-1,30
 98 324 98 324 76 336 c 1,31,20
 67 354 67 354 67 385 c 128,-1,21
EndSplineSet
EndChar

StartChar: exclam
Encoding: 33 33 74
Width: 285
Flags: HMW
HStem: 4 102 683 7<175.5 202>
VStem: 97 93
LayerCount: 2
Fore
SplineSet
103 193 m 1,0,-1
 92 662 l 1,1,2
 130 690 130 690 196 690 c 1,3,-1
 202 683 l 1,4,-1
 179 193 l 1,5,6
 164 188 164 188 141 188 c 128,-1,7
 118 188 118 188 103 193 c 1,0,-1
87 94 m 1,8,9
 107 106 107 106 141.5 106 c 128,-1,10
 176 106 176 106 196 94 c 1,11,12
 204 80 204 80 204 48.5 c 128,-1,13
 204 17 204 17 196 4 c 1,14,15
 176 -8 176 -8 141.5 -8 c 128,-1,16
 107 -8 107 -8 87 4 c 1,17,18
 79 17 79 17 79 48.5 c 128,-1,19
 79 80 79 80 87 94 c 1,8,9
EndSplineSet
EndChar

StartChar: exclamdown
Encoding: 161 161 75
Width: 285
Flags: HMW
HStem: -197 7<83 110> 386 103
VStem: 95 92
LayerCount: 2
Fore
SplineSet
182 300 m 1,0,-1
 193 -169 l 1,1,2
 155 -197 155 -197 89 -197 c 1,3,-1
 83 -190 l 1,4,-1
 107 300 l 1,5,6
 122 305 122 305 145 305 c 0,7,8
 168 305 168 305 182 300 c 1,0,-1
144 386 m 128,-1,10
 110 386 110 386 90 399 c 1,11,12
 81 413 81 413 81 443 c 0,13,14
 81 473 81 473 90 489 c 1,15,16
 111 501 111 501 144 501 c 128,-1,17
 177 501 177 501 199 489 c 1,18,19
 207 475 207 475 207 443.5 c 0,20,21
 207 412 207 412 199 399 c 1,22,9
 178 386 178 386 144 386 c 128,-1,10
EndSplineSet
EndChar

StartChar: question
Encoding: 63 63 76
Width: 393
Flags: HMW
HStem: 3 102 609 86<166.5 211.5>
VStem: 92 109<3 3 93 93> 105 81 280 104<487 544.5>
LayerCount: 2
Fore
SplineSet
12 646 m 1,0,1
 103 695 103 695 193.5 695 c 128,-1,2
 284 695 284 695 334 649 c 128,-1,3
 384 603 384 603 384 526 c 0,4,5
 384 406 384 406 254 333 c 2,6,-1
 191 298 l 1,7,-1
 183 193 l 1,8,9
 169 188 169 188 146 188 c 128,-1,10
 123 188 123 188 108 193 c 1,11,-1
 103 342 l 1,12,-1
 111 353 l 1,13,-1
 159 377 l 1,14,15
 280 440 280 440 280 517 c 0,16,17
 280 559 280 559 253.5 584 c 128,-1,18
 227 609 227 609 172.5 609 c 128,-1,19
 118 609 118 609 48 572 c 1,20,21
 35 584 35 584 24 605 c 128,-1,22
 13 626 13 626 12 646 c 1,0,1
92 93 m 1,23,24
 111 105 111 105 146.5 105 c 128,-1,25
 182 105 182 105 201 93 c 1,26,27
 210 77 210 77 210 47 c 128,-1,28
 210 17 210 17 201 3 c 1,29,30
 182 -9 182 -9 146.5 -9 c 128,-1,31
 111 -9 111 -9 92 3 c 1,32,33
 84 16 84 16 84 47.5 c 128,-1,34
 84 79 84 79 92 93 c 1,23,24
EndSplineSet
EndChar

StartChar: questiondown
Encoding: 191 191 77
Width: 393
Flags: HMW
HStem: -204 86<184.5 228.5> 386 103
VStem: 11 104<-53 5 -53 11> 194 109<399 399 489 489> 208 81
LayerCount: 2
Fore
SplineSet
383 -154 m 1,0,1
 290 -204 290 -204 200.5 -204 c 128,-1,2
 111 -204 111 -204 61 -158 c 128,-1,3
 11 -112 11 -112 11 -35 c 0,4,5
 11 85 11 85 141 159 c 1,6,-1
 204 194 l 1,7,-1
 212 299 l 1,8,9
 226 304 226 304 249 304 c 128,-1,10
 272 304 272 304 287 299 c 1,11,-1
 292 150 l 1,12,-1
 284 139 l 1,13,-1
 236 115 l 1,14,15
 115 51 115 51 115 -25 c 0,16,17
 115 -67 115 -67 142 -92.5 c 128,-1,18
 169 -118 169 -118 222 -118 c 128,-1,19
 275 -118 275 -118 347 -80 c 1,20,21
 360 -92 360 -92 371 -113 c 128,-1,22
 382 -134 382 -134 383 -154 c 1,0,1
303 399 m 1,23,24
 282 386 282 386 248.5 386 c 128,-1,25
 215 386 215 386 194 399 c 1,26,27
 186 412 186 412 186 443.5 c 128,-1,28
 186 475 186 475 194 489 c 1,29,30
 216 501 216 501 248.5 501 c 128,-1,31
 281 501 281 501 303 489 c 1,32,33
 311 475 311 475 311 443.5 c 128,-1,34
 311 412 311 412 303 399 c 1,23,24
EndSplineSet
EndChar

StartChar: quoteleft
Encoding: 8216 8216 78
Width: 223
Flags: HMW
HStem: 520 107
VStem: 43 128
LayerCount: 2
Fore
SplineSet
54 520 m 1,0,1
 43 545 43 545 43 584 c 0,2,3
 43 645 43 645 75.5 691 c 128,-1,4
 108 737 108 737 171 760 c 1,5,6
 184 754 184 754 190.710526316 741.473684211 c 0,7,8
 197.421052632 728.947368421 197.421052632 728.947368421 197.421052632 721.947368421 c 0,9,10
 197.421052632 714.947368421 197.421052632 714.947368421 197 712 c 1,11,12
 169 699 169 699 149.5 676.5 c 128,-1,13
 130 654 130 654 129 627 c 1,14,15
 158 625 158 625 171 616 c 1,16,17
 180 600 180 600 180 567 c 0,18,19
 180 534 180 534 171 520 c 1,20,21
 147 507 147 507 109.5 507 c 0,22,23
 72 507 72 507 54 520 c 1,0,1
EndSplineSet
EndChar

StartChar: quoteright
Encoding: 8217 8217 79
Width: 223
Flags: HMW
HStem: 534 20G 639 107
VStem: 52 128
LayerCount: 2
Fore
SplineSet
169 746 m 1,0,1
 180 721 180 721 180 682 c 0,2,3
 180 621 180 621 147.5 575 c 128,-1,4
 115 529 115 529 52 506 c 1,5,6
 39 512 39 512 32.2894736842 524.526315789 c 0,7,8
 25.5789473684 537.052631579 25.5789473684 537.052631579 25.5789473684 544.052631579 c 0,9,10
 25.5789473684 551.052631579 25.5789473684 551.052631579 26 554 c 1,11,12
 54 567 54 567 73.5 589.5 c 128,-1,13
 93 612 93 612 94 639 c 1,14,15
 65 641 65 641 52 650 c 1,16,17
 43 666 43 666 43 699 c 0,18,19
 43 732 43 732 52 746 c 1,20,21
 76 759 76 759 113.5 759 c 0,22,23
 151 759 151 759 169 746 c 1,0,1
EndSplineSet
EndChar

StartChar: quotedblleft
Encoding: 8220 8220 80
Width: 412
Flags: HMW
HStem: 520 107
VStem: 42 128 231 128
LayerCount: 2
Fore
SplineSet
53 520 m 1,0,1
 42 545 42 545 42 584 c 0,2,3
 42 645 42 645 74.5 691 c 128,-1,4
 107 737 107 737 170 760 c 1,5,6
 183 754 183 754 190.5 740 c 128,-1,7
 198 726 198 726 196 712 c 1,8,9
 168 699 168 699 148.5 676.5 c 128,-1,10
 129 654 129 654 128 627 c 1,11,12
 157 625 157 625 170 616 c 1,13,14
 179 600 179 600 179 567 c 0,15,16
 179 534 179 534 170 520 c 1,17,18
 146 507 146 507 108.5 507 c 0,19,20
 71 507 71 507 53 520 c 1,0,1
242 520 m 1,21,22
 231 545 231 545 231 584 c 0,23,24
 231 645 231 645 263.5 691 c 128,-1,25
 296 737 296 737 359 760 c 1,26,27
 372 754 372 754 378.710526316 741.473684211 c 0,28,29
 385.421052632 728.947368421 385.421052632 728.947368421 385.421052632 721.947368421 c 0,30,31
 385.421052632 714.947368421 385.421052632 714.947368421 385 712 c 1,32,33
 357 699 357 699 337.5 676.5 c 128,-1,34
 318 654 318 654 317 627 c 1,35,36
 346 625 346 625 359 616 c 1,37,38
 368 600 368 600 368 567 c 0,39,40
 368 534 368 534 359 520 c 1,41,42
 335 507 335 507 297.5 507 c 0,43,44
 260 507 260 507 242 520 c 1,21,22
EndSplineSet
EndChar

StartChar: quotedblright
Encoding: 8221 8221 81
Width: 412
Flags: HMW
HStem: 534 20G 639 107
VStem: 53 128 243 128
LayerCount: 2
Fore
SplineSet
170 746 m 1,0,1
 181 721 181 721 181 682 c 0,2,3
 181 621 181 621 148.5 575 c 128,-1,4
 116 529 116 529 53 506 c 1,5,6
 40 512 40 512 33.2894736842 524.526315789 c 0,7,8
 26.5789473684 537.052631579 26.5789473684 537.052631579 26.5789473684 544.052631579 c 0,9,10
 26.5789473684 551.052631579 26.5789473684 551.052631579 27 554 c 1,11,12
 55 567 55 567 74.5 589.5 c 128,-1,13
 94 612 94 612 95 639 c 1,14,15
 66 641 66 641 53 650 c 1,16,17
 44 666 44 666 44 699 c 0,18,19
 44 732 44 732 53 746 c 1,20,21
 77 759 77 759 114.5 759 c 0,22,23
 152 759 152 759 170 746 c 1,0,1
360 746 m 1,24,25
 371 721 371 721 371 682 c 0,26,27
 371 621 371 621 338.5 575 c 128,-1,28
 306 529 306 529 243 506 c 1,29,30
 230 512 230 512 223.289473684 524.526315789 c 0,31,32
 216.578947368 537.052631579 216.578947368 537.052631579 216.578947368 544.052631579 c 0,33,34
 216.578947368 551.052631579 216.578947368 551.052631579 217 554 c 1,35,36
 245 567 245 567 264.5 589.5 c 128,-1,37
 284 612 284 612 285 639 c 1,38,39
 256 641 256 641 243 650 c 1,40,41
 234 666 234 666 234 699 c 0,42,43
 234 732 234 732 243 746 c 1,44,45
 267 759 267 759 304.5 759 c 0,46,47
 342 759 342 759 360 746 c 1,24,25
EndSplineSet
EndChar

StartChar: quotesingle
Encoding: 39 39 82
Width: 207
Flags: HMW
HStem: 505 243 505 255
VStem: 44 112<693.5 709.5>
LayerCount: 2
Fore
SplineSet
44 711 m 128,-1,1
 44 726 44 726 50 748 c 1,2,3
 71 760 71 760 100.5 760 c 128,-1,4
 130 760 130 760 149 748 c 1,5,6
 156 722 156 722 156 708.5 c 128,-1,7
 156 695 156 695 151 668.5 c 0,8,9
 132.137931034 568.531034483 132.137931034 568.531034483 125 510 c 1,10,11
 117 505 117 505 100.5 505 c 128,-1,12
 84 505 84 505 74 510 c 1,13,14
 66 577.2 66 577.2 55 636.6 c 128,-1,0
 44 696 44 696 44 711 c 128,-1,1
EndSplineSet
EndChar

StartChar: quotesinglbase
Encoding: 8218 8218 83
Width: 224
Flags: HMW
HStem: -9 108
VStem: 57 128
LayerCount: 2
Fore
SplineSet
174 99 m 1,0,1
 185 72 185 72 185 34 c 0,2,3
 185 -26 185 -26 152.5 -72 c 128,-1,4
 120 -118 120 -118 57 -142 c 1,5,6
 44 -136 44 -136 37.2894736842 -123.473684211 c 0,7,8
 30.5789473684 -110.947368421 30.5789473684 -110.947368421 30.5789473684 -103.947368421 c 0,9,10
 30.5789473684 -96.9473684211 30.5789473684 -96.9473684211 31 -94 c 1,11,12
 96 -62 96 -62 99 -9 c 1,13,14
 66 -4 66 -4 57 2 c 1,15,16
 48 18 48 18 48 52 c 0,17,18
 48 86 48 86 57 99 c 1,19,20
 79 111 79 111 117 111 c 0,21,22
 155 111 155 111 174 99 c 1,0,1
EndSplineSet
EndChar

StartChar: quotedbl
Encoding: 34 34 84
Width: 382
Flags: HMW
HStem: 505 243 505 255
VStem: 48 112<693.5 709.5> 223 112<693.5 709.5>
LayerCount: 2
Fore
SplineSet
223 711 m 128,-1,1
 223 726 223 726 229 748 c 1,2,3
 250 760 250 760 279.5 760 c 128,-1,4
 309 760 309 760 328 748 c 1,5,6
 335 722 335 722 335 708.5 c 128,-1,7
 335 695 335 695 330 668.5 c 0,8,9
 311.137931034 568.531034483 311.137931034 568.531034483 304 510 c 1,10,11
 296 505 296 505 279.5 505 c 128,-1,12
 263 505 263 505 253 510 c 1,13,14
 245 577.2 245 577.2 234 636.6 c 128,-1,0
 223 696 223 696 223 711 c 128,-1,1
48 711 m 128,-1,16
 48 726 48 726 54 748 c 1,17,18
 75 760 75 760 104.5 760 c 128,-1,19
 134 760 134 760 153 748 c 1,20,21
 160 722 160 722 160 708.5 c 128,-1,22
 160 695 160 695 155 668.5 c 0,23,24
 136.137931034 568.531034483 136.137931034 568.531034483 129 510 c 1,25,26
 121 505 121 505 104.5 505 c 128,-1,27
 88 505 88 505 78 510 c 1,28,29
 70 577.2 70 577.2 59 636.6 c 128,-1,15
 48 696 48 696 48 711 c 128,-1,16
EndSplineSet
EndChar

StartChar: quotedblbase
Encoding: 8222 8222 85
Width: 413
Flags: HMW
HStem: -9 108
VStem: 57 128 246 128
LayerCount: 2
Fore
SplineSet
174 99 m 1,0,1
 185 72 185 72 185 34 c 0,2,3
 185 -26 185 -26 152.5 -72 c 128,-1,4
 120 -118 120 -118 57 -142 c 1,5,6
 44 -136 44 -136 37.2894736842 -123.473684211 c 0,7,8
 30.5789473684 -110.947368421 30.5789473684 -110.947368421 30.5789473684 -103.947368421 c 0,9,10
 30.5789473684 -96.9473684211 30.5789473684 -96.9473684211 31 -94 c 1,11,12
 96 -62 96 -62 99 -9 c 1,13,14
 66 -4 66 -4 57 2 c 1,15,16
 48 18 48 18 48 52 c 0,17,18
 48 86 48 86 57 99 c 1,19,20
 79 111 79 111 117 111 c 0,21,22
 155 111 155 111 174 99 c 1,0,1
363 99 m 1,23,24
 374 72 374 72 374 34 c 0,25,26
 374 -26 374 -26 341.5 -72 c 128,-1,27
 309 -118 309 -118 246 -142 c 1,28,29
 233 -136 233 -136 226.289473684 -123.473684211 c 0,30,31
 219.578947368 -110.947368421 219.578947368 -110.947368421 219.578947368 -103.947368421 c 0,32,33
 219.578947368 -96.9473684211 219.578947368 -96.9473684211 220 -94 c 1,34,35
 285 -62 285 -62 288 -9 c 1,36,37
 255 -4 255 -4 246 2 c 1,38,39
 237 18 237 18 237 52 c 0,40,41
 237 86 237 86 246 99 c 1,42,43
 268 111 268 111 306 111 c 0,44,45
 344 111 344 111 363 99 c 1,23,24
EndSplineSet
EndChar

StartChar: guilsinglleft
Encoding: 8249 8249 86
Width: 329
Flags: HMW
HStem: 38 432<232 237>
VStem: 35 257
LayerCount: 2
Fore
SplineSet
287 419 m 1,0,-1
 146 257 l 1,1,-1
 292 90 l 1,2,3
 286 74 286 74 270 58.5 c 128,-1,4
 254 43 254 43 237 38 c 1,5,-1
 40 224 l 1,6,7
 35 236 35 236 35 255 c 128,-1,8
 35 274 35 274 40 286 c 1,9,-1
 232 470 l 1,10,11
 249 465 249 465 265 450 c 128,-1,12
 281 435 281 435 287 419 c 1,0,-1
EndSplineSet
EndChar

StartChar: guilsinglright
Encoding: 8250 8250 87
Width: 329
Flags: HMW
HStem: 38 432<92 97>
VStem: 37 258
LayerCount: 2
Fore
SplineSet
43 90 m 1,0,-1
 183 252 l 1,1,-1
 37 419 l 1,2,3
 43 435 43 435 59 450 c 128,-1,4
 75 465 75 465 92 470 c 1,5,-1
 290 285 l 1,6,7
 295.5 269 295.5 269 295.5 253.5 c 128,-1,8
 295.5 238 295.5 238 290 223 c 1,9,-1
 97 38 l 1,10,11
 80 43 80 43 64 58.5 c 128,-1,12
 48 74 48 74 43 90 c 1,0,-1
EndSplineSet
EndChar

StartChar: guillemotleft
Encoding: 171 171 88
Width: 551
Flags: HMW
HStem: 38 432<232 237 232 459>
VStem: 35 257 257 257
LayerCount: 2
Fore
SplineSet
509 419 m 1,0,-1
 368 257 l 1,1,-1
 514 90 l 1,2,3
 508 74 508 74 492 58.5 c 128,-1,4
 476 43 476 43 459 38 c 1,5,-1
 262 224 l 1,6,7
 257 236 257 236 257 255 c 128,-1,8
 257 274 257 274 262 286 c 1,9,-1
 454 470 l 1,10,11
 471 465 471 465 487 450 c 128,-1,12
 503 435 503 435 509 419 c 1,0,-1
287 419 m 1,13,-1
 146 257 l 1,14,-1
 292 90 l 1,15,16
 286 74 286 74 270 58.5 c 128,-1,17
 254 43 254 43 237 38 c 1,18,-1
 40 224 l 1,19,20
 35 236 35 236 35 255 c 128,-1,21
 35 274 35 274 40 286 c 1,22,-1
 232 470 l 1,23,24
 249 465 249 465 265 450 c 128,-1,25
 281 435 281 435 287 419 c 1,13,-1
EndSplineSet
EndChar

StartChar: guillemotright
Encoding: 187 187 89
Width: 551
Flags: HMW
HStem: 38 432<92 97 92 319>
VStem: 37 258 259 258
LayerCount: 2
Fore
SplineSet
43 90 m 1,0,-1
 183 252 l 1,1,-1
 37 419 l 1,2,3
 43 435 43 435 59 450 c 128,-1,4
 75 465 75 465 92 470 c 1,5,-1
 290 285 l 1,6,7
 295.5 269 295.5 269 295.5 253.5 c 128,-1,8
 295.5 238 295.5 238 290 223 c 1,9,-1
 97 38 l 1,10,11
 80 43 80 43 64 58.5 c 128,-1,12
 48 74 48 74 43 90 c 1,0,-1
265 90 m 1,13,-1
 405 252 l 1,14,-1
 259 419 l 1,15,16
 265 435 265 435 281 450 c 128,-1,17
 297 465 297 465 314 470 c 1,18,-1
 512 285 l 1,19,20
 517.5 269 517.5 269 517.5 253.5 c 128,-1,21
 517.5 238 517.5 238 512 223 c 1,22,-1
 319 38 l 1,23,24
 302 43 302 43 286 58.5 c 128,-1,25
 270 74 270 74 265 90 c 1,13,-1
EndSplineSet
EndChar

StartChar: onesuperior
Encoding: 185 185 90
Width: 420
Flags: HMW
HStem: 343 72<88 143 143 148.5 321 354 88 143>
VStem: 190 82<414 582 582 590>
LayerCount: 2
Fore
SplineSet
143 415 m 1,0,-1
 190 414 l 1,1,-1
 190 582 l 2,2,3
 190 591 190 591 191.5 615 c 128,-1,4
 193 639 193 639 193 645 c 1,5,6
 162 604 162 604 99 576 c 1,7,8
 69 590 69 590 63 629 c 1,9,10
 155 681 155 681 194 765 c 1,11,12
 211 769 211 769 231 769 c 128,-1,13
 251 769 251 769 272 765 c 1,14,-1
 272 414 l 1,15,-1
 321 415 l 1,16,-1
 354 415 l 1,17,18
 358 400 358 400 358 379.5 c 128,-1,19
 358 359 358 359 354 343 c 1,20,-1
 88 343 l 1,21,22
 84 369 84 369 84 381 c 128,-1,23
 84 393 84 393 88 415 c 1,24,-1
 143 415 l 1,0,-1
EndSplineSet
EndChar

StartChar: twosuperior
Encoding: 178 178 91
Width: 420
Flags: HMW
HStem: 341 75<228 304> 698 74<180 212.5>
VStem: 252 88<627.5 658>
LayerCount: 2
Fore
SplineSet
351 416 m 1,0,1
 351 390 351 390 350 380 c 0,2,3
 344 341 344 341 304 341 c 2,4,-1
 85 341 l 1,5,6
 57 375 57 375 57 392 c 0,7,8
 57 446 57 446 134 509 c 2,9,-1
 205 567 l 1,10,11
 252 604 252 604 252 642 c 0,12,13
 252 666 252 666 236.5 682 c 128,-1,14
 221 698 221 698 196 698 c 0,15,16
 151 698 151 698 126 640 c 1,17,18
 109 642 109 642 89.5 651 c 128,-1,19
 70 660 70 660 63 671 c 1,20,21
 77 714 77 714 114 743 c 128,-1,22
 151 772 151 772 207.5 772 c 0,23,24
 264 772 264 772 302 735.5 c 128,-1,25
 340 699 340 699 340 651 c 0,26,27
 340 603 340 603 320 571.5 c 128,-1,28
 300 540 300 540 258 508 c 2,29,-1
 202 464 l 2,30,31
 155 427 155 427 146 410 c 1,32,33
 191 416 191 416 228 416 c 2,34,-1
 351 416 l 1,0,1
EndSplineSet
EndChar

StartChar: threesuperior
Encoding: 179 179 92
Width: 420
Flags: HMW
HStem: 337 68<162.5 203.5 162.5 230> 549 54<186 228> 695 70<74 155 73 316>
VStem: 262 87<453 497.5>
LayerCount: 2
Fore
SplineSet
316 685 m 2,0,-1
 256 626 l 2,1,2
 245 615 245 615 226 603 c 1,3,-1
 228 603 l 2,4,5
 280 603 280 603 314.5 568 c 128,-1,6
 349 533 349 533 349 471.5 c 0,7,8
 349 410 349 410 302 373.5 c 128,-1,9
 255 337 255 337 181 337 c 0,10,11
 107 337 107 337 53 379 c 1,12,13
 59 415 59 415 86 438 c 1,14,15
 135 405 135 405 176 405 c 0,16,17
 217 405 217 405 239.5 423.5 c 128,-1,18
 262 442 262 442 262 475.5 c 0,19,20
 262 509 262 509 244 529 c 128,-1,21
 226 549 226 549 199 549 c 0,22,23
 172 549 172 549 150 539 c 1,24,25
 139 544 139 544 129.5 557 c 128,-1,26
 120 570 120 570 118 584 c 1,27,-1
 198 666 l 2,28,29
 218 686 218 686 236 697 c 1,30,-1
 233 700 l 1,31,32
 206 695 206 695 155 695 c 2,33,-1
 73 695 l 1,34,35
 68 712 68 712 68 732 c 0,36,37
 68 752 68 752 74 765 c 1,38,-1
 316 765 l 1,39,40
 332 735 332 735 332 717.5 c 0,41,42
 332 700 332 700 316 685 c 2,0,-1
EndSplineSet
EndChar

StartChar: onequarter
Encoding: 188 188 93
Width: 932
Flags: HMW
HStem: -20 20G<266 266 266 361> 81 71<654 654 654 708 587 654 853.5 858 858 885> 261 72<62 117 117 122.5 295 328 62 117>
VStem: 164 82<332 500 500 508> 266 472 747 80<3 82 3 82 152 212 212 230.5>
LayerCount: 2
Fore
SplineSet
117 333 m 1,0,-1
 164 332 l 1,1,-1
 164 500 l 2,2,3
 164 509 164 509 165.5 533 c 128,-1,4
 167 557 167 557 167 563 c 1,5,6
 136 522 136 522 73 494 c 1,7,8
 43 508 43 508 37 547 c 1,9,10
 129 599 129 599 168 683 c 1,11,12
 185 687 185 687 205 687 c 128,-1,13
 225 687 225 687 246 683 c 1,14,-1
 246 332 l 1,15,-1
 295 333 l 1,16,-1
 328 333 l 1,17,18
 332 318 332 318 332 297.5 c 128,-1,19
 332 277 332 277 328 261 c 1,20,-1
 62 261 l 1,21,22
 58 287 58 287 58 299 c 128,-1,23
 58 311 58 311 62 333 c 1,24,-1
 117 333 l 1,0,-1
266 0 m 1,25,-1
 642 683 l 1,26,27
 658.615384615 688.538461538 658.615384615 688.538461538 674.076923077 688.538461538 c 0,28,29
 722.492307692 688.538461538 722.492307692 688.538461538 738 683 c 1,30,-1
 361 0 l 1,31,32
 344.384615385 -5.53846153846 344.384615385 -5.53846153846 329.153846154 -5.53846153846 c 0,33,34
 281.507692308 -5.53846153846 281.507692308 -5.53846153846 266 0 c 1,25,-1
858 81 m 1,35,-1
 827 82 l 1,36,-1
 827 3 l 1,37,38
 813 -2 813 -2 787.5 -2 c 128,-1,39
 762 -2 762 -2 747 3 c 1,40,-1
 747 82 l 1,41,-1
 708 81 l 1,42,-1
 587 81 l 1,43,44
 569 111 569 111 569 130.5 c 128,-1,45
 569 150 569 150 584 176 c 1,46,-1
 701 428 l 1,47,48
 707.705882353 429.058823529 707.705882353 429.058823529 718 429.058823529 c 128,-1,49
 728.294117647 429.058823529 728.294117647 429.058823529 747.647058824 424.529411765 c 128,-1,50
 767 420 767 420 780 410 c 1,51,-1
 701 239 l 1,52,53
 669 173 669 173 654 152 c 1,54,-1
 655 150 l 1,55,56
 679 152 679 152 723 152 c 2,57,-1
 747 152 l 1,58,-1
 747 212 l 2,59,60
 747 240 747 240 761.5 255.5 c 128,-1,61
 776 271 776 271 801 271 c 2,62,-1
 825 271 l 1,63,-1
 827 268 l 1,64,-1
 827 152 l 1,65,-1
 889 152 l 1,66,67
 892 139 892 139 892 118.5 c 128,-1,68
 892 98 892 98 885 81 c 1,69,-1
 858 81 l 1,35,-1
EndSplineSet
EndChar

StartChar: onehalf
Encoding: 189 189 94
Width: 932
Flags: HMW
HStem: -20 20G<252 252 252 347 617 617 617 836> 0 75<760 836> 261 72<62 117 117 122.5 295 328 62 117> 357 74<712 744.5>
VStem: 164 82<332 500 500 508> 252 472 784 88<286.5 317>
LayerCount: 2
Fore
SplineSet
252 0 m 1,0,-1
 628 683 l 1,1,2
 644.615384615 688.538461538 644.615384615 688.538461538 660.076923077 688.538461538 c 0,3,4
 708.492307692 688.538461538 708.492307692 688.538461538 724 683 c 1,5,-1
 347 0 l 1,6,7
 330.384615385 -5.53846153846 330.384615385 -5.53846153846 315.153846154 -5.53846153846 c 0,8,9
 267.507692308 -5.53846153846 267.507692308 -5.53846153846 252 0 c 1,0,-1
117 333 m 1,10,-1
 164 332 l 1,11,-1
 164 500 l 2,12,13
 164 509 164 509 165.5 533 c 128,-1,14
 167 557 167 557 167 563 c 1,15,16
 136 522 136 522 73 494 c 1,17,18
 43 508 43 508 37 547 c 1,19,20
 129 599 129 599 168 683 c 1,21,22
 185 687 185 687 205 687 c 128,-1,23
 225 687 225 687 246 683 c 1,24,-1
 246 332 l 1,25,-1
 295 333 l 1,26,-1
 328 333 l 1,27,28
 332 318 332 318 332 297.5 c 128,-1,29
 332 277 332 277 328 261 c 1,30,-1
 62 261 l 1,31,32
 58 287 58 287 58 299 c 128,-1,33
 58 311 58 311 62 333 c 1,34,-1
 117 333 l 1,10,-1
883 75 m 1,35,36
 883 49 883 49 882 39 c 0,37,38
 876 0 876 0 836 0 c 2,39,-1
 617 0 l 1,40,41
 589 34 589 34 589 51 c 0,42,43
 589 105 589 105 666 168 c 2,44,-1
 737 226 l 1,45,46
 784 263 784 263 784 301 c 0,47,48
 784 325 784 325 768.5 341 c 128,-1,49
 753 357 753 357 728 357 c 0,50,51
 683 357 683 357 658 299 c 1,52,53
 641 301 641 301 621.5 310 c 128,-1,54
 602 319 602 319 595 330 c 1,55,56
 609 373 609 373 646 402 c 128,-1,57
 683 431 683 431 739.5 431 c 128,-1,58
 796 431 796 431 834 394.5 c 128,-1,59
 872 358 872 358 872 310 c 128,-1,60
 872 262 872 262 852 230.5 c 128,-1,61
 832 199 832 199 790 167 c 2,62,-1
 734 123 l 2,63,64
 687 86 687 86 678 69 c 1,65,66
 723 75 723 75 760 75 c 2,67,-1
 883 75 l 1,35,36
EndSplineSet
EndChar

StartChar: threequarters
Encoding: 190 190 95
Width: 932
Flags: HMW
HStem: -20 20G<253 253 253 348> 81 71<651 651 651 705 584 651 850.5 855 855 882> 257 68<161.5 202.5 161.5 229> 469 54<185 227> 615 70<73 154 72 315>
VStem: 253 472 261 87<373 417.5> 744 80<3 82 3 82 152 212 212 230.5>
LayerCount: 2
Fore
SplineSet
253 0 m 1,0,-1
 629 683 l 1,1,2
 645.615384615 688.538461538 645.615384615 688.538461538 661.076923077 688.538461538 c 0,3,4
 709.492307692 688.538461538 709.492307692 688.538461538 725 683 c 1,5,-1
 348 0 l 1,6,7
 331.384615385 -5.53846153846 331.384615385 -5.53846153846 316.153846154 -5.53846153846 c 0,8,9
 268.507692308 -5.53846153846 268.507692308 -5.53846153846 253 0 c 1,0,-1
315 605 m 2,10,-1
 255 546 l 2,11,12
 244 535 244 535 225 523 c 1,13,-1
 227 523 l 2,14,15
 279 523 279 523 313.5 488 c 128,-1,16
 348 453 348 453 348 391.5 c 128,-1,17
 348 330 348 330 301 293.5 c 128,-1,18
 254 257 254 257 180 257 c 128,-1,19
 106 257 106 257 52 299 c 1,20,21
 58 335 58 335 85 358 c 1,22,23
 134 325 134 325 175 325 c 128,-1,24
 216 325 216 325 238.5 343.5 c 128,-1,25
 261 362 261 362 261 395.5 c 128,-1,26
 261 429 261 429 243 449 c 128,-1,27
 225 469 225 469 198 469 c 128,-1,28
 171 469 171 469 149 459 c 1,29,30
 138 464 138 464 128.5 477 c 128,-1,31
 119 490 119 490 117 504 c 1,32,-1
 197 586 l 2,33,34
 217 606 217 606 235 617 c 1,35,-1
 232 620 l 1,36,37
 205 615 205 615 154 615 c 2,38,-1
 72 615 l 1,39,40
 67 632 67 632 67 652 c 128,-1,41
 67 672 67 672 73 685 c 1,42,-1
 315 685 l 1,43,44
 331 655 331 655 331 637.5 c 128,-1,45
 331 620 331 620 315 605 c 2,10,-1
855 81 m 1,46,-1
 824 82 l 1,47,-1
 824 3 l 1,48,49
 810 -2 810 -2 784.5 -2 c 128,-1,50
 759 -2 759 -2 744 3 c 1,51,-1
 744 82 l 1,52,-1
 705 81 l 1,53,-1
 584 81 l 1,54,55
 566 111 566 111 566 130.5 c 128,-1,56
 566 150 566 150 581 176 c 1,57,-1
 698 428 l 1,58,59
 704.705882353 429.058823529 704.705882353 429.058823529 715 429.058823529 c 128,-1,60
 725.294117647 429.058823529 725.294117647 429.058823529 744.647058824 424.529411765 c 128,-1,61
 764 420 764 420 777 410 c 1,62,-1
 698 239 l 1,63,64
 666 173 666 173 651 152 c 1,65,-1
 652 150 l 1,66,67
 676 152 676 152 720 152 c 2,68,-1
 744 152 l 1,69,-1
 744 212 l 2,70,71
 744 240 744 240 758.5 255.5 c 128,-1,72
 773 271 773 271 798 271 c 2,73,-1
 822 271 l 1,74,-1
 824 268 l 1,75,-1
 824 152 l 1,76,-1
 886 152 l 1,77,78
 889 139 889 139 889 118.5 c 128,-1,79
 889 98 889 98 882 81 c 1,80,-1
 855 81 l 1,46,-1
EndSplineSet
EndChar

StartChar: ordfeminine
Encoding: 170 170 96
Width: 420
Flags: HMW
HStem: 295 65<158.5 182.5> 479 58<172 202.5 147 205.5> 627 69<192 224.5>
VStem: 40 83<401 435.5 401 454.5> 267 83<406 411 411 475 475 475 533 562 562 565>
LayerCount: 2
Fore
SplineSet
374 341 m 1,0,1
 372 330 372 330 361 317.5 c 128,-1,2
 350 305 350 305 338 299 c 1,3,4
 295 306 295 306 277 345 c 1,5,6
 219 295 219 295 160.5 295 c 128,-1,7
 102 295 102 295 71 329 c 128,-1,8
 40 363 40 363 40 410 c 0,9,10
 40 474 40 474 81 505.5 c 128,-1,11
 122 537 122 537 191 537 c 0,12,13
 215 537 215 537 267 533 c 1,14,-1
 267 562 l 2,15,16
 267 627 267 627 207 627 c 0,17,18
 150 627 150 627 80 600 c 1,19,20
 57 622 57 622 55 660 c 1,21,22
 143 696 143 696 212 696 c 0,23,24
 350 696 350 696 350 565 c 2,25,-1
 350 411 l 2,26,27
 350 360 350 360 374 341 c 1,0,1
175 360 m 0,28,29
 223 360 223 360 267 406 c 1,30,-1
 267 475 l 1,31,32
 219 479 219 479 190 479 c 128,-1,33
 161 479 161 479 142 462 c 128,-1,34
 123 445 123 445 123 418.5 c 128,-1,35
 123 392 123 392 137 376 c 128,-1,36
 151 360 151 360 175 360 c 0,28,29
EndSplineSet
EndChar

StartChar: ordmasculine
Encoding: 186 186 97
Width: 407
Flags: HMW
HStem: 295 66<180.5 225.5> 630 66<180.5 225.5 180.5 235>
VStem: 35 85<465 526.5> 287 85<465 526.5 465 531.5>
LayerCount: 2
Fore
SplineSet
316 655 m 1,0,1
 372 596 372 596 372 494.5 c 128,-1,2
 372 393 372 393 316 336 c 1,3,4
 273 295 273 295 203.5 295 c 128,-1,5
 134 295 134 295 91 336 c 1,6,7
 35 393 35 393 35 494.5 c 128,-1,8
 35 596 35 596 91 655 c 1,9,10
 134 696 134 696 203.5 696 c 128,-1,11
 273 696 273 696 316 655 c 1,0,1
120 496 m 0,12,13
 120 361 120 361 204 361 c 0,14,15
 247 361 247 361 267 398.5 c 128,-1,16
 287 436 287 436 287 495.5 c 128,-1,17
 287 555 287 555 267 592.5 c 128,-1,18
 247 630 247 630 203.5 630 c 128,-1,19
 160 630 160 630 140 592.5 c 128,-1,20
 120 555 120 555 120 496 c 0,12,13
EndSplineSet
EndChar

StartChar: degree
Encoding: 176 176 98
Width: 324
Flags: HMW
HStem: 381 67<141 182.5 141 203> 604 67<141 182.5>
VStem: 18 75<503.5 548.5 503.5 567.5> 230 76<503.5 548.5>
LayerCount: 2
Fore
SplineSet
18 526 m 128,-1,1
 18 588 18 588 59 629.5 c 128,-1,2
 100 671 100 671 162 671 c 128,-1,3
 224 671 224 671 265 629.5 c 128,-1,4
 306 588 306 588 306 526 c 128,-1,5
 306 464 306 464 265 422.5 c 128,-1,6
 224 381 224 381 162 381 c 128,-1,7
 100 381 100 381 59 422.5 c 128,-1,0
 18 464 18 464 18 526 c 128,-1,1
93 526 m 128,-1,9
 93 492 93 492 112 470 c 128,-1,10
 131 448 131 448 161.5 448 c 0,11,12
 192 448 192 448 211 470 c 128,-1,13
 230 492 230 492 230 526 c 128,-1,14
 230 560 230 560 211 582 c 128,-1,15
 192 604 192 604 161.5 604 c 0,16,17
 131 604 131 604 112 582 c 128,-1,8
 93 560 93 560 93 526 c 128,-1,9
EndSplineSet
EndChar

StartChar: less
Encoding: 60 60 99
Width: 530
Flags: HMW
HStem: 50 484<425 425>
VStem: 54 100<289 295 289 331 289 331>
LayerCount: 2
Fore
SplineSet
54 331 m 1,0,-1
 425 534 l 1,1,2
 465 510 465 510 470 458 c 1,3,-1
 226 329 l 1,4,5
 186 309 186 309 154 295 c 1,6,-1
 154 289 l 1,7,8
 205 267 205 267 226 255 c 2,9,-1
 470 127 l 1,10,11
 465 76 465 76 425 50 c 1,12,-1
 54 253 l 1,13,14
 48.5 275.5 48.5 275.5 48.5 295 c 128,-1,15
 48.5 314.5 48.5 314.5 54 331 c 1,0,-1
EndSplineSet
EndChar

StartChar: greater
Encoding: 62 62 100
Width: 530
Flags: HMW
HStem: 51 484<105 105>
VStem: 376 105
LayerCount: 2
Fore
SplineSet
476 254 m 1,0,-1
 105 51 l 1,1,2
 65 75 65 75 60 127 c 1,3,-1
 304 256 l 1,4,5
 344 276 344 276 376 290 c 1,6,-1
 376 296 l 1,7,8
 325 318 325 318 304 330 c 2,9,-1
 60 458 l 1,10,11
 65 509 65 509 105 535 c 1,12,-1
 476 332 l 1,13,14
 481.5 310 481.5 310 481.5 290.5 c 128,-1,15
 481.5 271 481.5 271 476 254 c 1,0,-1
EndSplineSet
EndChar

StartChar: plus
Encoding: 43 43 101
Width: 530
Flags: HMW
HStem: 251 84<57 175 57 175 355 473>
VStem: 220 90<77 206 77 213 381 509>
LayerCount: 2
Fore
SplineSet
221 334 m 1,0,-1
 220 381 l 1,1,-1
 220 509 l 1,2,3
 241 512 241 512 265.5 512 c 128,-1,4
 290 512 290 512 310 509 c 1,5,-1
 310 381 l 1,6,7
 309 334 l 1,8,-1
 355 335 l 1,9,-1
 473 335 l 1,10,11
 477 316 477 316 477 291.5 c 128,-1,12
 477 267 477 267 473 251 c 1,13,-1
 355 251 l 1,14,-1
 309 252 l 1,15,-1
 310 206 l 1,16,-1
 310 77 l 1,17,18
 290 74 290 74 265.5 74 c 128,-1,19
 241 74 241 74 220 77 c 1,20,-1
 220 206 l 1,21,-1
 221 252 l 1,22,-1
 175 251 l 1,23,-1
 57 251 l 1,24,25
 53 267 53 267 53 292.5 c 128,-1,26
 53 318 53 318 57 335 c 1,27,-1
 175 335 l 1,28,-1
 221 334 l 1,0,-1
EndSplineSet
EndChar

StartChar: plusminus
Encoding: 177 177 102
Width: 530
Flags: HMW
HStem: 0 82<67 463 67 463> 302 81<67 176 67 176 354 463>
VStem: 221 89<148 256 148 262.5 429 536>
LayerCount: 2
Fore
SplineSet
222 382 m 1,0,-1
 221 429 l 1,1,-1
 221 536 l 1,2,3
 238 540 238 540 265.5 540 c 128,-1,4
 293 540 293 540 310 536 c 1,5,-1
 310 429 l 1,6,7
 309 382 l 1,8,-1
 354 383 l 1,9,-1
 463 383 l 1,10,11
 467 364 467 364 467 342.5 c 128,-1,12
 467 321 467 321 463 302 c 1,13,-1
 354 302 l 1,14,-1
 309 303 l 1,15,-1
 310 256 l 1,16,-1
 310 148 l 1,17,18
 293 144 293 144 265.5 144 c 128,-1,19
 238 144 238 144 221 148 c 1,20,-1
 221 256 l 1,21,-1
 222 303 l 1,22,-1
 176 302 l 1,23,-1
 67 302 l 1,24,25
 63 321 63 321 63 342.5 c 128,-1,26
 63 364 63 364 67 383 c 1,27,-1
 176 383 l 1,28,-1
 222 382 l 1,0,-1
463 0 m 1,29,-1
 67 0 l 1,30,31
 63 19 63 19 63 40.5 c 128,-1,32
 63 62 63 62 67 82 c 1,33,-1
 463 82 l 1,34,35
 467 62 467 62 467 40.5 c 128,-1,36
 467 19 467 19 463 0 c 1,29,-1
EndSplineSet
EndChar

StartChar: hyphen
Encoding: 45 45 103
Width: 347
Flags: HMW
HStem: 224 85<51 295 51 295>
VStem: 51 244<224 224 224 309>
LayerCount: 2
Fore
SplineSet
295 224 m 1,0,-1
 51 224 l 1,1,2
 47 241 47 241 47 265.5 c 0,3,4
 47 290 47 290 51 309 c 1,5,-1
 295 309 l 1,6,7
 300 292 300 292 300 266 c 128,-1,8
 300 240 300 240 295 224 c 1,0,-1
EndSplineSet
EndChar

StartChar: equal
Encoding: 61 61 104
Width: 530
Flags: HMW
HStem: 158 85<57 473 57 473> 346 85<57 473 57 473>
VStem: 53 424<193 207 381 395>
LayerCount: 2
Fore
SplineSet
473 158 m 1,0,-1
 57 158 l 1,1,2
 53 175 53 175 53 199.5 c 0,3,4
 53 224 53 224 57 243 c 1,5,-1
 473 243 l 1,6,7
 477 224 477 224 477 199.5 c 0,8,9
 477 175 477 175 473 158 c 1,0,-1
473 346 m 1,10,-1
 57 346 l 1,11,12
 53 363 53 363 53 387.5 c 0,13,14
 53 412 53 412 57 431 c 1,15,-1
 473 431 l 1,16,17
 477 412 477 412 477 387.5 c 0,18,19
 477 363 477 363 473 346 c 1,10,-1
EndSplineSet
EndChar

StartChar: multiply
Encoding: 215 215 105
Width: 530
Flags: HMW
HStem: 101 383<135 135>
VStem: 73 383<163 163 163 423>
LayerCount: 2
Fore
SplineSet
236 204 m 2,0,-1
 135 101 l 1,1,2
 118 109 118 109 101 125 c 128,-1,3
 84 141 84 141 73 163 c 1,4,-1
 176 264 l 2,5,6
 189 278 189 278 205 293 c 1,7,8
 189 307 189 307 176 322 c 1,9,-1
 73 423 l 1,10,11
 99.2673521851 471.493573265 99.2673521851 471.493573265 135 484 c 1,12,-1
 236 382 l 2,13,14
 246 373 246 373 265 352 c 1,15,-1
 293 382 l 1,16,-1
 395 484 l 1,17,18
 413 477 413 477 430 460 c 1,19,20
 447 445 447 445 456 423 c 1,21,-1
 325 293 l 1,22,-1
 456 163 l 1,23,24
 447 142 447 142 430.5 125.5 c 128,-1,25
 414 109 414 109 395 102 c 1,26,-1
 265 233 l 1,27,28
 250 217 250 217 236 204 c 2,0,-1
EndSplineSet
EndChar

StartChar: divide
Encoding: 247 247 106
Width: 530
Flags: HMW
HStem: 73 82<214 214 315 315> 251 85<57 473 57 473> 429 83<214 214 315 315>
VStem: 206 109
LayerCount: 2
Fore
SplineSet
214 429 m 1,0,1
 206 449 206 449 206 470.5 c 128,-1,2
 206 492 206 492 214 512 c 1,3,4
 233 523 233 523 266 523 c 128,-1,5
 299 523 299 523 315 512 c 1,6,7
 324 494 324 494 324 470.5 c 128,-1,8
 324 447 324 447 315 429 c 1,9,10
 301 418 301 418 266 418 c 128,-1,11
 231 418 231 418 214 429 c 1,0,1
206 114 m 128,-1,13
 206 135 206 135 214 155 c 1,14,15
 235 167 235 167 266.5 167 c 128,-1,16
 298 167 298 167 315 155 c 1,17,18
 324 137 324 137 324 114 c 128,-1,19
 324 91 324 91 315 73 c 1,20,21
 300 61 300 61 266.5 61 c 128,-1,22
 233 61 233 61 214 73 c 1,23,12
 206 93 206 93 206 114 c 128,-1,13
473 251 m 1,24,-1
 57 251 l 1,25,26
 53 268 53 268 53 292.5 c 128,-1,27
 53 317 53 317 57 336 c 1,28,-1
 473 336 l 1,29,30
 477 317 477 317 477 292.5 c 128,-1,31
 477 268 477 268 473 251 c 1,24,-1
EndSplineSet
EndChar

StartChar: logicalnot
Encoding: 172 172 107
Width: 530
Flags: HMW
HStem: 256 85<52 337 52 466>
VStem: 382 90<114 213 213 219>
LayerCount: 2
Fore
SplineSet
383 257 m 1,0,-1
 337 256 l 1,1,-1
 52 256 l 1,2,3
 48 273 48 273 48 297.5 c 128,-1,4
 48 322 48 322 52 341 c 1,5,-1
 466 341 l 1,6,-1
 472 335 l 1,7,-1
 472 114 l 1,8,9
 455 110 455 110 428.5 110 c 128,-1,10
 402 110 402 110 382 114 c 1,11,-1
 382 213 l 1,12,-1
 383 257 l 1,0,-1
EndSplineSet
EndChar

StartChar: mu
Encoding: 956 956 108
Width: 554
Flags: HMW
HStem: -218 21G<112.5 143> -10 85<241 284.5> 473 20G<80 80 175 175 375 375 472 472>
VStem: 80 95<173 493 173 493 173 493> 375 97<137 140 140 493>
LayerCount: 2
Fore
SplineSet
472 493 m 1,0,-1
 472 140 l 2,1,2
 472 66 472 66 500 42 c 1,3,4
 496 28 496 28 485 14 c 128,-1,5
 474 0 474 0 462 -7 c 1,6,7
 406 6 406 6 386 58 c 1,8,9
 335 -10 335 -10 257 -10 c 0,10,11
 207 -10 207 -10 171 20 c 1,12,-1
 171 -153 l 2,13,14
 171 -186 171 -186 161 -202 c 128,-1,15
 151 -218 151 -218 120 -218 c 0,16,17
 89 -218 89 -218 65 -199 c 1,18,19
 80 -170 80 -170 80 -109 c 2,20,-1
 80 493 l 1,21,22
 106 497 106 497 127.5 497 c 0,23,24
 149 497 149 497 175 493 c 1,25,-1
 175 173 l 1,26,27
 176 126 176 126 201.5 100.5 c 128,-1,28
 227 75 227 75 268 75 c 0,29,30
 329 75 329 75 375 137 c 1,31,-1
 375 493 l 1,32,33
 401 497 401 497 422.5 497 c 0,34,35
 444 497 444 497 472 493 c 1,0,-1
EndSplineSet
EndChar

StartChar: percent
Encoding: 37 37 109
Width: 897
Flags: HMW
HStem: -20 20G<212 212 212 308> -12 65<671 715> 288 65<182 226> 330 65<671 715 671 722.5> 630 65<182 226 182 234>
VStem: 48 84<461 522.5> 276 84<461 522.5 461 528> 537 84<161 222.5> 765 84<161 222.5 161 228>
LayerCount: 2
Fore
SplineSet
849 192 m 128,-1,1
 849 79 849 79 800 29 c 0,2,3
 760 -12 760 -12 693 -12 c 128,-1,4
 626 -12 626 -12 585 29 c 1,5,6
 537 80 537 80 537 192.5 c 128,-1,7
 537 305 537 305 585 353 c 1,8,9
 624 395 624 395 692.5 395 c 128,-1,10
 761 395 761 395 800 353 c 1,11,0
 849 305 849 305 849 192 c 128,-1,1
693 330 m 128,-1,13
 621 330 621 330 621 191.5 c 128,-1,14
 621 53 621 53 693 53 c 128,-1,15
 765 53 765 53 765 191.5 c 128,-1,12
 765 330 765 330 693 330 c 128,-1,13
360 492 m 128,-1,17
 360 379 360 379 311 330 c 0,18,19
 270 288 270 288 204 288 c 128,-1,20
 138 288 138 288 97 330 c 0,21,22
 48 379 48 379 48 491.5 c 128,-1,23
 48 604 48 604 97 654 c 0,24,25
 137 695 137 695 205 695 c 128,-1,26
 273 695 273 695 311 654 c 1,27,16
 360 605 360 605 360 492 c 128,-1,17
205 630 m 0,28,29
 132 630 132 630 132 491.5 c 128,-1,30
 132 353 132 353 205 353 c 0,31,32
 276 353 276 353 276 491.5 c 128,-1,33
 276 630 276 630 205 630 c 0,28,29
212 0 m 1,34,-1
 589 683 l 1,35,36
 605.615384615 688.538461538 605.615384615 688.538461538 620.846153846 688.538461538 c 0,37,38
 668.492307692 688.538461538 668.492307692 688.538461538 684 683 c 1,39,-1
 308 0 l 1,40,41
 291.384615385 -5.53846153846 291.384615385 -5.53846153846 275.923076923 -5.53846153846 c 0,42,43
 227.507692308 -5.53846153846 227.507692308 -5.53846153846 212 0 c 1,34,-1
EndSplineSet
EndChar

StartChar: numbersign
Encoding: 35 35 110
Width: 637
Flags: HMW
HStem: 6 7 157 82<30 133 30 152 240 348 30 221 455 562> 412 81<77 190 77 208 296 405 77 278 511 609> 637 7
VStem: 24 591
LayerCount: 2
Fore
SplineSet
423 493 m 1,0,-1
 455 637 l 1,1,2
 472 644 472 644 499.5 644 c 128,-1,3
 527 644 527 644 544 637 c 1,4,-1
 511 493 l 1,5,-1
 609 493 l 1,6,7
 615 476 615 476 615 452 c 128,-1,8
 615 428 615 428 609 412 c 1,9,-1
 493 412 l 1,10,-1
 455 239 l 1,11,-1
 562 239 l 1,12,13
 568 222 568 222 568 198 c 128,-1,14
 568 174 568 174 562 157 c 1,15,-1
 436 157 l 1,16,-1
 404 13 l 1,17,18
 388 6 388 6 359.5 6 c 128,-1,19
 331 6 331 6 316 13 c 1,20,-1
 348 157 l 1,21,-1
 221 157 l 1,22,-1
 189 13 l 1,23,24
 173 6 173 6 144.5 6 c 128,-1,25
 116 6 116 6 101 13 c 1,26,-1
 133 157 l 1,27,-1
 30 157 l 1,28,29
 24 174 24 174 24 198 c 128,-1,30
 24 222 24 222 30 239 c 1,31,-1
 152 239 l 1,32,-1
 190 412 l 1,33,-1
 77 412 l 1,34,35
 71 428 71 428 71 452 c 128,-1,36
 71 476 71 476 77 493 c 1,37,-1
 208 493 l 1,38,-1
 241 637 l 1,39,40
 258 644 258 644 285.5 644 c 128,-1,41
 313 644 313 644 329 637 c 1,42,-1
 296 493 l 1,43,-1
 423 493 l 1,0,-1
278 412 m 1,44,-1
 240 239 l 1,45,-1
 366 239 l 1,46,-1
 405 412 l 1,47,-1
 278 412 l 1,44,-1
EndSplineSet
EndChar

StartChar: asterisk
Encoding: 42 42 111
Width: 502
Flags: HMW
HStem: 731 7
VStem: 209 85<657 731>
LayerCount: 2
Fore
SplineSet
46 551 m 1,0,1
 45.619047619 554.047619048 45.619047619 554.047619048 45.619047619 562.952380952 c 0,2,3
 45.619047619 571.857142857 45.619047619 571.857142857 53.3095238095 594.928571429 c 0,4,5
 61 618 61 618 73 632 c 1,6,-1
 124 615 l 2,7,8
 159 603 159 603 226 562 c 1,9,10
 209 636 209 636 209 676 c 2,11,-1
 208 731 l 1,12,13
 224 738 224 738 251 738 c 128,-1,14
 278 738 278 738 294 731 c 1,15,-1
 294 676 l 1,16,17
 293 644 293 644 275 562 c 1,18,19
 331 598 331 598 378 615 c 1,20,-1
 430 631 l 1,21,22
 441 619 441 619 449.5 593.5 c 128,-1,23
 458 568 458 568 457 550 c 1,24,-1
 405 534 l 2,25,26
 371 523 371 523 290 516 c 1,27,28
 346 470 346 470 372 434 c 2,29,-1
 404 390 l 1,30,31
 396 375 396 375 374.5 359.5 c 128,-1,32
 353 344 353 344 335 340 c 1,33,-1
 304 384 l 1,34,35
 283 411 283 411 251 487 c 1,36,37
 222 416 222 416 198 384 c 1,38,-1
 167 340 l 1,39,40
 150 344 150 344 128.5 359.5 c 128,-1,41
 107 375 107 375 97 391 c 1,42,-1
 129 434 l 2,43,44
 155 468 155 468 211 516 c 1,45,46
 135 520 135 520 98 534 c 1,47,-1
 46 551 l 1,0,1
EndSplineSet
EndChar

StartChar: endash
Encoding: 8211 8211 112
Width: 528
Flags: HMW
HStem: 225 80<66 463 66 463>
VStem: 61 406<257.5 271>
LayerCount: 2
Fore
SplineSet
463 225 m 1,0,-1
 66 225 l 1,1,2
 61 240 61 240 61 264 c 128,-1,3
 61 288 61 288 66 305 c 1,4,-1
 463 305 l 1,5,6
 467 286 467 286 467 263.5 c 0,7,8
 467 241 467 241 463 225 c 1,0,-1
EndSplineSet
EndChar

StartChar: emdash
Encoding: 8212 8212 113
Width: 797
Flags: HMW
HStem: 225 80<80 717 80 717>
VStem: 76 645<257.5 271>
LayerCount: 2
Fore
SplineSet
717 225 m 1,0,-1
 80 225 l 1,1,2
 76 241 76 241 76 263.5 c 0,3,4
 76 286 76 286 80 305 c 1,5,-1
 717 305 l 1,6,7
 721 286 721 286 721 263.5 c 0,8,9
 721 241 721 241 717 225 c 1,0,-1
EndSplineSet
EndChar

StartChar: slash
Encoding: 47 47 114
Width: 419
Flags: HMW
HStem: -110 870<92 324>
VStem: 8 400
LayerCount: 2
Fore
SplineSet
8 -78 m 1,0,-1
 324 760 l 1,1,2
 373 756 373 756 408 729 c 1,3,-1
 92 -110 l 1,4,5
 44 -107 44 -107 8 -78 c 1,0,-1
EndSplineSet
EndChar

StartChar: backslash
Encoding: 92 92 115
Width: 419
Flags: HMW
HStem: -110 870<95 327>
VStem: 11 400
LayerCount: 2
Fore
SplineSet
327 -110 m 1,0,-1
 11 729 l 1,1,2
 48 758 48 758 95 760 c 1,3,-1
 411 -78 l 1,4,5
 376 -105 376 -105 327 -110 c 1,0,-1
EndSplineSet
EndChar

StartChar: bar
Encoding: 124 124 116
Width: 254
Flags: HMW
HStem: -145 924<120.5 134>
VStem: 81 91<-141 774 -141 774>
LayerCount: 2
Fore
SplineSet
81 -141 m 1,0,-1
 81 774 l 1,1,2
 98 779 98 779 126 779 c 0,3,4
 154 779 154 779 172 774 c 1,5,-1
 172 -141 l 1,6,7
 153 -145 153 -145 126.5 -145 c 0,8,9
 100 -145 100 -145 81 -141 c 1,0,-1
EndSplineSet
EndChar

StartChar: brokenbar
Encoding: 166 166 117
Width: 248
Flags: HMW
HStem: -145 924<117.5 131>
VStem: 79 90<-141 246 -141 246 387 774>
LayerCount: 2
Fore
SplineSet
79 -141 m 1,0,-1
 79 246 l 1,1,2
 95 251 95 251 123.5 251 c 0,3,4
 152 251 152 251 169 246 c 1,5,-1
 169 -141 l 1,6,7
 150 -145 150 -145 123 -145 c 0,8,9
 96 -145 96 -145 79 -141 c 1,0,-1
79 387 m 1,10,-1
 79 774 l 1,11,12
 95 779 95 779 123.5 779 c 0,13,14
 152 779 152 779 169 774 c 1,15,-1
 169 387 l 1,16,17
 150 383 150 383 123 383 c 0,18,19
 96 383 96 383 79 387 c 1,10,-1
EndSplineSet
EndChar

StartChar: paragraph
Encoding: 182 182 118
Width: 661
Flags: HMW
HStem: -155 77<176.5 207.5 176 228> 597 86<584.5 591 591 632>
VStem: 288 99<60 75 75 253 253 253> 453 99<-133 598 -133 677 -133 677>
LayerCount: 2
Fore
SplineSet
288 60 m 2,0,-1
 288 253 l 1,1,-1
 269 253 l 2,2,3
 168 253 168 253 106 309.5 c 128,-1,4
 44 366 44 366 44 472 c 128,-1,5
 44 578 44 578 106.5 633 c 128,-1,6
 169 688 169 688 272 688 c 0,7,8
 297 688 297 688 381 684 c 1,9,-1
 387 678 l 1,10,-1
 387 75 l 2,11,12
 387 11 387 11 378 -30.5 c 128,-1,13
 369 -72 369 -72 343 -102 c 0,14,15
 296 -155 296 -155 200 -155 c 0,16,17
 128 -155 128 -155 72 -131 c 1,18,19
 72 -89 72 -89 96 -56 c 1,20,21
 148 -78 148 -78 196 -78 c 0,22,23
 244 -78 244 -78 266 -49 c 0,24,25
 288 -20 288 -20 288 60 c 2,0,-1
453 -133 m 1,26,-1
 453 677 l 1,27,-1
 459 683 l 1,28,-1
 632 683 l 1,29,30
 637 668 637 668 637 640 c 128,-1,31
 637 612 637 612 632 597 c 1,32,-1
 591 597 l 2,33,34
 564 597 564 597 552 598 c 1,35,-1
 552 -133 l 1,36,37
 532 -137 532 -137 502 -137 c 128,-1,38
 472 -137 472 -137 453 -133 c 1,26,-1
EndSplineSet
EndChar

StartChar: braceleft
Encoding: 123 123 119
Width: 340
Flags: HMW
HStem: -167 984<313 313>
VStem: 38 102 124 98<3 4 4 172 476 478 478 646>
LayerCount: 2
Fore
SplineSet
313 817 m 1,0,1
 331.684210526 796.447368421 331.684210526 796.447368421 331.684210526 762.695290859 c 0,2,3
 331.684210526 755.315789474 331.684210526 755.315789474 330 749 c 1,4,-1
 282 734 l 2,5,6
 222 715 222 715 222 646 c 2,7,-1
 222 478 l 2,8,9
 222 430 222 430 199.5 388.5 c 128,-1,10
 177 347 177 347 140 329 c 1,11,-1
 140 321 l 1,12,13
 177 303 177 303 199.5 261.5 c 128,-1,14
 222 220 222 220 222 172 c 2,15,-1
 222 4 l 2,16,17
 222 -67 222 -67 282 -84 c 1,18,-1
 330 -100 l 1,19,20
 331.684210526 -105.894736842 331.684210526 -105.894736842 331.684210526 -114.368421053 c 128,-1,21
 331.684210526 -122.842105263 331.684210526 -122.842105263 327.342105263 -139.421052632 c 128,-1,22
 323 -156 323 -156 313 -167 c 1,23,-1
 264 -159 l 2,24,25
 200 -148 200 -148 162 -107 c 128,-1,26
 124 -66 124 -66 124 3 c 2,27,-1
 124 174 l 2,28,29
 124 218 124 218 101 249.5 c 128,-1,30
 78 281 78 281 42 293 c 1,31,32
 38 304 38 304 38 325 c 128,-1,33
 38 346 38 346 42 357 c 1,34,35
 78 369 78 369 101 400.5 c 128,-1,36
 124 432 124 432 124 476 c 2,37,-1
 124 647 l 2,38,39
 124 716 124 716 162 757 c 128,-1,40
 200 798 200 798 264 809 c 2,41,-1
 313 817 l 1,0,1
EndSplineSet
EndChar

StartChar: braceright
Encoding: 125 125 120
Width: 340
Flags: HMW
HStem: -167 984<27 27>
VStem: 118 98<4 172 172 174 478 646 646 647>
LayerCount: 2
Fore
SplineSet
27 -167 m 1,0,1
 8.31578947368 -146.447368421 8.31578947368 -146.447368421 8.31578947368 -113.030470914 c 0,2,3
 8.31578947368 -105.894736842 8.31578947368 -105.894736842 10 -100 c 1,4,-1
 58 -84 l 1,5,6
 118 -67 118 -67 118 4 c 2,7,-1
 118 172 l 2,8,9
 118 220 118 220 140.5 261.5 c 128,-1,10
 163 303 163 303 200 321 c 1,11,-1
 200 329 l 1,12,13
 163 347 163 347 140.5 388.5 c 128,-1,14
 118 430 118 430 118 478 c 2,15,-1
 118 646 l 2,16,17
 118 715 118 715 58 734 c 2,18,-1
 10 749 l 1,19,20
 8.31578947368 755.315789474 8.31578947368 755.315789474 8.31578947368 764.078947368 c 128,-1,21
 8.31578947368 772.842105263 8.31578947368 772.842105263 12.6578947368 789.421052632 c 128,-1,22
 17 806 17 806 27 817 c 1,23,-1
 77 809 l 2,24,25
 140 798 140 798 178 756.5 c 128,-1,26
 216 715 216 715 216 647 c 2,27,-1
 216 476 l 2,28,29
 216 432 216 432 239 400.5 c 128,-1,30
 262 369 262 369 298 357 c 1,31,32
 302 346 302 346 302 325 c 128,-1,33
 302 304 302 304 298 293 c 1,34,35
 262 281 262 281 239 249.5 c 128,-1,36
 216 218 216 218 216 174 c 2,37,-1
 216 3 l 2,38,39
 216 -65 216 -65 178 -106.5 c 128,-1,40
 140 -148 140 -148 77 -159 c 2,41,-1
 27 -167 l 1,0,1
EndSplineSet
EndChar

StartChar: parenleft
Encoding: 40 40 121
Width: 326
Flags: HMW
HStem: -178 1005<253 253>
VStem: 63 105<246.5 403 246.5 412.5>
LayerCount: 2
Fore
SplineSet
311 774 m 1,0,1
 168 590 168 590 168 324.5 c 128,-1,2
 168 59 168 59 311 -125 c 1,3,4
 293 -164 293 -164 253 -178 c 1,5,6
 164 -90 164 -90 113.5 49 c 128,-1,7
 63 188 63 188 63 325 c 128,-1,8
 63 462 63 462 113.5 601 c 128,-1,9
 164 740 164 740 253 827 c 1,10,11
 293 815 293 815 311 774 c 1,0,1
EndSplineSet
EndChar

StartChar: parenright
Encoding: 41 41 122
Width: 326
Flags: HMW
HStem: -178 1005<74 74>
VStem: 159 104<246.5 403>
LayerCount: 2
Fore
SplineSet
15 -125 m 1,0,1
 159 61 159 61 159 324.5 c 128,-1,2
 159 588 159 588 15 774 c 1,3,4
 33 815 33 815 74 827 c 1,5,6
 163 740 163 740 213 601 c 128,-1,7
 263 462 263 462 263 325 c 128,-1,8
 263 188 263 188 213 49 c 128,-1,9
 163 -90 163 -90 74 -178 c 1,10,11
 33 -164 33 -164 15 -125 c 1,0,1
EndSplineSet
EndChar

StartChar: bracketleft
Encoding: 91 91 123
Width: 337
Flags: HMW
HStem: -144 76 734 75
VStem: 99 98<-67 733 -67 807 -67 807>
LayerCount: 2
Fore
SplineSet
303 -140 m 1,0,-1
 106 -148 l 1,1,-1
 99 -141 l 1,2,-1
 99 807 l 1,3,-1
 106 814 l 1,4,-1
 303 806 l 1,5,6
 307 795 307 795 307 777.5 c 0,7,8
 307 760 307 760 299 736 c 1,9,-1
 197 733 l 1,10,-1
 197 -67 l 1,11,-1
 299 -69 l 1,12,13
 307 -96 307 -96 307 -112 c 0,14,15
 307 -128 307 -128 303 -140 c 1,0,-1
EndSplineSet
EndChar

StartChar: bracketright
Encoding: 93 93 124
Width: 337
Flags: HMW
HStem: -144 76 734 75
VStem: 141 97<-67 733 733 733>
LayerCount: 2
Fore
SplineSet
231 -148 m 1,0,-1
 34 -140 l 1,1,2
 31 -131 31 -131 31 -110 c 0,3,4
 31 -89 31 -89 39 -69 c 1,5,-1
 141 -67 l 1,6,-1
 141 733 l 1,7,-1
 39 736 l 1,8,9
 31 754 31 754 31 776 c 0,10,11
 31 798 31 798 34 806 c 1,12,-1
 231 814 l 1,13,-1
 238 807 l 1,14,-1
 238 -141 l 1,15,-1
 231 -148 l 1,0,-1
EndSplineSet
EndChar

StartChar: currency
Encoding: 164 164 125
Width: 573
Flags: HMW
HStem: 121 74<263 309> 475 74<263 309 263 324>
VStem: 69 98<311 357> 405 98<311 357 311 372>
LayerCount: 2
Fore
SplineSet
104 213 m 1,0,1
 69 267 69 267 69 335.5 c 128,-1,2
 69 404 69 404 104 456 c 1,3,-1
 33 533 l 1,4,5
 49 563 49 563 87 587 c 1,6,-1
 164 515 l 1,7,8
 219 549 219 549 286.5 549 c 128,-1,9
 354 549 354 549 407 515 c 1,10,-1
 486 588 l 1,11,12
 519 570 519 570 539 535 c 1,13,-1
 467 456 l 1,14,15
 503 403 503 403 503 334.5 c 128,-1,16
 503 266 503 266 467 213 c 1,17,-1
 539 135 l 1,18,19
 522 104 522 104 486 82 c 1,20,-1
 407 154 l 1,21,22
 354 121 354 121 286 121 c 128,-1,23
 218 121 218 121 165 154 c 1,24,-1
 87 82 l 1,25,26
 54 101 54 101 33 136 c 1,27,-1
 104 213 l 1,0,1
199.5 434 m 128,-1,29
 167 393 167 393 167 334.5 c 128,-1,30
 167 276 167 276 199.5 235.5 c 128,-1,31
 232 195 232 195 286.5 195 c 128,-1,32
 341 195 341 195 373 235 c 128,-1,33
 405 275 405 275 405 334.5 c 128,-1,34
 405 394 405 394 373 434.5 c 128,-1,35
 341 475 341 475 286.5 475 c 128,-1,28
 232 475 232 475 199.5 434 c 128,-1,29
EndSplineSet
EndChar

StartChar: dollar
Encoding: 36 36 126
Width: 498
Flags: HMW
HStem: -39 157<200 282.5 279 279> 526 162<204 272.5>
VStem: 57 100<440.5 479.5 440.5 490> 200 79<-39 38 -39 40 -39 40> 204 79<607 688 607 688 607 688> 356 102<165 206.5>
LayerCount: 2
Fore
SplineSet
34 99 m 1,0,1
 35 119 35 119 47 141.5 c 128,-1,2
 59 164 59 164 74 174 c 1,3,4
 173 118 173 118 255 118 c 0,5,6
 298 118 298 118 327 136.5 c 128,-1,7
 356 155 356 155 356 185 c 0,8,9
 356 215 356 215 335.5 237 c 128,-1,10
 315 259 315 259 280 271 c 2,11,-1
 179 307 l 1,12,13
 57 353 57 353 57 451 c 0,14,15
 57 510 57 510 96.5 552 c 128,-1,16
 136 594 136 594 204 605 c 1,17,-1
 204 688 l 1,18,19
 219 691 219 691 243.5 691 c 0,20,21
 268 691 268 691 283 688 c 1,22,-1
 283 607 l 1,23,24
 360 601 360 601 439 564 c 1,25,26
 439 517 439 517 404 487 c 1,27,28
 319 526 319 526 249 526 c 0,29,30
 207 526 207 526 182 508 c 128,-1,31
 157 490 157 490 157 461.5 c 0,32,33
 157 433 157 433 173.5 419 c 128,-1,34
 190 405 190 405 228 392 c 2,35,-1
 326 356 l 2,36,37
 385 335 385 335 421.5 294.5 c 128,-1,38
 458 254 458 254 458 192.5 c 0,39,40
 458 131 458 131 410 87.5 c 128,-1,41
 362 44 362 44 279 38 c 1,42,-1
 279 -39 l 1,43,44
 269 -41 269 -41 239.5 -41 c 0,45,46
 210 -41 210 -41 200 -39 c 1,47,-1
 200 40 l 1,48,49
 103 54 103 54 34 99 c 1,0,1
EndSplineSet
EndChar

StartChar: cent
Encoding: 162 162 127
Width: 469
Flags: HMW
HStem: -31 178<208 284 225 287> 510 171<211 285.5>
VStem: 44 102<266 385 262 403> 208 79<-31 69 -31 69> 340 89
LayerCount: 2
Fore
SplineSet
208 -31 m 1,0,-1
 208 69 l 1,1,2
 123 83 123 83 83.5 154.5 c 128,-1,3
 44 226 44 226 44 331 c 0,4,5
 44 436 44 436 91 501.5 c 128,-1,6
 138 567 138 567 211 582 c 1,7,-1
 211 681 l 1,8,9
 225 684 225 684 249.5 684 c 0,10,11
 274 684 274 684 290 681 c 1,12,-1
 290 583 l 1,13,14
 357 573 357 573 393 530 c 128,-1,15
 429 487 429 487 429 440 c 0,16,17
 429 382 429 382 378 382 c 0,18,19
 356 382 356 382 340 386 c 1,20,21
 340.367346939 392.244897959 340.367346939 392.244897959 340.367346939 398.272386506 c 0,22,23
 340.367346939 441.469387755 340.367346939 441.469387755 320.183673469 475.734693878 c 0,24,25
 300 510 300 510 248 510 c 0,26,27
 146 510 146 510 146 328.5 c 0,28,29
 146 147 146 147 261 147 c 0,30,31
 320 147 320 147 382 200 c 1,32,33
 414 179 414 179 426 145 c 1,34,35
 372 83 372 83 287 69 c 1,36,-1
 287 -31 l 1,37,38
 276 -33 276 -33 246.5 -33 c 0,39,40
 217 -33 217 -33 208 -31 c 1,0,-1
EndSplineSet
EndChar

StartChar: sterling
Encoding: 163 163 128
Width: 528
Flags: HMW
HStem: -1 84<297 423> 269 74<59 68.5 59 135 59 68.5 368.5 397> 578 83<251.5 302>
VStem: 77 98<457 510 454 524.5> 135 92<265 269 269 269>
LayerCount: 2
Fore
SplineSet
212 342 m 1,0,-1
 397 343 l 1,1,2
 402 325 402 325 402 306.5 c 128,-1,3
 402 288 402 288 397 269 c 1,4,5
 284 269 284 269 227 270 c 1,6,-1
 227 263 l 2,7,8
 227 176 227 176 159 81 c 1,9,-1
 162 78 l 1,10,11
 252 83 252 83 297 83 c 2,12,-1
 489 83 l 1,13,14
 489 60 489 60 487 47 c 0,15,16
 480 -1 480 -1 423 -1 c 2,17,-1
 69 -1 l 1,18,19
 56 47 56 47 56 67.5 c 128,-1,20
 56 88 56 88 69 106 c 2,21,-1
 86 131 l 2,22,23
 135 204 135 204 135 265 c 2,24,-1
 135 269 l 1,25,-1
 59 269 l 1,26,27
 53 286.5 53 286.5 53 305 c 128,-1,28
 53 323.5 53 323.5 59 343 c 1,29,30
 68 343 68 343 88 342.5 c 128,-1,31
 108 342 108 342 118 342 c 1,32,33
 115 351 115 351 105 374.5 c 128,-1,34
 95 398 95 398 90.5 411 c 0,35,36
 77 450 77 450 77 483 c 0,37,38
 77 553 77 553 128 607 c 128,-1,39
 179 661 179 661 274 661 c 0,40,41
 389 661 389 661 471 588 c 1,42,43
 469 568 469 568 454 548.5 c 128,-1,44
 439 529 439 529 420 523 c 1,45,46
 354 578 354 578 281 578 c 0,47,48
 235 578 235 578 205 551.5 c 128,-1,49
 175 525 175 525 175 478 c 0,50,51
 175 441.666666667 175 441.666666667 192 396.333333333 c 128,-1,52
 209 351 209 351 212 342 c 1,0,-1
EndSplineSet
EndChar

StartChar: Euro
Encoding: 8364 8364 129
Width: 566
Flags: HMW
HStem: -13 83<305.5 367.5 305.5 368> 215 67<27 98 27 105 27 98 205 415 205 205> 363 67<27 98 27 104 205 415> 578 83<305 367.5>
VStem: 98 100<282 282 282 363>
LayerCount: 2
Fore
SplineSet
496 519 m 1,0,1
 419 578 419 578 344 578 c 0,2,3
 231 578 231 578 205 430 c 1,4,-1
 415 430 l 1,5,6
 419 413 419 413 419 396 c 128,-1,7
 419 379 419 379 415 363 c 1,8,-1
 198 363 l 1,9,10
 197 350 197 350 197 322.5 c 0,11,12
 197 295 197 295 198 282 c 1,13,-1
 415 282 l 1,14,15
 419 265 419 265 419 248 c 128,-1,16
 419 231 419 231 415 215 c 1,17,-1
 205 215 l 1,18,19
 231 70 231 70 344 70 c 0,20,21
 419 70 419 70 496 129 c 1,22,23
 532 108 532 108 543 67 c 1,24,25
 446 -13 446 -13 332 -13 c 0,26,27
 140 -13 140 -13 105 215 c 1,28,-1
 27 215 l 1,29,30
 23 231 23 231 23 248 c 128,-1,31
 23 265 23 265 27 282 c 1,32,-1
 98 282 l 1,33,34
 97 296 97 296 97 323 c 0,35,36
 97 350 97 350 98 363 c 1,37,-1
 27 363 l 1,38,39
 23 379 23 379 23 396 c 128,-1,40
 23 413 23 413 27 430 c 1,41,-1
 104 430 l 1,42,43
 140 661 140 661 332 661 c 0,44,45
 446 661 446 661 543 581 c 1,46,47
 532 539 532 539 496 519 c 1,0,1
EndSplineSet
EndChar

StartChar: yen
Encoding: 165 165 130
Width: 512
Flags: HMW
HStem: 174 67<56 202 56 207 56 202 307 454> 322 68<56 136 56 166 56 136 374 454> 638 20G<79 102>
VStem: 207 96<0 174 0 174>
LayerCount: 2
Fore
SplineSet
454 174 m 1,0,-1
 303 174 l 1,1,-1
 303 0 l 1,2,3
 283 -4 283 -4 254.5 -4 c 0,4,5
 226 -4 226 -4 207 0 c 1,6,-1
 207 174 l 1,7,-1
 56 174 l 1,8,9
 51 194 51 194 51 206.5 c 0,10,11
 51 219 51 219 56 241 c 1,12,-1
 202 241 l 1,13,-1
 166 322 l 1,14,-1
 56 322 l 1,15,16
 51 344 51 344 51 356 c 0,17,18
 51 368 51 368 56 390 c 1,19,-1
 136 390 l 1,20,-1
 25 639 l 1,21,22
 62 658 62 658 91.5 658 c 0,23,24
 121 658 121 658 138 620 c 1,25,-1
 215 432 l 1,26,27
 232 395 232 395 256 319 c 1,28,-1
 262 319 l 1,29,30
 291 406 291 406 304 433 c 1,31,-1
 395 650 l 1,32,33
 416 656 416 656 437 656 c 0,34,35
 458 656 458 656 484 650 c 1,36,-1
 488 644 l 1,37,-1
 374 390 l 1,38,-1
 454 390 l 1,39,40
 458 373 458 373 458 356 c 0,41,42
 458 339 458 339 454 322 c 1,43,-1
 344 322 l 1,44,-1
 307 241 l 1,45,-1
 454 241 l 1,46,47
 458 224 458 224 458 207 c 128,-1,48
 458 190 458 190 454 174 c 1,0,-1
EndSplineSet
EndChar

StartChar: at
Encoding: 64 64 131
Width: 945
Flags: HMW
HStem: -187 76<360.5 485> 6 77<432 468.5> 10 74<688 728.5 688 751> 409 72<449.5 502.5> 604 72<386 585>
VStem: 52 97<116.5 333.5 116.5 355> 283 95<185.5 278 185.5 296> 566 92<146 156 130 378> 806 96<215 386>
LayerCount: 2
Fore
SplineSet
659 412 m 1,0,-1
 658 156 l 2,1,2
 658 84 658 84 702 84 c 0,3,4
 746 84 746 84 776 134.5 c 128,-1,5
 806 185 806 185 806 292 c 0,6,7
 806 433 806 433 719.5 518.5 c 128,-1,8
 633 604 633 604 485 604 c 0,9,10
 337 604 337 604 243 497 c 128,-1,11
 149 390 149 390 149 227.5 c 0,12,13
 149 65 149 65 231 -23 c 128,-1,14
 313 -111 313 -111 450 -111 c 0,15,16
 564 -111 564 -111 654 -74 c 1,17,18
 681 -99 681 -99 681 -143 c 1,19,20
 564 -187 564 -187 445 -187 c 0,21,22
 268 -187 268 -187 160 -79.5 c 128,-1,23
 52 28 52 28 52 224 c 0,24,25
 52 420 52 420 175 548 c 128,-1,26
 298 676 298 676 485.5 676 c 0,27,28
 673 676 673 676 787.5 570.5 c 128,-1,29
 902 465 902 465 902 289 c 0,30,31
 902 159 902 159 842 84.5 c 128,-1,32
 782 10 782 10 699 10 c 0,33,34
 616 10 616 10 582 73 c 1,35,36
 520 6 520 6 444 6 c 0,37,38
 368 6 368 6 325.5 65.5 c 128,-1,39
 283 125 283 125 283 230.5 c 0,40,41
 283 336 283 336 337 408.5 c 128,-1,42
 391 481 391 481 488.5 481 c 0,43,44
 586 481 586 481 659 412 c 1,0,-1
462 83 m 0,45,46
 488 83 488 83 517 101 c 128,-1,47
 546 119 546 119 566 146 c 1,48,-1
 566 378 l 1,49,50
 535 409 535 409 484.5 409 c 0,51,52
 434 409 434 409 406 358 c 128,-1,53
 378 307 378 307 378 229 c 0,54,55
 378 83 378 83 462 83 c 0,45,46
EndSplineSet
EndChar

StartChar: copyright
Encoding: 169 169 132
Width: 804
Flags: HMW
HStem: -19 70<321.5 482 321.5 503.5> 143 66<381.5 427.5> 477 64<374.5 431> 632 70<321.5 482>
VStem: 41 83<261 421 261 443> 228 86<298.5 385.5 298.5 410.5> 680 83<261 421>
LayerCount: 2
Fore
SplineSet
41 341 m 128,-1,1
 41 494 41 494 145 598 c 128,-1,2
 249 702 249 702 401.5 702 c 128,-1,3
 554 702 554 702 658.5 598 c 128,-1,4
 763 494 763 494 763 341 c 128,-1,5
 763 188 763 188 659 84.5 c 128,-1,6
 555 -19 555 -19 402 -19 c 128,-1,7
 249 -19 249 -19 145 84.5 c 128,-1,0
 41 188 41 188 41 341 c 128,-1,1
203.5 547.5 m 128,-1,9
 124 463 124 463 124 341.5 c 128,-1,10
 124 220 124 220 203.5 135.5 c 128,-1,11
 283 51 283 51 402 51 c 128,-1,12
 521 51 521 51 600.5 135.5 c 128,-1,13
 680 220 680 220 680 341 c 128,-1,14
 680 462 680 462 600.5 547 c 128,-1,15
 521 632 521 632 402 632 c 128,-1,8
 283 632 283 632 203.5 547.5 c 128,-1,9
476 382 m 1,16,17
 476.418604651 387.302325581 476.418604651 387.302325581 476.418604651 392.419686317 c 0,18,19
 476.418604651 423.976744186 476.418604651 423.976744186 459.209302326 450.488372093 c 128,-1,20
 442 477 442 477 401 477 c 128,-1,21
 360 477 360 477 337 442 c 128,-1,22
 314 407 314 407 314 342.5 c 128,-1,23
 314 278 314 278 340 243.5 c 128,-1,24
 366 209 366 209 414.5 209 c 128,-1,25
 463 209 463 209 513 250 c 1,26,27
 539 237 539 237 549 203 c 1,28,29
 523 177 523 177 481.5 160 c 128,-1,30
 440 143 440 143 400 143 c 0,31,32
 318 143 318 143 273 198 c 128,-1,33
 228 253 228 253 228 346 c 128,-1,34
 228 439 228 439 280.5 490 c 128,-1,35
 333 541 333 541 403.5 541 c 128,-1,36
 474 541 474 541 513.5 503.5 c 128,-1,37
 553 466 553 466 553 421.5 c 128,-1,38
 553 377 553 377 510 377 c 0,39,40
 491 377 491 377 476 382 c 1,16,17
EndSplineSet
EndChar

StartChar: registered
Encoding: 174 174 133
Width: 592
Flags: HMW
HStem: 222 60<240 351 240 368> 452 47<258 282 258 295> 567 45<258 334.5 287 298> 683 60<240 351>
VStem: 35 66<427 537.5 427 555> 199 59<360 452 360 499 499 567> 336 61<524 542> 490 66<427 537.5>
LayerCount: 2
Fore
SplineSet
35 482 m 128,-1,1
 35 591 35 591 110.5 667 c 128,-1,2
 186 743 186 743 295 743 c 128,-1,3
 404 743 404 743 480 667.5 c 128,-1,4
 556 592 556 592 556 482.5 c 128,-1,5
 556 373 556 373 480.5 297.5 c 128,-1,6
 405 222 405 222 295.5 222 c 128,-1,7
 186 222 186 222 110.5 297.5 c 128,-1,0
 35 373 35 373 35 482 c 128,-1,1
157 624.5 m 128,-1,9
 101 566 101 566 101 482.5 c 128,-1,10
 101 399 101 399 157 340.5 c 128,-1,11
 213 282 213 282 295.5 282 c 128,-1,12
 378 282 378 282 434 340.5 c 128,-1,13
 490 399 490 399 490 482.5 c 128,-1,14
 490 566 490 566 434 624.5 c 128,-1,15
 378 683 378 683 295.5 683 c 128,-1,8
 213 683 213 683 157 624.5 c 128,-1,9
397 537 m 0,16,17
 397 487 397 487 346 471 c 1,18,19
 362 465 362 465 379 432 c 2,20,-1
 393 405 l 2,21,22
 404 384 404 384 415 377 c 1,23,24
 400 355 400 355 376 355 c 128,-1,25
 352 355 352 355 338 386 c 1,26,-1
 313 433 l 2,27,28
 302 452 302 452 282 452 c 2,29,-1
 258 452 l 1,30,-1
 258 360 l 1,31,32
 243 355.5 243 355.5 228.25 355.5 c 128,-1,33
 213.5 355.5 213.5 355.5 199 360 c 1,34,-1
 199 607 l 1,35,-1
 202 610 l 1,36,37
 266 612 266 612 307.5 612 c 128,-1,38
 349 612 349 612 373 592 c 128,-1,39
 397 572 397 572 397 537 c 0,16,17
258 567 m 1,40,-1
 258 499 l 1,41,-1
 295 499 l 2,42,43
 336 499 336 499 336 533 c 0,44,45
 336 548 336 548 326 557.5 c 128,-1,46
 316 567 316 567 298 567 c 2,47,-1
 258 567 l 1,40,-1
EndSplineSet
EndChar

StartChar: asciicircum
Encoding: 94 94 134
Width: 530
Flags: HMW
HStem: 570 78<262 268 262 262> 570 82
VStem: 46 438<306 306>
LayerCount: 2
Fore
SplineSet
317 648 m 1,0,-1
 484 306 l 1,1,2
 468 301 468 301 437.5 301 c 128,-1,3
 407 301 407 301 388 306 c 1,4,-1
 302 489 l 2,5,6
 296 501 296 501 268 570 c 1,7,-1
 262 570 l 1,8,9
 234 501 234 501 228 489 c 2,10,-1
 142 306 l 1,11,12
 123 301 123 301 92.5 301 c 128,-1,13
 62 301 62 301 46 306 c 1,14,-1
 213 648 l 1,15,16
 231 652 231 652 264.5 652 c 128,-1,17
 298 652 298 652 317 648 c 1,0,-1
EndSplineSet
EndChar

StartChar: underscore
Encoding: 95 95 135
Width: 525
Flags: HMW
HStem: -152 76<0 526 0 526>
VStem: -4 534<-121 -108.5>
LayerCount: 2
Fore
SplineSet
526 -152 m 1,0,-1
 0 -152 l 1,1,2
 -4 -137 -4 -137 -4 -114.5 c 0,3,4
 -4 -92 -4 -92 0 -76 c 1,5,-1
 526 -76 l 1,6,7
 530 -100 530 -100 530 -115 c 128,-1,8
 530 -130 530 -130 526 -152 c 1,0,-1
EndSplineSet
EndChar

StartChar: section
Encoding: 167 167 136
Width: 484
Flags: HMW
HStem: -107 75<205.5 258.5 205.5 285> -15 20G 621 75<224 269.5> 641 20G
VStem: 32 97<276.5 317.5> 70 98<543.5 578 543.5 595> 317 98<11 45.5> 356 96<271 312.5>
LayerCount: 2
Fore
SplineSet
410 401 m 128,-1,1
 452 364 452 364 452 310.5 c 0,2,3
 452 212.958333333 452 212.958333333 345 155 c 1,4,5
 415 109 415 109 415 41 c 128,-1,6
 415 -27 415 -27 363.5 -67 c 128,-1,7
 312 -107 312 -107 222.5 -107 c 128,-1,8
 133 -107 133 -107 67 -65 c 1,9,10
 66 -47 66 -47 76 -26 c 128,-1,11
 86 -5 86 -5 99 5 c 1,12,13
 169 -32 169 -32 233 -32 c 0,14,15
 271 -32 271 -32 294 -15 c 128,-1,16
 317 2 317 2 317 30 c 0,17,18
 317 72 317 72 252 97 c 1,19,-1
 193 121 l 2,20,21
 117 151 117 151 74.5 188 c 128,-1,22
 32 225 32 225 32 286 c 0,23,24
 32 375 32 375 139 434 c 1,25,26
 70 479 70 479 70 547.5 c 128,-1,27
 70 616 70 616 120.5 656 c 128,-1,28
 171 696 171 696 248 696 c 128,-1,29
 325 696 325 696 401 661 c 1,30,31
 402 642 402 642 394 621.5 c 128,-1,32
 386 601 386 601 373 590 c 1,33,34
 303 621 303 621 257.5 621 c 128,-1,35
 212 621 212 621 190 604 c 128,-1,36
 168 587 168 587 168 559 c 0,37,38
 168 519 168 519 233 492 c 1,39,-1
 292 469 l 1,40,0
 368 438 368 438 410 401 c 128,-1,1
251 383 m 2,41,-1
 208 400 l 1,42,43
 129 361 129 361 129 300 c 0,44,45
 129 268 129 268 156.5 247 c 128,-1,46
 184 226 184 226 234 206 c 2,47,-1
 276 190 l 1,48,49
 356 227 356 227 356 289 c 0,50,51
 356 321 356 321 328 342.5 c 128,-1,52
 300 364 300 364 251 383 c 2,41,-1
EndSplineSet
EndChar

StartChar: acute
Encoding: 180 180 137
Width: 398
Flags: HMW
HStem: 537 198<169 268>
VStem: 126 212<577 670>
LayerCount: 2
Fore
SplineSet
126 577 m 1,0,-1
 268 735 l 1,1,2
 290 728 290 728 310 709.5 c 128,-1,3
 330 691 330 691 338 670 c 1,4,-1
 169 537 l 1,5,6
 137 548 137 548 126 577 c 1,0,-1
EndSplineSet
EndChar

StartChar: grave
Encoding: 96 96 138
Width: 398
Flags: HMW
HStem: 537 198<135 234>
VStem: 65 212<577 670>
LayerCount: 2
Fore
SplineSet
135 735 m 1,0,-1
 277 577 l 1,1,2
 266 548 266 548 234 537 c 1,3,-1
 65 670 l 1,4,5
 73 691 73 691 93 709.5 c 128,-1,6
 113 728 113 728 135 735 c 1,0,-1
EndSplineSet
EndChar

StartChar: tilde
Encoding: 732 732 139
Width: 398
Flags: HMW
HStem: 556 82<270 282.5 270 287.5> 608 82<115.5 128.5>
VStem: 24 350<598 647>
LayerCount: 2
Fore
SplineSet
211 571 m 2,0,-1
 155 599 l 2,1,2
 135 608 135 608 119 608 c 0,3,4
 103 608 103 608 83 583 c 1,5,-1
 72 568 l 1,6,7
 57 568 57 568 43 576.5 c 128,-1,8
 29 585 29 585 24 598 c 1,9,-1
 33 618 l 2,10,11
 47 651 47 651 73 670.5 c 128,-1,12
 99 690 99 690 127 690 c 0,13,14
 155 690 155 690 187 674 c 2,15,-1
 243 647 l 1,16,17
 259 638 259 638 277 638 c 0,18,19
 295 638 295 638 315 663 c 1,20,-1
 326 678 l 1,21,22
 341 677 341 677 355 668.5 c 128,-1,23
 369 660 369 660 374 647 c 1,24,-1
 365 628 l 2,25,26
 350 594 350 594 324 575 c 128,-1,27
 298 556 298 556 270.5 556 c 0,28,29
 243 556 243 556 211 571 c 2,0,-1
EndSplineSet
EndChar

StartChar: asciitilde
Encoding: 126 126 140
Width: 580
Flags: HMW
HStem: 213 92<394.5 415 394.5 421.5> 281 91<165 185.5>
VStem: 41 499<264 321>
LayerCount: 2
Fore
SplineSet
272 352 m 1,0,-1
 351 317 l 2,1,2
 378 305 378 305 407.5 305 c 0,3,4
 437 305 437 305 464 338 c 2,5,-1
 482 359 l 1,6,7
 499 357 499 357 516.5 347 c 128,-1,8
 534 337 534 337 540 321 c 1,9,-1
 527 299 l 1,10,11
 480 213 480 213 392 213 c 0,12,13
 353 213 353 213 308 234 c 2,14,-1
 229 269 l 2,15,16
 202 281 202 281 172.5 281 c 0,17,18
 143 281 143 281 116 248 c 2,19,-1
 98 227 l 1,20,21
 82 228 82 228 65 238.5 c 128,-1,22
 48 249 48 249 41 264 c 1,23,-1
 53 287 l 1,24,25
 99 372 99 372 188 372 c 0,26,27
 230 372 230 372 272 352 c 1,0,-1
EndSplineSet
EndChar

StartChar: dieresis
Encoding: 168 168 141
Width: 398
Flags: HMW
HStem: 573 76<60 60 153 153 245 245 338 338>
VStem: 53 100 237 101
LayerCount: 2
Fore
SplineSet
237 611 m 128,-1,1
 237 631 237 631 245 649 c 1,2,3
 262 660 262 660 291.5 660 c 0,4,5
 321 660 321 660 338 649 c 1,6,7
 345 630 345 630 345 610 c 0,8,9
 345 590 345 590 338 573 c 1,10,11
 319 561 319 561 290.5 561 c 0,12,13
 262 561 262 561 245 573 c 1,14,0
 237 591 237 591 237 611 c 128,-1,1
53 611 m 128,-1,16
 53 630 53 630 60 649 c 1,17,18
 77 660 77 660 106.5 660 c 0,19,20
 136 660 136 660 153 649 c 1,21,22
 161 631 161 631 161 610 c 0,23,24
 161 589 161 589 153 573 c 1,25,26
 136 561 136 561 107.5 561 c 0,27,28
 79 561 79 561 60 573 c 1,29,15
 53 592 53 592 53 611 c 128,-1,16
EndSplineSet
EndChar

StartChar: cedilla
Encoding: 184 184 142
Width: 398
Flags: HMW
HStem: -222 21G<177.5 226.5> -222 56<177.5 201 176 226.5> -86 49 -86 86<183 202>
VStem: 231 80<-136.5 -115>
LayerCount: 2
Fore
SplineSet
146 -74 m 1,0,1
 157 -33 157 -33 172 0 c 1,2,-1
 236 0 l 1,3,4
 219 -33 219 -33 218 -37 c 1,5,6
 259 -40 259 -40 285 -63.5 c 128,-1,7
 311 -87 311 -87 311 -127 c 0,8,9
 311 -167 311 -167 277.5 -194.5 c 128,-1,10
 244 -222 244 -222 194.5 -222 c 0,11,12
 145 -222 145 -222 115 -203 c 1,13,14
 116 -176 116 -176 135 -152 c 1,15,16
 158 -166 158 -166 183 -166 c 0,17,18
 208 -166 208 -166 219.5 -154.5 c 128,-1,19
 231 -143 231 -143 231 -125.5 c 0,20,21
 231 -108 231 -108 219.5 -97 c 128,-1,22
 208 -86 208 -86 192 -86 c 0,23,24
 176 -86 176 -86 164 -91 c 1,25,26
 151 -86 151 -86 146 -74 c 1,0,1
EndSplineSet
EndChar

StartChar: circumflex
Encoding: 710 710 143
Width: 398
Flags: HMW
HStem: 540 179
VStem: 55 287<581 589>
LayerCount: 2
Fore
SplineSet
294 546 m 1,0,-1
 200 637 l 1,1,-1
 100 540 l 1,2,3
 71 552 71 552 55 581 c 1,4,-1
 161 715 l 1,5,6
 177 720.5 177 720.5 197.75 720.5 c 128,-1,7
 218.5 720.5 218.5 720.5 244 715 c 1,8,-1
 342 589 l 1,9,10
 327 556 327 556 294 546 c 1,0,-1
EndSplineSet
EndChar

StartChar: macron
Encoding: 175 175 144
Width: 398
Flags: HMW
HStem: 576 79<60 338 60 338>
VStem: 60 278<576 576 576 655>
LayerCount: 2
Fore
SplineSet
338 576 m 1,0,-1
 60 576 l 1,1,2
 56 592 56 592 56 615 c 128,-1,3
 56 638 56 638 60 655 c 1,4,-1
 338 655 l 1,5,6
 342 638 342 638 342 615 c 128,-1,7
 342 592 342 592 338 576 c 1,0,-1
EndSplineSet
EndChar

StartChar: ae
Encoding: 230 230 145
Width: 785
Flags: HMW
HStem: -13 80<507 570.5> 216 71<432 640 432 728 432 640> 231 68<209.5 252 181 255.5> 424 79<231.5 277.5> 434 72<507 575>
VStem: 45 97<120 169.5 120 191.5> 335 97<216 333> 640 95<287 299 299 335.5>
LayerCount: 2
Fore
SplineSet
728 216 m 1,0,-1
 432 216 l 1,1,2
 435 145 435 145 462 106 c 128,-1,3
 489 67 489 67 552 67 c 128,-1,4
 615 67 615 67 690 107 c 1,5,6
 715 82 715 82 721 43 c 1,7,8
 641 -13 641 -13 531.5 -13 c 128,-1,9
 422 -13 422 -13 372 73 c 1,10,11
 296 -13 296 -13 192 -13 c 0,12,13
 122 -13 122 -13 83.5 31 c 128,-1,14
 45 75 45 75 45 135 c 0,15,16
 45 216 45 216 97 257.5 c 128,-1,17
 149 299 149 299 236 299 c 0,18,19
 282 299 282 299 335 291 c 1,20,-1
 335 333 l 2,21,22
 335 424 335 424 251 424 c 0,23,24
 186 424 186 424 92 385 c 1,25,26
 65 412 65 412 63 457 c 1,27,28
 168 503 168 503 262.5 503 c 128,-1,29
 357 503 357 503 397 440 c 1,30,31
 453 506 453 506 542 506 c 128,-1,32
 631 506 631 506 683 445.5 c 128,-1,33
 735 385 735 385 735 292 c 0,34,35
 735 254 735 254 728 216 c 1,0,-1
160.5 86.5 m 128,-1,37
 179 65 179 65 212.5 65 c 128,-1,38
 246 65 246 65 282.5 84 c 128,-1,39
 319 103 319 103 346 139 c 1,40,41
 337 177 337 177 334 224 c 1,42,43
 281 231 281 231 237.5 231 c 128,-1,44
 194 231 194 231 168 207.5 c 128,-1,45
 142 184 142 184 142 146 c 128,-1,36
 142 108 142 108 160.5 86.5 c 128,-1,37
538 434 m 0,46,47
 440 434 440 434 432 287 c 1,48,-1
 640 287 l 1,49,-1
 640 299 l 2,50,51
 640 359 640 359 615 396.5 c 128,-1,52
 590 434 590 434 538 434 c 0,46,47
EndSplineSet
EndChar

StartChar: aacute
Encoding: 225 225 147
Width: 506
Flags: HMW
HStem: -13 78<189 224.5> 231 68<209.5 250.5 181 255.5> 424 79<234 277.5> 537 198<214 313>
VStem: 45 97<119.5 169 119.5 190.5> 171 212<577 670> 335 95<130 131 131 226 226 226 292 333 333 336>
LayerCount: 2
Fore
SplineSet
458 43 m 1,0,1
 448 8 448 8 420 -7 c 1,2,3
 365 4 365 4 344 57 c 1,4,5
 272 -13 272 -13 197 -13 c 0,6,7
 122 -13 122 -13 83.5 31 c 128,-1,8
 45 75 45 75 45 134 c 0,9,10
 45 216 45 216 97.5 257.5 c 128,-1,11
 150 299 150 299 236 299 c 0,12,13
 287 299 287 299 335 292 c 1,14,-1
 335 333 l 2,15,16
 335 424 335 424 251 424 c 0,17,18
 186 424 186 424 92 385 c 1,19,20
 65 412 65 412 63 457 c 1,21,22
 168 503 168 503 268 503 c 0,23,24
 345 503 345 503 387.5 461 c 128,-1,25
 430 419 430 419 430 336 c 2,26,-1
 430 131 l 2,27,28
 430 67 430 67 458 43 c 1,0,1
212 65 m 0,29,30
 279 65 279 65 335 130 c 1,31,-1
 335 226 l 1,32,33
 296 231 296 231 245 231 c 0,34,35
 194 231 194 231 168 207 c 128,-1,36
 142 183 142 183 142 145 c 0,37,38
 142 107 142 107 160.5 86 c 128,-1,39
 179 65 179 65 212 65 c 0,29,30
171 577 m 1,40,-1
 313 735 l 1,41,42
 335 728 335 728 355 709.5 c 128,-1,43
 375 691 375 691 383 670 c 1,44,-1
 214 537 l 1,45,46
 182 548 182 548 171 577 c 1,40,-1
EndSplineSet
EndChar

StartChar: adieresis
Encoding: 228 228 149
Width: 506
Flags: HMW
HStem: -13 78<189 224.5> 231 68<209.5 250.5 181 255.5> 424 79<234 277.5> 573 76<105 105 198 198 290 290 383 383>
VStem: 45 97<119.5 169 119.5 190.5> 98 100 282 101 335 95<130 131 131 226 226 226 292 333 333 336>
LayerCount: 2
Fore
SplineSet
458 43 m 1,0,1
 448 8 448 8 420 -7 c 1,2,3
 365 4 365 4 344 57 c 1,4,5
 272 -13 272 -13 197 -13 c 0,6,7
 122 -13 122 -13 83.5 31 c 128,-1,8
 45 75 45 75 45 134 c 0,9,10
 45 216 45 216 97.5 257.5 c 128,-1,11
 150 299 150 299 236 299 c 0,12,13
 287 299 287 299 335 292 c 1,14,-1
 335 333 l 2,15,16
 335 424 335 424 251 424 c 0,17,18
 186 424 186 424 92 385 c 1,19,20
 65 412 65 412 63 457 c 1,21,22
 168 503 168 503 268 503 c 0,23,24
 345 503 345 503 387.5 461 c 128,-1,25
 430 419 430 419 430 336 c 2,26,-1
 430 131 l 2,27,28
 430 67 430 67 458 43 c 1,0,1
212 65 m 0,29,30
 279 65 279 65 335 130 c 1,31,-1
 335 226 l 1,32,33
 296 231 296 231 245 231 c 0,34,35
 194 231 194 231 168 207 c 128,-1,36
 142 183 142 183 142 145 c 0,37,38
 142 107 142 107 160.5 86 c 128,-1,39
 179 65 179 65 212 65 c 0,29,30
282 611 m 128,-1,41
 282 631 282 631 290 649 c 1,42,43
 307 660 307 660 336.5 660 c 0,44,45
 366 660 366 660 383 649 c 1,46,47
 390 630 390 630 390 610 c 0,48,49
 390 590 390 590 383 573 c 1,50,51
 364 561 364 561 335.5 561 c 0,52,53
 307 561 307 561 290 573 c 1,54,40
 282 591 282 591 282 611 c 128,-1,41
98 611 m 128,-1,56
 98 630 98 630 105 649 c 1,57,58
 122 660 122 660 151.5 660 c 0,59,60
 181 660 181 660 198 649 c 1,61,62
 206 631 206 631 206 610 c 0,63,64
 206 589 206 589 198 573 c 1,65,66
 181 561 181 561 152.5 561 c 0,67,68
 124 561 124 561 105 573 c 1,69,55
 98 592 98 592 98 611 c 128,-1,56
EndSplineSet
EndChar

StartChar: aring
Encoding: 229 229 151
Width: 506
Flags: HMW
HStem: -13 78<189 224.5> 231 68<209.5 250.5 181 255.5> 424 79<234 277.5> 538 57<229.5 258.5 229.5 279> 705 56<229.5 258.5>
VStem: 45 97<119.5 169 119.5 190.5> 126 68<634 665.5 634 680.5> 294 68<634 665.5> 335 95<130 131 131 226 226 226 292 333 333 336>
LayerCount: 2
Fore
SplineSet
458 43 m 1,0,1
 448 8 448 8 420 -7 c 1,2,3
 365 4 365 4 344 57 c 1,4,5
 272 -13 272 -13 197 -13 c 128,-1,6
 122 -13 122 -13 83.5 31 c 128,-1,7
 45 75 45 75 45 134 c 0,8,9
 45 216 45 216 97.5 257.5 c 128,-1,10
 150 299 150 299 236 299 c 0,11,12
 287 299 287 299 335 292 c 1,13,-1
 335 333 l 2,14,15
 335 424 335 424 251 424 c 0,16,17
 186 424 186 424 92 385 c 1,18,19
 65 412 65 412 63 457 c 1,20,21
 168 503 168 503 268 503 c 0,22,23
 345 503 345 503 387.5 461 c 128,-1,24
 430 419 430 419 430 336 c 2,25,-1
 430 131 l 2,26,27
 430 67 430 67 458 43 c 1,0,1
212 65 m 0,28,29
 279 65 279 65 335 130 c 1,30,-1
 335 226 l 1,31,32
 296 231 296 231 245 231 c 128,-1,33
 194 231 194 231 168 207 c 128,-1,34
 142 183 142 183 142 145 c 128,-1,35
 142 107 142 107 160.5 86 c 128,-1,36
 179 65 179 65 212 65 c 0,28,29
126 650 m 128,-1,38
 126 697 126 697 159 729 c 128,-1,39
 192 761 192 761 244 761 c 128,-1,40
 296 761 296 761 329 729 c 128,-1,41
 362 697 362 697 362 650 c 128,-1,42
 362 603 362 603 329 570.5 c 128,-1,43
 296 538 296 538 244 538 c 128,-1,44
 192 538 192 538 159 570.5 c 128,-1,37
 126 603 126 603 126 650 c 128,-1,38
208 689 m 128,-1,46
 194 673 194 673 194 649.5 c 128,-1,47
 194 626 194 626 208 610.5 c 128,-1,48
 222 595 222 595 244 595 c 128,-1,49
 266 595 266 595 280 610.5 c 128,-1,50
 294 626 294 626 294 649.5 c 128,-1,51
 294 673 294 673 280 689 c 128,-1,52
 266 705 266 705 244 705 c 128,-1,45
 222 705 222 705 208 689 c 128,-1,46
EndSplineSet
EndChar

StartChar: ccedilla
Encoding: 231 231 152
Width: 471
Flags: HMW
HStem: -222 21G<226.5 276> -222 56<226.5 251 226 276> -86 153<233 251.5> 431 75<218.5 288.5>
VStem: 46 100<182.5 305.5 182.5 335.5> 280 80<-136.5 -115> 343 90
LayerCount: 2
Fore
SplineSet
196 -74 m 1,0,1
 202 -48 202 -48 217 -11 c 1,2,3
 131 0 131 0 88.5 71 c 128,-1,4
 46 142 46 142 46 243 c 0,5,6
 46 373 46 373 106 439.5 c 128,-1,7
 166 506 166 506 252 506 c 0,8,9
 338 506 338 506 385.5 459.5 c 128,-1,10
 433 413 433 413 433 357.5 c 0,11,12
 433 302 433 302 383 302 c 0,13,14
 360 302 360 302 343 306 c 1,15,16
 343.16 311 343.16 311 343.16 315.8 c 0,17,18
 343.16 431 343.16 431 251 431 c 0,19,20
 201 431 201 431 173.5 383 c 128,-1,21
 146 335 146 335 146 243 c 0,22,23
 146 67 146 67 262 67 c 0,24,25
 315 67 315 67 385 119 c 1,26,27
 399 111 399 111 411 94 c 128,-1,28
 423 77 423 77 427 61 c 1,29,30
 365 -1 365 -1 279 -11 c 1,31,32
 270 -29 270 -29 268 -37 c 1,33,34
 309 -40 309 -40 334.5 -64 c 128,-1,35
 360 -88 360 -88 360 -128 c 0,36,37
 360 -168 360 -168 326.5 -195 c 128,-1,38
 293 -222 293 -222 244.5 -222 c 0,39,40
 196 -222 196 -222 164 -203 c 1,41,42
 165 -176 165 -176 184 -152 c 1,43,44
 207 -166 207 -166 232.5 -166 c 0,45,46
 258 -166 258 -166 269 -154.5 c 128,-1,47
 280 -143 280 -143 280 -126 c 128,-1,48
 280 -109 280 -109 269 -97.5 c 128,-1,49
 258 -86 258 -86 241.5 -86 c 0,50,51
 225 -86 225 -86 213 -91 c 1,52,53
 199 -86 199 -86 196 -74 c 1,0,1
EndSplineSet
EndChar

StartChar: eacute
Encoding: 233 233 154
Width: 501
Flags: HMW
HStem: -13 80<221 284.5> 216 71<146 356 146 443 146 356> 434 72<218.5 289.5> 537 198<226 325>
VStem: 46 100<216 216 216 287 216 320.5> 183 212<577 670> 356 94<287 300 300 336.5>
LayerCount: 2
Fore
SplineSet
443 216 m 1,0,-1
 146 216 l 1,1,2
 149 145 149 145 176 106 c 128,-1,3
 203 67 203 67 266 67 c 128,-1,4
 329 67 329 67 405 106 c 1,5,6
 430 82 430 82 436 43 c 1,7,8
 356 -13 356 -13 248.5 -13 c 128,-1,9
 141 -13 141 -13 93.5 59 c 128,-1,10
 46 131 46 131 46 246.5 c 128,-1,11
 46 362 46 362 99.5 434 c 128,-1,12
 153 506 153 506 249.5 506 c 128,-1,13
 346 506 346 506 398 445.5 c 128,-1,14
 450 385 450 385 450 292 c 0,15,16
 450 254 450 254 443 216 c 1,0,-1
330.5 396.5 m 128,-1,18
 305 434 305 434 254 434 c 128,-1,19
 203 434 203 434 176 395.5 c 128,-1,20
 149 357 149 357 146 287 c 1,21,-1
 356 287 l 1,22,-1
 356 300 l 2,23,17
 356 359 356 359 330.5 396.5 c 128,-1,18
183 577 m 1,24,-1
 325 735 l 1,25,26
 347 728 347 728 367 709.5 c 128,-1,27
 387 691 387 691 395 670 c 1,28,-1
 226 537 l 1,29,30
 194 548 194 548 183 577 c 1,24,-1
EndSplineSet
EndChar

StartChar: edieresis
Encoding: 235 235 156
Width: 501
Flags: HMW
HStem: -13 80<221 284.5> 216 71<146 356 146 443 146 356> 434 72<218.5 289.5> 573 76<116 116 209 209 301 301 394 394>
VStem: 46 100<216 216 216 287 216 320.5> 109 100 293 101 356 94<287 300 300 336.5>
LayerCount: 2
Fore
SplineSet
443 216 m 1,0,-1
 146 216 l 1,1,2
 149 145 149 145 176 106 c 128,-1,3
 203 67 203 67 266 67 c 128,-1,4
 329 67 329 67 405 106 c 1,5,6
 430 82 430 82 436 43 c 1,7,8
 356 -13 356 -13 248.5 -13 c 128,-1,9
 141 -13 141 -13 93.5 59 c 128,-1,10
 46 131 46 131 46 246.5 c 128,-1,11
 46 362 46 362 99.5 434 c 128,-1,12
 153 506 153 506 249.5 506 c 128,-1,13
 346 506 346 506 398 445.5 c 128,-1,14
 450 385 450 385 450 292 c 0,15,16
 450 254 450 254 443 216 c 1,0,-1
330.5 396.5 m 128,-1,18
 305 434 305 434 254 434 c 128,-1,19
 203 434 203 434 176 395.5 c 128,-1,20
 149 357 149 357 146 287 c 1,21,-1
 356 287 l 1,22,-1
 356 300 l 2,23,17
 356 359 356 359 330.5 396.5 c 128,-1,18
293 611 m 128,-1,25
 293 631 293 631 301 649 c 1,26,27
 318 660 318 660 347.5 660 c 128,-1,28
 377 660 377 660 394 649 c 1,29,30
 401 630 401 630 401 610 c 128,-1,31
 401 590 401 590 394 573 c 1,32,33
 375 561 375 561 346.5 561 c 128,-1,34
 318 561 318 561 301 573 c 1,35,24
 293 591 293 591 293 611 c 128,-1,25
109 611 m 128,-1,37
 109 630 109 630 116 649 c 1,38,39
 133 660 133 660 162.5 660 c 128,-1,40
 192 660 192 660 209 649 c 1,41,42
 217 631 217 631 217 610 c 128,-1,43
 217 589 217 589 209 573 c 1,44,45
 192 561 192 561 163.5 561 c 128,-1,46
 135 561 135 561 116 573 c 1,47,36
 109 592 109 592 109 611 c 128,-1,37
EndSplineSet
EndChar

StartChar: hbar
Encoding: 295 295 157
Width: 547
Flags: HMW
HStem: 414 87<309 335.5> 570 66<83 83>
VStem: 83 95<0 349 434 570 570 570 636 673> 375 96<86 103 103 314 314 339>
LayerCount: 2
Fore
SplineSet
178 673 m 2,0,-1
 178 635 l 1,1,-1
 339 637 l 1,2,3
 343 621 343 621 343 603 c 0,4,5
 343 585 343 585 339 569 c 1,6,-1
 178 571 l 1,7,-1
 178 434 l 1,8,9
 252 501 252 501 339 501 c 0,10,11
 406 501 406 501 438.5 456 c 128,-1,12
 471 411 471 411 471 339 c 2,13,-1
 471 103 l 2,14,15
 471 45 471 45 487 14 c 1,16,17
 461 -7 461 -7 426 -7 c 0,18,19
 375 -7 375 -7 375 55 c 2,20,-1
 375 314 l 2,21,22
 375 368 375 368 361 391 c 128,-1,23
 347 414 347 414 312.5 414 c 0,24,25
 278 414 278 414 241.5 396 c 128,-1,26
 205 378 205 378 178 349 c 1,27,-1
 178 0 l 1,28,29
 161 -4 161 -4 131.5 -4 c 0,30,31
 102 -4 102 -4 83 0 c 1,32,-1
 83 570 l 1,33,-1
 13 569 l 1,34,35
 9 585 9 585 9 603 c 0,36,37
 9 621 9 621 13 637 c 1,38,-1
 83 636 l 1,39,-1
 83 729 l 1,40,-1
 90 735 l 1,41,-1
 126 735 l 2,42,43
 156 735 156 735 167 720.5 c 128,-1,44
 178 706 178 706 178 673 c 2,0,-1
EndSplineSet
EndChar

StartChar: dotlessi
Encoding: 305 305 158
Width: 268
Flags: HMW
HStem: 422 74<39 112 39 112>
VStem: 93 96<0 371 371 389>
LayerCount: 2
Fore
SplineSet
189 411 m 2,0,-1
 189 0 l 1,1,2
 172 -4 172 -4 141 -4 c 128,-1,3
 110 -4 110 -4 93 0 c 1,4,-1
 93 371 l 2,5,6
 93 398 93 398 83.5 410 c 128,-1,7
 74 422 74 422 50 422 c 2,8,-1
 39 422 l 1,9,10
 35 437 35 437 35 456 c 128,-1,11
 35 475 35 475 39 492 c 1,12,13
 71 496 71 496 99 496 c 2,14,-1
 112 496 l 2,15,16
 148 496 148 496 168.5 473.5 c 128,-1,17
 189 451 189 451 189 411 c 2,0,-1
EndSplineSet
EndChar

StartChar: itilde
Encoding: 297 297 159
Width: 265
Flags: HMW
HStem: 422 74<37 110 37 110> 556 82<191 203.5 191 208.5>
VStem: -55 350<598 647> 91 96<0 371 371 389>
LayerCount: 2
Fore
SplineSet
187 411 m 2,0,-1
 187 0 l 1,1,2
 170 -4 170 -4 139 -4 c 128,-1,3
 108 -4 108 -4 91 0 c 1,4,-1
 91 371 l 2,5,6
 91 398 91 398 81.5 410 c 128,-1,7
 72 422 72 422 48 422 c 2,8,-1
 37 422 l 1,9,10
 33 437 33 437 33 456 c 128,-1,11
 33 475 33 475 37 492 c 1,12,13
 69 496 69 496 97 496 c 2,14,-1
 110 496 l 2,15,16
 146 496 146 496 166.5 473.5 c 128,-1,17
 187 451 187 451 187 411 c 2,0,-1
132 571 m 2,18,-1
 76 599 l 2,19,20
 56 608 56 608 40 608 c 0,21,22
 24 608 24 608 4 583 c 1,23,-1
 -7 568 l 1,24,25
 -22 568 -22 568 -36 576.5 c 128,-1,26
 -50 585 -50 585 -55 598 c 1,27,-1
 -46 618 l 2,28,29
 -32 651 -32 651 -6 670.5 c 128,-1,30
 20 690 20 690 48 690 c 0,31,32
 76 690 76 690 108 674 c 2,33,-1
 164 647 l 1,34,35
 180 638 180 638 198 638 c 0,36,37
 216 638 216 638 236 663 c 1,38,-1
 247 678 l 1,39,40
 262 677 262 677 276 668.5 c 128,-1,41
 290 660 290 660 295 647 c 1,42,-1
 286 628 l 2,43,44
 271 594 271 594 245 575 c 128,-1,45
 219 556 219 556 191.5 556 c 0,46,47
 164 556 164 556 132 571 c 2,18,-1
EndSplineSet
EndChar

StartChar: ij
Encoding: 307 307 160
Width: 540
Flags: HMW
HStem: -219 21G 422 74<39 112 39 112> 587 86<70 70 176 176 341 341 447 447>
VStem: 62 114 93 96<0 371 371 389> 333 114 365 96<-36 17 17 371 371 389>
LayerCount: 2
Fore
SplineSet
189 411 m 2,0,-1
 189 0 l 1,1,2
 172 -4 172 -4 141 -4 c 128,-1,3
 110 -4 110 -4 93 0 c 1,4,-1
 93 371 l 2,5,6
 93 398 93 398 83.5 410 c 128,-1,7
 74 422 74 422 50 422 c 2,8,-1
 39 422 l 1,9,10
 35 437 35 437 35 456 c 128,-1,11
 35 475 35 475 39 492 c 1,12,13
 71 496 71 496 99 496 c 2,14,-1
 112 496 l 2,15,16
 148 496 148 496 168.5 473.5 c 128,-1,17
 189 451 189 451 189 411 c 2,0,-1
62 630 m 128,-1,19
 62 655 62 655 70 673 c 1,20,21
 91 685 91 685 125 685 c 128,-1,22
 159 685 159 685 176 673 c 1,23,24
 184 655 184 655 184 630 c 128,-1,25
 184 605 184 605 176 587 c 1,26,27
 159 575 159 575 124 575 c 128,-1,28
 89 575 89 575 70 587 c 1,29,18
 62 605 62 605 62 630 c 128,-1,19
461 411 m 2,30,-1
 461 17 l 2,31,32
 461 -68.8 461 -68.8 452 -105.4 c 128,-1,33
 443 -142 443 -142 428.5 -159.5 c 0,34,35
 394.630697674 -200.376744186 394.630697674 -200.376744186 322 -219 c 1,36,37
 299 -198 299 -198 293 -159 c 1,38,39
 335 -138 335 -138 350 -112 c 128,-1,40
 365 -86 365 -86 365 -36 c 2,41,-1
 365 371 l 2,42,43
 365 399 365 399 355.5 410.5 c 128,-1,44
 346 422 346 422 322 422 c 2,45,-1
 302 422 l 1,46,47
 298 444 298 444 298 455 c 128,-1,48
 298 466 298 466 302 492 c 1,49,50
 338 496 338 496 373 496 c 2,51,-1
 385 496 l 2,52,53
 420 496 420 496 440.5 473.5 c 128,-1,54
 461 451 461 451 461 411 c 2,30,-1
333 630 m 128,-1,56
 333 655 333 655 341 673 c 1,57,58
 362 685 362 685 396 685 c 128,-1,59
 430 685 430 685 447 673 c 1,60,61
 455 655 455 655 455 630 c 128,-1,62
 455 605 455 605 447 587 c 1,63,64
 430 575 430 575 395 575 c 128,-1,65
 360 575 360 575 341 587 c 1,66,55
 333 605 333 605 333 630 c 128,-1,56
EndSplineSet
EndChar

StartChar: igrave
Encoding: 236 236 161
Width: 265
Flags: HMW
HStem: 422 74<37 110 37 110> 537 198<59 158>
VStem: -11 212<577 670> 91 96<0 371 371 389>
LayerCount: 2
Fore
SplineSet
187 411 m 2,0,-1
 187 0 l 1,1,2
 170 -4 170 -4 139 -4 c 128,-1,3
 108 -4 108 -4 91 0 c 1,4,-1
 91 371 l 2,5,6
 91 398 91 398 81.5 410 c 128,-1,7
 72 422 72 422 48 422 c 2,8,-1
 37 422 l 1,9,10
 33 437 33 437 33 456 c 128,-1,11
 33 475 33 475 37 492 c 1,12,13
 69 496 69 496 97 496 c 2,14,-1
 110 496 l 2,15,16
 146 496 146 496 166.5 473.5 c 128,-1,17
 187 451 187 451 187 411 c 2,0,-1
59 735 m 1,18,-1
 201 577 l 1,19,20
 190 548 190 548 158 537 c 1,21,-1
 -11 670 l 1,22,23
 -3 691 -3 691 17 709.5 c 128,-1,24
 37 728 37 728 59 735 c 1,18,-1
EndSplineSet
EndChar

StartChar: iacute
Encoding: 237 237 162
Width: 265
Flags: HMW
HStem: 422 74<37 110 37 110> 537 198<90 189>
VStem: 47 212<577 670> 91 96<0 371 371 389>
LayerCount: 2
Fore
SplineSet
187 411 m 2,0,-1
 187 0 l 1,1,2
 170 -4 170 -4 139 -4 c 128,-1,3
 108 -4 108 -4 91 0 c 1,4,-1
 91 371 l 2,5,6
 91 398 91 398 81.5 410 c 128,-1,7
 72 422 72 422 48 422 c 2,8,-1
 37 422 l 1,9,10
 33 437 33 437 33 456 c 128,-1,11
 33 475 33 475 37 492 c 1,12,13
 69 496 69 496 97 496 c 2,14,-1
 110 496 l 2,15,16
 146 496 146 496 166.5 473.5 c 128,-1,17
 187 451 187 451 187 411 c 2,0,-1
47 577 m 1,18,-1
 189 735 l 1,19,20
 211 728 211 728 231 709.5 c 128,-1,21
 251 691 251 691 259 670 c 1,22,-1
 90 537 l 1,23,24
 58 548 58 548 47 577 c 1,18,-1
EndSplineSet
EndChar

StartChar: icircumflex
Encoding: 238 238 163
Width: 265
Flags: HMW
HStem: 422 74<37 110 37 110> 540 179
VStem: -24 287<581 589> 91 96<0 371 371 389>
LayerCount: 2
Fore
SplineSet
187 411 m 2,0,-1
 187 0 l 1,1,2
 170 -4 170 -4 139 -4 c 128,-1,3
 108 -4 108 -4 91 0 c 1,4,-1
 91 371 l 2,5,6
 91 398 91 398 81.5 410 c 128,-1,7
 72 422 72 422 48 422 c 2,8,-1
 37 422 l 1,9,10
 33 437 33 437 33 456 c 128,-1,11
 33 475 33 475 37 492 c 1,12,13
 69 496 69 496 97 496 c 2,14,-1
 110 496 l 2,15,16
 146 496 146 496 166.5 473.5 c 128,-1,17
 187 451 187 451 187 411 c 2,0,-1
215 546 m 1,18,-1
 121 637 l 1,19,-1
 21 540 l 1,20,21
 -8 552 -8 552 -24 581 c 1,22,-1
 82 715 l 1,23,24
 98 720.5 98 720.5 118.75 720.5 c 128,-1,25
 139.5 720.5 139.5 720.5 165 715 c 1,26,-1
 263 589 l 1,27,28
 248 556 248 556 215 546 c 1,18,-1
EndSplineSet
EndChar

StartChar: idieresis
Encoding: 239 239 164
Width: 265
Flags: HMW
HStem: 422 74<37 110 37 110> 573 76<-19 -19 74 74 166 166 259 259>
VStem: -26 100 91 96<0 371 371 389> 158 101
LayerCount: 2
Fore
SplineSet
187 411 m 2,0,-1
 187 0 l 1,1,2
 170 -4 170 -4 139 -4 c 128,-1,3
 108 -4 108 -4 91 0 c 1,4,-1
 91 371 l 2,5,6
 91 398 91 398 81.5 410 c 128,-1,7
 72 422 72 422 48 422 c 2,8,-1
 37 422 l 1,9,10
 33 437 33 437 33 456 c 128,-1,11
 33 475 33 475 37 492 c 1,12,13
 69 496 69 496 97 496 c 2,14,-1
 110 496 l 2,15,16
 146 496 146 496 166.5 473.5 c 128,-1,17
 187 451 187 451 187 411 c 2,0,-1
158 611 m 128,-1,19
 158 631 158 631 166 649 c 1,20,21
 183 660 183 660 212.5 660 c 0,22,23
 242 660 242 660 259 649 c 1,24,25
 266 630 266 630 266 610 c 0,26,27
 266 590 266 590 259 573 c 1,28,29
 240 561 240 561 211.5 561 c 0,30,31
 183 561 183 561 166 573 c 1,32,18
 158 591 158 591 158 611 c 128,-1,19
-26 611 m 128,-1,34
 -26 630 -26 630 -19 649 c 1,35,36
 -2 660 -2 660 27.5 660 c 0,37,38
 57 660 57 660 74 649 c 1,39,40
 82 631 82 631 82 610 c 0,41,42
 82 589 82 589 74 573 c 1,43,44
 57 561 57 561 28.5 561 c 0,45,46
 0 561 0 561 -19 573 c 1,47,33
 -26 592 -26 592 -26 611 c 128,-1,34
EndSplineSet
EndChar

StartChar: jcircumflex
Encoding: 309 309 165
Width: 271
Flags: HMW
HStem: -219 21G 422 74<34 117 34 117> 540 179
VStem: -19 287<581 589> 97 96<-36 17 17 371 371 389>
LayerCount: 2
Fore
SplineSet
193 411 m 2,0,-1
 193 17 l 2,1,2
 193 -68.8 193 -68.8 184 -105.4 c 128,-1,3
 175 -142 175 -142 160.5 -159.5 c 0,4,5
 126.630697674 -200.376744186 126.630697674 -200.376744186 54 -219 c 1,6,7
 31 -198 31 -198 25 -159 c 1,8,9
 67 -138 67 -138 82 -112 c 128,-1,10
 97 -86 97 -86 97 -36 c 2,11,-1
 97 371 l 2,12,13
 97 399 97 399 87.5 410.5 c 128,-1,14
 78 422 78 422 54 422 c 2,15,-1
 34 422 l 1,16,17
 30 444 30 444 30 455 c 128,-1,18
 30 466 30 466 34 492 c 1,19,20
 70 496 70 496 105 496 c 2,21,-1
 117 496 l 2,22,23
 152 496 152 496 172.5 473.5 c 128,-1,24
 193 451 193 451 193 411 c 2,0,-1
220 546 m 1,25,-1
 126 637 l 1,26,-1
 26 540 l 1,27,28
 -3 552 -3 552 -19 581 c 1,29,-1
 87 715 l 1,30,31
 103 720.5 103 720.5 123.75 720.5 c 128,-1,32
 144.5 720.5 144.5 720.5 170 715 c 1,33,-1
 268 589 l 1,34,35
 253 556 253 556 220 546 c 1,25,-1
EndSplineSet
EndChar

StartChar: kcommaaccent
Encoding: 311 311 166
Width: 499
Flags: HMW
HStem: -260 21G -218 21G -70 16 217 80<215.5 216.5 211 247> 487 9
VStem: 80 95<0 214 0 295 295 673> 237 93<-142 -114>
LayerCount: 2
Fore
SplineSet
398 185 m 1,0,-1
 433 101 l 2,1,2
 457 41 457 41 481 23 c 1,3,4
 457 -7 457 -7 416 -7 c 0,5,6
 391 -7 391 -7 378.5 6 c 128,-1,7
 366 19 366 19 353 50 c 2,8,-1
 311 149 l 2,9,10
 294 189 294 189 276.5 203 c 128,-1,11
 259 217 259 217 229.75 217 c 128,-1,12
 200.5 217 200.5 217 175 214 c 1,13,-1
 175 0 l 1,14,15
 158 -4 158 -4 128.5 -4 c 128,-1,16
 99 -4 99 -4 80 0 c 1,17,-1
 80 729 l 1,18,-1
 87 735 l 1,19,-1
 123 735 l 2,20,21
 153 735 153 735 164 720.5 c 128,-1,22
 175 706 175 706 175 673 c 2,23,-1
 175 295 l 1,24,-1
 211 297 l 2,25,26
 224 297 224 297 235 312 c 1,27,-1
 327 454 l 1,28,29
 340 476 340 476 354 486 c 128,-1,30
 368 496 368 496 396.5 496 c 128,-1,31
 425 496 425 496 443 495 c 1,32,-1
 449 487 l 1,33,-1
 336 311 l 2,34,35
 323 290 323 290 305 275 c 1,36,37
 366 259 366 259 398 185 c 1,0,-1
224 -70 m 1,38,39
 250.388888889 -53.3333333333 250.388888889 -53.3333333333 278.694444444 -53.3333333333 c 128,-1,40
 307 -53.3333333333 307 -53.3333333333 321 -58 c 1,41,42
 330 -78 330 -78 330 -118 c 128,-1,43
 330 -158 330 -158 298 -197.5 c 128,-1,44
 266 -237 266 -237 210 -260 c 1,45,46
 185 -251 185 -251 178 -218 c 1,47,48
 237 -180 237 -180 237 -123 c 0,49,50
 237 -94 237 -94 224 -70 c 1,38,39
EndSplineSet
EndChar

StartChar: kgreenlandic
Encoding: 312 312 167
Width: 499
Flags: HMW
HStem: 217 80<215.5 216.5 211 247> 487 9
VStem: 80 95<0 214 0 295 295 435>
LayerCount: 2
Fore
SplineSet
398 185 m 1,0,-1
 433 101 l 2,1,2
 457 41 457 41 481 23 c 1,3,4
 457 -7 457 -7 416 -7 c 0,5,6
 391 -7 391 -7 378.5 6 c 128,-1,7
 366 19 366 19 353 50 c 2,8,-1
 311 149 l 2,9,10
 294 189 294 189 276.5 203 c 128,-1,11
 259 217 259 217 229.75 217 c 0,12,13
 200.5 217 200.5 217 175 214 c 1,14,-1
 175 0 l 1,15,16
 158 -4 158 -4 128.5 -4 c 0,17,18
 99 -4 99 -4 80 0 c 1,19,-1
 80 491 l 1,20,-1
 87 497 l 1,21,-1
 123 497 l 2,22,23
 153 497 153 497 164 482.5 c 128,-1,24
 175 468 175 468 175 435 c 2,25,-1
 175 295 l 1,26,-1
 211 297 l 2,27,28
 224 297 224 297 235 312 c 1,29,-1
 327 454 l 1,30,31
 340 476 340 476 354 486 c 128,-1,32
 368 496 368 496 396.5 496 c 0,33,34
 425 496 425 496 443 495 c 1,35,-1
 449 487 l 1,36,-1
 336 311 l 2,37,38
 323 290 323 290 305 275 c 1,39,40
 366 259 366 259 398 185 c 1,0,-1
EndSplineSet
EndChar

StartChar: ldot
Encoding: 320 320 168
Width: 343
Flags: HMW
HStem: -4 77<143.5 251> 307 92<247 247 347 347>
VStem: 79 94<102.5 117 117 673> 239 108
LayerCount: 2
Fore
SplineSet
212 73 m 2,0,-1
 251 73 l 1,1,2
 259 51 259 51 259 33 c 0,3,4
 259 15 259 15 257 3 c 1,5,6
 217 -4 217 -4 174 -4 c 0,7,8
 79 -4 79 -4 79 94 c 2,9,-1
 79 729 l 1,10,-1
 85 735 l 1,11,-1
 121 735 l 2,12,13
 151 735 151 735 162 721 c 128,-1,14
 173 707 173 707 173 673 c 2,15,-1
 173 117 l 2,16,17
 173 73 173 73 212 73 c 2,0,-1
239 353 m 128,-1,19
 239 381 239 381 247 399 c 1,20,21
 264 410 264 410 297.5 410 c 0,22,23
 331 410 331 410 347 399 c 1,24,25
 354 384 354 384 354 353 c 128,-1,26
 354 322 354 322 347 307 c 1,27,28
 332 295 332 295 299 295 c 0,29,30
 266 295 266 295 247 307 c 1,31,18
 239 325 239 325 239 353 c 128,-1,19
EndSplineSet
EndChar

StartChar: lslash
Encoding: 322 322 169
Width: 327
Flags: HMW
HStem: -4 77<171 278>
VStem: 107 94<102.5 117 117 311 311 311 442 673>
LayerCount: 2
Fore
SplineSet
240 73 m 2,0,-1
 278 73 l 1,1,2
 286 51 286 51 286 30 c 0,3,4
 286 9 286 9 284 3 c 1,5,6
 246 -4 246 -4 202 -4 c 0,7,8
 107 -4 107 -4 107 94 c 2,9,-1
 107 311 l 1,10,-1
 37 274 l 1,11,-1
 30 278 l 1,12,13
 23.95 295.6 23.95 295.6 23.95 314.075 c 0,14,15
 23.95 332.55 23.95 332.55 28 351 c 1,16,-1
 107 392 l 1,17,-1
 107 729 l 1,18,-1
 113 735 l 1,19,-1
 149 735 l 2,20,21
 179 735 179 735 190 720.5 c 128,-1,22
 201 706 201 706 201 673 c 2,23,-1
 201 442 l 1,24,-1
 281 484 l 1,25,-1
 288 481 l 1,26,27
 292.764705882 463.529411765 292.764705882 463.529411765 292.764705882 444.911764706 c 0,28,29
 292.764705882 426.294117647 292.764705882 426.294117647 289 407 c 1,30,-1
 201 360 l 1,31,-1
 201 117 l 2,32,33
 201 73 201 73 240 73 c 2,0,-1
EndSplineSet
EndChar

StartChar: ntilde
Encoding: 241 241 171
Width: 546
Flags: HMW
HStem: 414 88<308 334> 477 20G<87 123 123 142.5> 556 82<349 361.5 349 366.5>
VStem: 80 97<0 349 0 491> 103 350<598 647> 373 97<86 103 103 315 315 340>
LayerCount: 2
Fore
SplineSet
470 340 m 2,0,-1
 470 103 l 2,1,2
 470 43 470 43 485 14 c 1,3,4
 460 -7 460 -7 425 -7 c 0,5,6
 373 -7 373 -7 373 55 c 2,7,-1
 373 315 l 2,8,9
 373 369 373 369 359.5 391.5 c 128,-1,10
 346 414 346 414 311.5 414 c 0,11,12
 277 414 277 414 240.5 396 c 128,-1,13
 204 378 204 378 177 349 c 1,14,-1
 177 0 l 1,15,16
 160 -4 160 -4 129.5 -4 c 0,17,18
 99 -4 99 -4 80 0 c 1,19,-1
 80 491 l 1,20,-1
 87 497 l 1,21,-1
 123 497 l 2,22,23
 174 497 174 497 177 434 c 1,24,25
 252 502 252 502 338 502 c 0,26,27
 405 502 405 502 437.5 457 c 128,-1,28
 470 412 470 412 470 340 c 2,0,-1
290 571 m 2,29,-1
 234 599 l 2,30,31
 214 608 214 608 198 608 c 0,32,33
 182 608 182 608 162 583 c 1,34,-1
 151 568 l 1,35,36
 136 568 136 568 122 576.5 c 128,-1,37
 108 585 108 585 103 598 c 1,38,-1
 112 618 l 2,39,40
 126 651 126 651 152 670.5 c 128,-1,41
 178 690 178 690 206 690 c 0,42,43
 234 690 234 690 266 674 c 2,44,-1
 322 647 l 1,45,46
 338 638 338 638 356 638 c 0,47,48
 374 638 374 638 394 663 c 1,49,-1
 405 678 l 1,50,51
 420 677 420 677 434 668.5 c 128,-1,52
 448 660 448 660 453 647 c 1,53,-1
 444 628 l 2,54,55
 429 594 429 594 403 575 c 128,-1,56
 377 556 377 556 349.5 556 c 0,57,58
 322 556 322 556 290 571 c 2,29,-1
EndSplineSet
EndChar

StartChar: oe
Encoding: 339 339 172
Width: 832
Flags: HMW
HStem: -13 75<231 300.5> -13 80<554.5 617.5> 216 71<480 688 480 776 480 688> 434 72<553 623>
VStem: 46 100<205.5 287> 374 106<216 216 216 287 216 293> 688 94<287 299 299 336>
LayerCount: 2
Fore
SplineSet
776 216 m 1,0,-1
 480 216 l 1,1,2
 483 145 483 145 510 106 c 128,-1,3
 537 67 537 67 599.5 67 c 128,-1,4
 662 67 662 67 738 106 c 1,5,6
 763 83 763 83 769 44 c 1,7,8
 689 -13 689 -13 580 -13 c 128,-1,9
 471 -13 471 -13 424 72 c 1,10,11
 372 -13 372 -13 260 -13 c 0,12,13
 171 -13 171 -13 116 42 c 0,14,15
 46 112 46 112 46 246.5 c 128,-1,16
 46 381 46 381 116 451 c 0,17,18
 171 506 171 506 260 506 c 0,19,20
 373 506 373 506 426 417 c 1,21,22
 478 506 478 506 586 506 c 0,23,24
 679 506 679 506 730.5 445.5 c 128,-1,25
 782 385 782 385 782 292 c 0,26,27
 782 248 782 248 776 216 c 1,0,-1
155.5 337 m 128,-1,29
 146 298 146 298 146 246.5 c 128,-1,30
 146 195 146 195 155.5 156 c 128,-1,31
 165 117 165 117 191.5 89.5 c 128,-1,32
 218 62 218 62 260 62 c 128,-1,33
 302 62 302 62 328.5 89.5 c 128,-1,34
 355 117 355 117 364.5 156 c 128,-1,35
 374 195 374 195 374 246.5 c 128,-1,36
 374 298 374 298 364.5 337 c 128,-1,37
 355 376 355 376 328.5 404 c 128,-1,38
 302 432 302 432 260 432 c 128,-1,39
 218 432 218 432 191.5 404 c 128,-1,28
 165 376 165 376 155.5 337 c 128,-1,29
586 434 m 0,40,41
 488 434 488 434 480 287 c 1,42,-1
 688 287 l 1,43,-1
 688 299 l 2,44,45
 688 359 688 359 663 396.5 c 128,-1,46
 638 434 638 434 586 434 c 0,40,41
EndSplineSet
EndChar

StartChar: oacute
Encoding: 243 243 174
Width: 520
Flags: HMW
HStem: -13 75<231 289> 432 74<231 289 231 304.5> 537 198<230 329>
VStem: 46 100<205 287> 187 212<577 670> 374 100<205 287 205 293>
LayerCount: 2
Fore
SplineSet
404 451 m 0,0,1
 474 380 474 380 474 246.5 c 128,-1,2
 474 113 474 113 404 42 c 0,3,4
 349 -13 349 -13 260 -13 c 128,-1,5
 171 -13 171 -13 116 42 c 0,6,7
 46 113 46 113 46 246.5 c 128,-1,8
 46 380 46 380 116 451 c 0,9,10
 171 506 171 506 260 506 c 128,-1,11
 349 506 349 506 404 451 c 0,0,1
146 246 m 0,12,13
 146 62 146 62 260 62 c 128,-1,14
 374 62 374 62 374 246 c 0,15,16
 374 298 374 298 364.5 337 c 128,-1,17
 355 376 355 376 328.5 404 c 128,-1,18
 302 432 302 432 260 432 c 128,-1,19
 218 432 218 432 191.5 404 c 128,-1,20
 165 376 165 376 155.5 337 c 128,-1,21
 146 298 146 298 146 246 c 0,12,13
187 577 m 1,22,-1
 329 735 l 1,23,24
 351 728 351 728 371 709.5 c 128,-1,25
 391 691 391 691 399 670 c 1,26,-1
 230 537 l 1,27,28
 198 548 198 548 187 577 c 1,22,-1
EndSplineSet
EndChar

StartChar: otilde
Encoding: 245 245 176
Width: 520
Flags: HMW
HStem: -13 75<231 289> 432 74<231 289 231 304.5> 556 82<331 343.5 331 348.5>
VStem: 46 100<205 287> 85 350<598 647> 374 100<205 287 205 293>
LayerCount: 2
Fore
SplineSet
404 451 m 0,0,1
 474 380 474 380 474 246.5 c 128,-1,2
 474 113 474 113 404 42 c 0,3,4
 349 -13 349 -13 260 -13 c 128,-1,5
 171 -13 171 -13 116 42 c 0,6,7
 46 113 46 113 46 246.5 c 128,-1,8
 46 380 46 380 116 451 c 0,9,10
 171 506 171 506 260 506 c 128,-1,11
 349 506 349 506 404 451 c 0,0,1
146 246 m 0,12,13
 146 62 146 62 260 62 c 128,-1,14
 374 62 374 62 374 246 c 0,15,16
 374 298 374 298 364.5 337 c 128,-1,17
 355 376 355 376 328.5 404 c 128,-1,18
 302 432 302 432 260 432 c 128,-1,19
 218 432 218 432 191.5 404 c 128,-1,20
 165 376 165 376 155.5 337 c 128,-1,21
 146 298 146 298 146 246 c 0,12,13
272 571 m 2,22,-1
 216 599 l 2,23,24
 196 608 196 608 180 608 c 128,-1,25
 164 608 164 608 144 583 c 1,26,-1
 133 568 l 1,27,28
 118 568 118 568 104 576.5 c 128,-1,29
 90 585 90 585 85 598 c 1,30,-1
 94 618 l 2,31,32
 108 651 108 651 134 670.5 c 128,-1,33
 160 690 160 690 188 690 c 128,-1,34
 216 690 216 690 248 674 c 2,35,-1
 304 647 l 1,36,37
 320 638 320 638 338 638 c 128,-1,38
 356 638 356 638 376 663 c 1,39,-1
 387 678 l 1,40,41
 402 677 402 677 416 668.5 c 128,-1,42
 430 660 430 660 435 647 c 1,43,-1
 426 628 l 2,44,45
 411 594 411 594 385 575 c 128,-1,46
 359 556 359 556 331.5 556 c 128,-1,47
 304 556 304 556 272 571 c 2,22,-1
EndSplineSet
EndChar

StartChar: oslash
Encoding: 248 248 178
Width: 521
Flags: HMW
HStem: -13 72<250 289.5> 435 71<231 271.5> 529 20G<386 386>
VStem: 46 93<225.5 286> 382 93<207.5 268.5>
LayerCount: 2
Fore
SplineSet
405 449 m 1,0,1
 475 379 475 379 475 245.5 c 128,-1,2
 475 112 475 112 404 42 c 0,3,4
 349 -13 349 -13 260 -13 c 0,5,6
 206 -13 206 -13 167 6 c 1,7,-1
 132 -55 l 1,8,9
 117 -53 117 -53 100 -44 c 128,-1,10
 83 -35 83 -35 75 -23 c 1,11,-1
 114 45 l 1,12,13
 46 114 46 114 46 247.5 c 128,-1,14
 46 381 46 381 117 451 c 0,15,16
 172 506 172 506 260 506 c 0,17,18
 310 506 310 506 351 488 c 1,19,-1
 386 549 l 1,20,21
 422 544 422 544 444 517 c 1,22,-1
 405 449 l 1,0,1
360 368 m 1,23,-1
 205 73 l 1,24,25
 228 59 228 59 261.5 59 c 128,-1,26
 295 59 295 59 319.5 75 c 128,-1,27
 344 91 344 91 357 118.5 c 0,28,29
 382 171.384615385 382 171.384615385 382 246.192307692 c 128,-1,30
 382 321 382 321 360 368 c 1,23,-1
167.5 381.5 m 128,-1,32
 139 328 139 328 139 250 c 128,-1,33
 139 172 139 172 159 127 c 1,34,-1
 314 421 l 1,35,36
 291 435 291 435 261 435 c 0,37,31
 196 435 196 435 167.5 381.5 c 128,-1,32
EndSplineSet
EndChar

StartChar: rcommaaccent
Encoding: 343 343 180
Width: 365
Flags: HMW
HStem: -260 21G -218 21G -70 16 407 93<273.5 296>
VStem: 89 97<0 329 0 346 0 372> 107 93<-142 -114>
LayerCount: 2
Fore
SplineSet
53 448 m 1,0,1
 61 482 61 482 89 500 c 1,2,3
 155 484 155 484 176 411 c 1,4,5
 217 500 217 500 307 500 c 0,6,7
 331 500 331 500 359 494 c 1,8,9
 359 440 359 440 336 403 c 1,10,11
 330 404 330 404 296 407 c 1,12,13
 226 407 226 407 186 329 c 1,14,-1
 186 0 l 1,15,16
 169 -4 169 -4 137.5 -4 c 128,-1,17
 106 -4 106 -4 89 0 c 1,18,-1
 89 346 l 2,19,20
 89 414 89 414 53 448 c 1,0,1
94 -70 m 1,21,22
 120.388888889 -53.3333333333 120.388888889 -53.3333333333 148.694444444 -53.3333333333 c 128,-1,23
 177 -53.3333333333 177 -53.3333333333 191 -58 c 1,24,25
 200 -78 200 -78 200 -118 c 128,-1,26
 200 -158 200 -158 168 -197.5 c 128,-1,27
 136 -237 136 -237 80 -260 c 1,28,29
 55 -251 55 -251 48 -218 c 1,30,31
 107 -180 107 -180 107 -123 c 0,32,33
 107 -94 107 -94 94 -70 c 1,21,22
EndSplineSet
EndChar

StartChar: germandbls
Encoding: 223 223 181
Width: 623
Flags: HMW
HStem: -13 76<390 426.5 389.5 462.5> 394 78 624 75<280.5 361.5>
VStem: 106 98<0 395 395 395 471 497 0 507 0 569> 337 102<338 360 338 364.5> 486 103<106.5 138.5>
LayerCount: 2
Fore
SplineSet
106 0 m 1,0,-1
 106 395 l 1,1,-1
 20 393 l 1,2,3
 16 409 16 409 16 432.5 c 0,4,5
 16 456 16 456 20 473 c 1,6,-1
 106 471 l 1,7,-1
 106 507 l 2,8,9
 106 598 106 598 165 648.5 c 128,-1,10
 224 699 224 699 322 699 c 128,-1,11
 420 699 420 699 479 645 c 128,-1,12
 538 591 538 591 538 501 c 0,13,14
 538 464 538 464 523 423 c 1,15,-1
 521 423 l 1,16,-1
 523 422 l 1,17,18
 481 412 481 412 460 390.5 c 128,-1,19
 439 369 439 369 439 344.5 c 0,20,21
 439 320 439 320 478 288 c 1,22,-1
 515 255 l 2,23,24
 589 189 589 189 589 127 c 0,25,26
 589 65 589 65 539 26 c 128,-1,27
 489 -13 489 -13 414.5 -13 c 0,28,29
 340 -13 340 -13 282 16 c 1,30,31
 283 33 283 33 292.5 54 c 128,-1,32
 302 75 302 75 315 86 c 1,33,34
 358 63 358 63 398.5 63 c 0,35,36
 439 63 439 63 462.5 80 c 128,-1,37
 486 97 486 97 486 127.5 c 0,38,39
 486 158 486 158 444 195 c 2,40,-1
 404 230 l 2,41,42
 337 288 337 288 337 340 c 0,43,44
 337 377 337 377 364 409.5 c 128,-1,45
 391 442 391 442 436 459 c 1,46,47
 440 483 440 483 440 496 c 0,48,49
 440 551 440 551 409.5 587.5 c 128,-1,50
 379 624 379 624 320.5 624 c 0,51,52
 262 624 262 624 233 590.5 c 128,-1,53
 204 557 204 557 204 497 c 2,54,-1
 204 0 l 1,55,56
 185 -4 185 -4 155 -4 c 128,-1,57
 125 -4 125 -4 106 0 c 1,0,-1
EndSplineSet
EndChar

StartChar: uacute
Encoding: 250 250 183
Width: 547
Flags: HMW
HStem: -9 87<211.5 239> 473 20G<369 369 465 465> 479 20<109.5 140> 537 198<238 337>
VStem: 76 96<153 178 178 390 390 407> 195 212<577 670> 369 96<144 493>
LayerCount: 2
Fore
SplineSet
76 153 m 2,0,-1
 76 390 l 2,1,2
 76 448 76 448 60 479 c 1,3,4
 83 499 83 499 116 499 c 0,5,6
 149 499 149 499 160.5 484 c 128,-1,7
 172 469 172 469 172 437 c 2,8,-1
 172 178 l 2,9,10
 172 124 172 124 186 101 c 128,-1,11
 200 78 200 78 234.5 78 c 0,12,13
 269 78 269 78 305 96 c 128,-1,14
 341 114 341 114 369 144 c 1,15,-1
 369 493 l 1,16,17
 395 497 395 497 417 497 c 128,-1,18
 439 497 439 497 465 493 c 1,19,-1
 465 139 l 2,20,21
 465 67 465 67 493 42 c 1,22,23
 484 9 484 9 456 -7 c 1,24,25
 395 6 395 6 377 66 c 1,26,27
 302 -9 302 -9 207 -9 c 0,28,29
 141 -9 141 -9 108.5 36 c 128,-1,30
 76 81 76 81 76 153 c 2,0,-1
195 577 m 1,31,-1
 337 735 l 1,32,33
 359 728 359 728 379 709.5 c 128,-1,34
 399 691 399 691 407 670 c 1,35,-1
 238 537 l 1,36,37
 206 548 206 548 195 577 c 1,31,-1
EndSplineSet
EndChar

StartChar: udieresis
Encoding: 252 252 185
Width: 547
Flags: HMW
HStem: -9 87<211.5 239> 473 20G<369 369 465 465> 479 20<109.5 140> 573 76<129 129 222 222 314 314 407 407>
VStem: 76 96<153 178 178 390 390 407> 122 100 306 101 369 96<144 493>
LayerCount: 2
Fore
SplineSet
76 153 m 2,0,-1
 76 390 l 2,1,2
 76 448 76 448 60 479 c 1,3,4
 83 499 83 499 116 499 c 0,5,6
 149 499 149 499 160.5 484 c 128,-1,7
 172 469 172 469 172 437 c 2,8,-1
 172 178 l 2,9,10
 172 124 172 124 186 101 c 128,-1,11
 200 78 200 78 234.5 78 c 0,12,13
 269 78 269 78 305 96 c 128,-1,14
 341 114 341 114 369 144 c 1,15,-1
 369 493 l 1,16,17
 395 497 395 497 417 497 c 128,-1,18
 439 497 439 497 465 493 c 1,19,-1
 465 139 l 2,20,21
 465 67 465 67 493 42 c 1,22,23
 484 9 484 9 456 -7 c 1,24,25
 395 6 395 6 377 66 c 1,26,27
 302 -9 302 -9 207 -9 c 0,28,29
 141 -9 141 -9 108.5 36 c 128,-1,30
 76 81 76 81 76 153 c 2,0,-1
306 611 m 128,-1,32
 306 631 306 631 314 649 c 1,33,34
 331 660 331 660 360.5 660 c 0,35,36
 390 660 390 660 407 649 c 1,37,38
 414 630 414 630 414 610 c 0,39,40
 414 590 414 590 407 573 c 1,41,42
 388 561 388 561 359.5 561 c 0,43,44
 331 561 331 561 314 573 c 1,45,31
 306 591 306 591 306 611 c 128,-1,32
122 611 m 128,-1,47
 122 630 122 630 129 649 c 1,48,49
 146 660 146 660 175.5 660 c 0,50,51
 205 660 205 660 222 649 c 1,52,53
 230 631 230 631 230 610 c 0,54,55
 230 589 230 589 222 573 c 1,56,57
 205 561 205 561 176.5 561 c 0,58,59
 148 561 148 561 129 573 c 1,60,46
 122 592 122 592 122 611 c 128,-1,47
EndSplineSet
EndChar

StartChar: ydieresis
Encoding: 255 255 187
Width: 464
Flags: HMW
HStem: -218 73<86.5 133.5 86.5 163> 480 20G<68.5 87.5> 485 12 573 76<92 92 185 185 277 277 370 370>
VStem: 6 446 85 100 269 101
LayerCount: 2
Fore
SplineSet
452 485 m 1,0,-1
 318 16 l 2,1,2
 282 -109 282 -109 236 -163.5 c 128,-1,3
 190 -218 190 -218 98 -218 c 0,4,5
 49 -218 49 -218 6 -203 c 1,6,7
 5.66666666667 -198.555555556 5.66666666667 -198.555555556 5.66666666667 -194.234567901 c 0,8,9
 5.66666666667 -159.666666667 5.66666666667 -159.666666667 27 -133 c 1,10,11
 59 -145 59 -145 103.5 -145 c 0,12,13
 148 -145 148 -145 175 -113 c 128,-1,14
 202 -81 202 -81 222 -16 c 1,15,-1
 225 -5 l 1,16,17
 194 -3 194 -3 177 8 c 128,-1,18
 160 19 160 19 151 48 c 2,19,-1
 18 486 l 1,20,21
 49 500 49 500 76 500 c 0,22,23
 113 500 113 500 126 457 c 2,24,-1
 196 222 l 2,25,26
 202 203 202 203 235 73 c 0,27,28
 237 66 237 66 244 66 c 1,29,-1
 357 493 l 1,30,31
 373 497 373 497 400 497 c 0,32,33
 427 497 427 497 448 490 c 1,34,-1
 452 485 l 1,0,-1
269 611 m 128,-1,36
 269 631 269 631 277 649 c 1,37,38
 294 660 294 660 323.5 660 c 0,39,40
 353 660 353 660 370 649 c 1,41,42
 377 630 377 630 377 610 c 0,43,44
 377 590 377 590 370 573 c 1,45,46
 351 561 351 561 322.5 561 c 0,47,48
 294 561 294 561 277 573 c 1,49,35
 269 591 269 591 269 611 c 128,-1,36
85 611 m 128,-1,51
 85 630 85 630 92 649 c 1,52,53
 109 660 109 660 138.5 660 c 0,54,55
 168 660 168 660 185 649 c 1,56,57
 193 631 193 631 193 610 c 0,58,59
 193 589 193 589 185 573 c 1,60,61
 168 561 168 561 139.5 561 c 0,62,63
 111 561 111 561 92 573 c 1,64,50
 85 592 85 592 85 611 c 128,-1,51
EndSplineSet
EndChar

StartChar: eth
Encoding: 240 240 188
Width: 517
Flags: HMW
HStem: -13 74<229 287> 414 73<225 267.5 225 277>
VStem: 44 100<202.5 281.5> 373 99<205 273.5>
LayerCount: 2
Fore
SplineSet
115 572 m 1,0,-1
 203 632 l 1,1,2
 162 664 162 664 120 685 c 1,3,4
 128 730 128 730 159 747 c 1,5,6
 219 721 219 721 273 680 c 1,7,-1
 360 741 l 1,8,9
 371 733 371 733 382.5 717.5 c 128,-1,10
 394 702 394 702 396 689 c 1,11,-1
 322 638 l 1,12,13
 472 486 472 486 472 244 c 0,14,15
 472 113 472 113 402 42 c 0,16,17
 347 -13 347 -13 258 -13 c 128,-1,18
 169 -13 169 -13 114 42 c 0,19,20
 44 113 44 113 44 238 c 128,-1,21
 44 363 44 363 115 434 c 1,22,23
 170 487 170 487 254 487 c 0,24,25
 290 487 290 487 331 468 c 1,26,27
 309 529 309 529 251 589 c 1,28,-1
 151 520 l 1,29,30
 139 528 139 528 127.5 543.5 c 128,-1,31
 116 559 116 559 115 572 c 1,0,-1
363.5 154.5 m 128,-1,33
 373 193 373 193 373 257.5 c 128,-1,34
 373 322 373 322 356 383 c 1,35,36
 312 414 312 414 259 414 c 0,37,38
 144 414 144 414 144 240 c 0,39,40
 144 162 144 162 170.5 111.5 c 128,-1,41
 197 61 197 61 258 61 c 0,42,43
 300 61 300 61 327 88.5 c 128,-1,32
 354 116 354 116 363.5 154.5 c 128,-1,33
EndSplineSet
EndChar

StartChar: thorn
Encoding: 254 254 189
Width: 527
Flags: HMW
HStem: -215 21G<87 122 87 87> -209 21G<80 80> -9 79<271.5 306.5 260 337.5> 420 81<283 314>
VStem: 80 94<-174.5 -153 -153 26 108 353 443 673> 383 99<188.5 311.5>
LayerCount: 2
Fore
SplineSet
437 433.5 m 128,-1,1
 482 366 482 366 482 246 c 128,-1,2
 482 126 482 126 425 58.5 c 128,-1,3
 368 -9 368 -9 293 -9 c 0,4,5
 234 -9 234 -9 174 26 c 1,6,-1
 174 -153 l 2,7,8
 174 -186 174 -186 163 -200.5 c 128,-1,9
 152 -215 152 -215 122 -215 c 2,10,-1
 87 -215 l 1,11,-1
 80 -209 l 1,12,-1
 80 729 l 1,13,-1
 87 735 l 1,14,-1
 122 735 l 2,15,16
 152 735 152 735 163 720.5 c 128,-1,17
 174 706 174 706 174 673 c 2,18,-1
 174 443 l 1,19,20
 230 501 230 501 311 501 c 128,-1,0
 392 501 392 501 437 433.5 c 128,-1,1
289 420 m 0,21,22
 220 420 220 420 174 353 c 1,23,-1
 174 108 l 1,24,25
 232 70 232 70 278 70 c 128,-1,26
 324 70 324 70 353.5 116 c 128,-1,27
 383 162 383 162 383 249 c 128,-1,28
 383 336 383 336 356.5 378 c 128,-1,29
 330 420 330 420 289 420 c 0,21,22
EndSplineSet
EndChar

StartChar: AE
Encoding: 198 198 190
Width: 875
Flags: HMW
HStem: -1 86<563 760> 168 83<252 346 282 345> 303 84<553.5 753 561 753> 598 85<553 561 561 803>
VStem: 402 97<122.5 131 131 169 169 169 250 304 386 534>
LayerCount: 2
Fore
SplineSet
402 169 m 1,0,-1
 345 168 l 1,1,-1
 256 168 l 1,2,-1
 201 169 l 1,3,-1
 118 -1 l 1,4,5
 99 -5 99 -5 71 -5 c 128,-1,6
 43 -5 43 -5 20 2 c 1,7,-1
 16 7 l 1,8,-1
 349 673 l 1,9,10
 368 683 368 683 408 683 c 2,11,-1
 807 683 l 1,12,13
 810 668 810 668 810 643.5 c 128,-1,14
 810 619 810 619 803 598 c 1,15,-1
 561 598 l 2,16,17
 521 598 521 598 498 599 c 1,18,-1
 499 534 l 1,19,-1
 499 386 l 1,20,-1
 561 387 l 1,21,-1
 753 387 l 1,22,23
 758 369 758 369 758 344.5 c 128,-1,24
 758 320 758 320 753 303 c 1,25,-1
 561 303 l 2,26,27
 522 303 522 303 499 304 c 1,28,-1
 499 131 l 2,29,30
 499 123 499 123 498.5 107 c 128,-1,31
 498 91 498 91 498 82 c 1,32,33
 526 85 526 85 563 85 c 2,34,-1
 826 85 l 1,35,36
 826 59 826 59 824 46 c 0,37,38
 815 -1 815 -1 760 -1 c 2,39,-1
 459 -1 l 2,40,41
 433 -1 433 -1 417.5 15.5 c 128,-1,42
 402 32 402 32 402 61 c 2,43,-1
 402 169 l 1,0,-1
346 251 m 1,44,-1
 402 250 l 1,45,-1
 402 583 l 1,46,-1
 397 583 l 1,47,48
 370 516 370 516 336 444 c 1,49,-1
 241 250 l 1,50,-1
 282 251 l 1,51,-1
 346 251 l 1,44,-1
EndSplineSet
EndChar

StartChar: Agrave
Encoding: 192 192 191
Width: 608
Flags: HMW
HStem: -13 20G<21 21> 168 83<227 352 249 352 352 355.5 249 368> 583 100<248 302 248 296> 728 170
VStem: 21 566<6 7> 172 244<779 817>
LayerCount: 2
Fore
SplineSet
429 169 m 1,0,-1
 368 168 l 1,1,-1
 231 168 l 1,2,-1
 170 169 l 1,3,-1
 116 -1 l 1,4,5
 100 -5 100 -5 74.5 -5 c 128,-1,6
 49 -5 49 -5 24 2 c 1,7,-1
 21 7 l 1,8,-1
 248 683 l 1,9,10
 268 687 268 687 306 687 c 128,-1,11
 344 687 344 687 361 683 c 1,12,-1
 587 6 l 1,13,14
 565 -7 565 -7 534.5 -7 c 128,-1,15
 504 -7 504 -7 491.5 4 c 128,-1,16
 479 15 479 15 469 46 c 2,17,-1
 429 169 l 1,0,-1
196 250 m 1,18,-1
 249 251 l 1,19,-1
 352 251 l 2,20,21
 354 251 354 251 374 250.5 c 128,-1,22
 394 250 394 250 403 250 c 1,23,-1
 354 405 l 1,24,25
 324 496 324 496 302 583 c 1,26,-1
 296 583 l 1,27,28
 280 511 280 511 258 444 c 2,29,-1
 196 250 l 1,18,-1
216 898 m 1,30,-1
 416 779 l 1,31,32
 410 743 410 743 387 728 c 1,33,-1
 172 817 l 1,34,35
 175 841 175 841 188 864 c 128,-1,36
 201 887 201 887 216 898 c 1,30,-1
EndSplineSet
EndChar

StartChar: Aacute
Encoding: 193 193 192
Width: 608
Flags: HMW
HStem: -13 20G<21 21> 168 83<227 352 249 352 352 355.5 249 368> 583 100<248 302 248 296> 728 170
VStem: 21 566<6 7> 207 244<779 817>
LayerCount: 2
Fore
SplineSet
429 169 m 1,0,-1
 368 168 l 1,1,-1
 231 168 l 1,2,-1
 170 169 l 1,3,-1
 116 -1 l 1,4,5
 100 -5 100 -5 74.5 -5 c 128,-1,6
 49 -5 49 -5 24 2 c 1,7,-1
 21 7 l 1,8,-1
 248 683 l 1,9,10
 268 687 268 687 306 687 c 128,-1,11
 344 687 344 687 361 683 c 1,12,-1
 587 6 l 1,13,14
 565 -7 565 -7 534.5 -7 c 128,-1,15
 504 -7 504 -7 491.5 4 c 128,-1,16
 479 15 479 15 469 46 c 2,17,-1
 429 169 l 1,0,-1
196 250 m 1,18,-1
 249 251 l 1,19,-1
 352 251 l 2,20,21
 354 251 354 251 374 250.5 c 128,-1,22
 394 250 394 250 403 250 c 1,23,-1
 354 405 l 1,24,25
 324 496 324 496 302 583 c 1,26,-1
 296 583 l 1,27,28
 280 511 280 511 258 444 c 2,29,-1
 196 250 l 1,18,-1
207 779 m 1,30,-1
 407 898 l 1,31,32
 422 887 422 887 435 864 c 128,-1,33
 448 841 448 841 451 817 c 1,34,-1
 236 728 l 1,35,36
 211 745 211 745 207 779 c 1,30,-1
EndSplineSet
EndChar

StartChar: Acircumflex
Encoding: 194 194 193
Width: 608
Flags: HMW
HStem: -13 20G<21 21> 168 83<227 352 249 352 352 355.5 249 368> 583 100<248 302 248 296> 730 159
VStem: 21 566<6 7> 147 312<774 780>
LayerCount: 2
Fore
SplineSet
429 169 m 1,0,-1
 368 168 l 1,1,-1
 231 168 l 1,2,-1
 170 169 l 1,3,-1
 116 -1 l 1,4,5
 100 -5 100 -5 74.5 -5 c 128,-1,6
 49 -5 49 -5 24 2 c 1,7,-1
 21 7 l 1,8,-1
 248 683 l 1,9,10
 268 687 268 687 306 687 c 128,-1,11
 344 687 344 687 361 683 c 1,12,-1
 587 6 l 1,13,14
 565 -7 565 -7 534.5 -7 c 128,-1,15
 504 -7 504 -7 491.5 4 c 128,-1,16
 479 15 479 15 469 46 c 2,17,-1
 429 169 l 1,0,-1
196 250 m 1,18,-1
 249 251 l 1,19,-1
 352 251 l 2,20,21
 354 251 354 251 374 250.5 c 128,-1,22
 394 250 394 250 403 250 c 1,23,-1
 354 405 l 1,24,25
 324 496 324 496 302 583 c 1,26,-1
 296 583 l 1,27,28
 280 511 280 511 258 444 c 2,29,-1
 196 250 l 1,18,-1
416 737 m 1,30,-1
 304 812 l 1,31,-1
 190 730 l 1,32,33
 177 735 177 735 164 747.5 c 128,-1,34
 151 760 151 760 147 774 c 1,35,-1
 261 885 l 1,36,37
 282.5 889.5 282.5 889.5 304.25 889.5 c 128,-1,38
 326 889.5 326 889.5 348 885 c 1,39,-1
 459 780 l 1,40,41
 454 765 454 765 441.5 753 c 128,-1,42
 429 741 429 741 416 737 c 1,30,-1
EndSplineSet
EndChar

StartChar: Atilde
Encoding: 195 195 194
Width: 608
Flags: HMW
HStem: -13 20G<21 21> 168 83<227 352 249 352 352 355.5 249 368> 583 100<248 302 248 296> 741 81<377.5 390 377.5 395.5>
VStem: 21 566<6 7> 127 356<782 831>
LayerCount: 2
Fore
SplineSet
429 169 m 1,0,-1
 368 168 l 1,1,-1
 231 168 l 1,2,-1
 170 169 l 1,3,-1
 116 -1 l 1,4,5
 100 -5 100 -5 74.5 -5 c 128,-1,6
 49 -5 49 -5 24 2 c 1,7,-1
 21 7 l 1,8,-1
 248 683 l 1,9,10
 268 687 268 687 306 687 c 128,-1,11
 344 687 344 687 361 683 c 1,12,-1
 587 6 l 1,13,14
 565 -7 565 -7 534.5 -7 c 128,-1,15
 504 -7 504 -7 491.5 4 c 128,-1,16
 479 15 479 15 469 46 c 2,17,-1
 429 169 l 1,0,-1
196 250 m 1,18,-1
 249 251 l 1,19,-1
 352 251 l 2,20,21
 354 251 354 251 374 250.5 c 128,-1,22
 394 250 394 250 403 250 c 1,23,-1
 354 405 l 1,24,25
 324 496 324 496 302 583 c 1,26,-1
 296 583 l 1,27,28
 280 511 280 511 258 444 c 2,29,-1
 196 250 l 1,18,-1
317 756 m 2,30,-1
 260 783 l 2,31,32
 240 792 240 792 222.5 792 c 128,-1,33
 205 792 205 792 187 767 c 1,34,-1
 175 753 l 1,35,36
 160 753 160 753 146 761.5 c 128,-1,37
 132 770 132 770 127 782 c 1,38,-1
 135 802 l 2,39,40
 149 835 149 835 176 854 c 128,-1,41
 203 873 203 873 233 873 c 128,-1,42
 263 873 263 873 293 858 c 2,43,-1
 350 831 l 1,44,45
 366 822 366 822 385 822 c 128,-1,46
 404 822 404 822 423 847 c 1,47,-1
 435 861 l 1,48,49
 449 861 449 861 463 852.5 c 128,-1,50
 477 844 477 844 483 831 c 1,51,-1
 475 812 l 1,52,53
 459 778 459 778 432.5 759.5 c 128,-1,54
 406 741 406 741 378.5 741 c 128,-1,55
 351 741 351 741 317 756 c 2,30,-1
EndSplineSet
EndChar

StartChar: Adieresis
Encoding: 196 196 195
Width: 608
Flags: HMW
HStem: -13 20G<21 21> 168 83<227 352 249 352 352 355.5 249 368> 583 100<248 302 248 296> 747 92
VStem: 21 566<6 7> 154 94<747 747 828 828> 362 94<747 747 828 828>
LayerCount: 2
Fore
SplineSet
429 169 m 1,0,-1
 368 168 l 1,1,-1
 231 168 l 1,2,-1
 170 169 l 1,3,-1
 116 -1 l 1,4,5
 100 -5 100 -5 74.5 -5 c 128,-1,6
 49 -5 49 -5 24 2 c 1,7,-1
 21 7 l 1,8,-1
 248 683 l 1,9,10
 268 687 268 687 306 687 c 128,-1,11
 344 687 344 687 361 683 c 1,12,-1
 587 6 l 1,13,14
 565 -7 565 -7 534.5 -7 c 128,-1,15
 504 -7 504 -7 491.5 4 c 128,-1,16
 479 15 479 15 469 46 c 2,17,-1
 429 169 l 1,0,-1
196 250 m 1,18,-1
 249 251 l 1,19,-1
 352 251 l 2,20,21
 354 251 354 251 374 250.5 c 128,-1,22
 394 250 394 250 403 250 c 1,23,-1
 354 405 l 1,24,25
 324 496 324 496 302 583 c 1,26,-1
 296 583 l 1,27,28
 280 511 280 511 258 444 c 2,29,-1
 196 250 l 1,18,-1
409 839 m 128,-1,31
 436 839 436 839 456 828 c 1,32,33
 464 811 464 811 464 787.5 c 128,-1,34
 464 764 464 764 456 747 c 1,35,36
 439 736 439 736 409 736 c 128,-1,37
 379 736 379 736 362 747 c 1,38,39
 353 764 353 764 353 787.5 c 128,-1,40
 353 811 353 811 362 828 c 1,41,30
 382 839 382 839 409 839 c 128,-1,31
201 839 m 128,-1,43
 228 839 228 839 248 828 c 1,44,45
 257 811 257 811 257 787.5 c 128,-1,46
 257 764 257 764 248 747 c 1,47,48
 231 736 231 736 201 736 c 128,-1,49
 171 736 171 736 154 747 c 1,50,51
 146 764 146 764 146 787.5 c 128,-1,52
 146 811 146 811 154 828 c 1,53,42
 174 839 174 839 201 839 c 128,-1,43
EndSplineSet
EndChar

StartChar: Aring
Encoding: 197 197 196
Width: 608
Flags: HMW
HStem: -13 20G<21 21> -5 12 168 83<227 352 249 352 352 355.5 249 368> 835 56<290.5 319.5>
VStem: 186 68<764 795.5 764 810.5> 355 68<764 795.5>
LayerCount: 2
Fore
SplineSet
429 169 m 1,0,-1
 368 168 l 1,1,-1
 231 168 l 1,2,-1
 170 169 l 1,3,-1
 116 -1 l 1,4,5
 100 -5 100 -5 74.5 -5 c 128,-1,6
 49 -5 49 -5 24 2 c 1,7,-1
 21 7 l 1,8,-1
 247 681 l 1,9,10
 186 712 186 712 186 780 c 0,11,12
 186 827 186 827 219.5 859 c 128,-1,13
 253 891 253 891 304.5 891 c 128,-1,14
 356 891 356 891 389.5 858.5 c 128,-1,15
 423 826 423 826 423 787 c 0,16,17
 423 710.931034483 423 710.931034483 361 681 c 1,18,-1
 587 6 l 1,19,20
 565 -7 565 -7 534.5 -7 c 128,-1,21
 504 -7 504 -7 491.5 4 c 128,-1,22
 479 15 479 15 469 46 c 2,23,-1
 429 169 l 1,0,-1
196 250 m 1,24,-1
 249 251 l 1,25,-1
 352 251 l 2,26,27
 354 251 354 251 374 250.5 c 128,-1,28
 394 250 394 250 403 250 c 1,29,-1
 354 405 l 1,30,31
 324 496 324 496 302 583 c 1,32,-1
 296 583 l 1,33,34
 280 511 280 511 258 444 c 2,35,-1
 196 250 l 1,24,-1
268.5 819 m 128,-1,37
 254 803 254 803 254 779.5 c 128,-1,38
 254 756 254 756 268.5 740.5 c 128,-1,39
 283 725 283 725 305 725 c 128,-1,40
 327 725 327 725 341 740.5 c 128,-1,41
 355 756 355 756 355 779.5 c 128,-1,42
 355 803 355 803 341 819 c 128,-1,43
 327 835 327 835 305 835 c 128,-1,36
 283 835 283 835 268.5 819 c 128,-1,37
EndSplineSet
EndChar

StartChar: Ccedilla
Encoding: 199 199 197
Width: 603
Flags: HMW
HStem: -222 21G<293.5 343> -222 56<293.5 318 293 343> -86 49 -11 85 614 82<267 376>
VStem: 51 105<254 428.5 254 462.5> 348 79<-136.5 -115>
LayerCount: 2
Fore
SplineSet
263 -74 m 1,0,1
 273 -40 273 -40 284 -11 c 1,2,3
 223 -6 223 -6 176.5 25 c 128,-1,4
 130 56 130 56 103.5 105.5 c 0,5,6
 51 203.566037736 51 203.566037736 51 338 c 0,7,8
 51 515 51 515 128 605.5 c 128,-1,9
 205 696 205 696 317 696 c 128,-1,10
 429 696 429 696 495.5 638 c 128,-1,11
 562 580 562 580 562 502 c 0,12,13
 562 445 562 445 505 445 c 0,14,15
 487 445 487 445 464 451 c 1,16,17
 464.076923077 454.153846154 464.076923077 454.153846154 464.076923077 474.423076923 c 128,-1,18
 464.076923077 494.692307692 464.076923077 494.692307692 452.538461538 528.346153846 c 128,-1,19
 441 562 441 562 407 588 c 128,-1,20
 373 614 373 614 321 614 c 0,21,22
 240 614 240 614 198 544 c 128,-1,23
 156 474 156 474 156 343.5 c 128,-1,24
 156 213 156 213 201 143.5 c 128,-1,25
 246 74 246 74 329 74 c 128,-1,26
 412 74 412 74 505 151 c 1,27,28
 545 125 545 125 555 86 c 1,29,30
 471 2 471 2 346 -11 c 1,31,32
 337 -29 337 -29 335 -37 c 1,33,34
 376 -40 376 -40 401.5 -64 c 128,-1,35
 427 -88 427 -88 427 -128 c 128,-1,36
 427 -168 427 -168 393.5 -195 c 128,-1,37
 360 -222 360 -222 311.5 -222 c 128,-1,38
 263 -222 263 -222 231 -203 c 1,39,40
 232 -177 232 -177 252 -152 c 1,41,42
 273 -166 273 -166 299 -166 c 128,-1,43
 325 -166 325 -166 336.5 -154.5 c 128,-1,44
 348 -143 348 -143 348 -126 c 128,-1,45
 348 -109 348 -109 336.5 -97.5 c 128,-1,46
 325 -86 325 -86 308.5 -86 c 128,-1,47
 292 -86 292 -86 280 -91 c 1,48,49
 268 -86 268 -86 263 -74 c 1,0,1
EndSplineSet
EndChar

StartChar: Egrave
Encoding: 200 200 198
Width: 565
Flags: HMW
HStem: -1 86<254 450> 303 84<244.5 444 252 444> 598 85<244.5 252 252 493> 728 170
VStem: 92 98<121.5 130 130 304 386 534> 166 244<779 817>
LayerCount: 2
Fore
SplineSet
190 386 m 1,0,-1
 252 387 l 1,1,-1
 444 387 l 1,2,3
 449 364 449 364 449 345 c 128,-1,4
 449 326 449 326 444 303 c 1,5,-1
 252 303 l 2,6,7
 213 303 213 303 190 304 c 1,8,-1
 190 130 l 2,9,10
 190 122 190 122 189.5 106.5 c 128,-1,11
 189 91 189 91 189 82 c 1,12,13
 217 85 217 85 254 85 c 2,14,-1
 516 85 l 1,15,16
 516 59 516 59 514 46 c 0,17,18
 505 -1 505 -1 450 -1 c 2,19,-1
 149 -1 l 2,20,21
 123 -1 123 -1 107.5 15.5 c 128,-1,22
 92 32 92 32 92 61 c 2,23,-1
 92 677 l 1,24,-1
 98 683 l 1,25,-1
 497 683 l 1,26,27
 500 668 500 668 500 643.5 c 128,-1,28
 500 619 500 619 493 598 c 1,29,-1
 252 598 l 2,30,31
 212 598 212 598 189 599 c 1,32,-1
 190 534 l 1,33,-1
 190 386 l 1,0,-1
210 898 m 1,34,-1
 410 779 l 1,35,36
 404 743 404 743 381 728 c 1,37,-1
 166 817 l 1,38,39
 169 841 169 841 182 864 c 128,-1,40
 195 887 195 887 210 898 c 1,34,-1
EndSplineSet
EndChar

StartChar: Eacute
Encoding: 201 201 199
Width: 565
Flags: HMW
HStem: -1 86<254 450> 303 84<244.5 444 252 444> 598 85<244.5 252 252 493> 728 170
VStem: 92 98<121.5 130 130 304 386 534> 201 244<779 817>
LayerCount: 2
Fore
SplineSet
190 386 m 1,0,-1
 252 387 l 1,1,-1
 444 387 l 1,2,3
 449 364 449 364 449 345 c 128,-1,4
 449 326 449 326 444 303 c 1,5,-1
 252 303 l 2,6,7
 213 303 213 303 190 304 c 1,8,-1
 190 130 l 2,9,10
 190 122 190 122 189.5 106.5 c 128,-1,11
 189 91 189 91 189 82 c 1,12,13
 217 85 217 85 254 85 c 2,14,-1
 516 85 l 1,15,16
 516 59 516 59 514 46 c 0,17,18
 505 -1 505 -1 450 -1 c 2,19,-1
 149 -1 l 2,20,21
 123 -1 123 -1 107.5 15.5 c 128,-1,22
 92 32 92 32 92 61 c 2,23,-1
 92 677 l 1,24,-1
 98 683 l 1,25,-1
 497 683 l 1,26,27
 500 668 500 668 500 643.5 c 128,-1,28
 500 619 500 619 493 598 c 1,29,-1
 252 598 l 2,30,31
 212 598 212 598 189 599 c 1,32,-1
 190 534 l 1,33,-1
 190 386 l 1,0,-1
201 779 m 1,34,-1
 401 898 l 1,35,36
 416 887 416 887 429 864 c 128,-1,37
 442 841 442 841 445 817 c 1,38,-1
 230 728 l 1,39,40
 205 745 205 745 201 779 c 1,34,-1
EndSplineSet
EndChar

StartChar: Ecircumflex
Encoding: 202 202 200
Width: 565
Flags: HMW
HStem: -1 86<254 450> 303 84<244.5 444 252 444> 598 85<244.5 252 252 493> 730 159
VStem: 92 98<121.5 130 130 304 386 534> 141 312<774 780>
LayerCount: 2
Fore
SplineSet
190 386 m 1,0,-1
 252 387 l 1,1,-1
 444 387 l 1,2,3
 449 364 449 364 449 345 c 128,-1,4
 449 326 449 326 444 303 c 1,5,-1
 252 303 l 2,6,7
 213 303 213 303 190 304 c 1,8,-1
 190 130 l 2,9,10
 190 122 190 122 189.5 106.5 c 128,-1,11
 189 91 189 91 189 82 c 1,12,13
 217 85 217 85 254 85 c 2,14,-1
 516 85 l 1,15,16
 516 59 516 59 514 46 c 0,17,18
 505 -1 505 -1 450 -1 c 2,19,-1
 149 -1 l 2,20,21
 123 -1 123 -1 107.5 15.5 c 128,-1,22
 92 32 92 32 92 61 c 2,23,-1
 92 677 l 1,24,-1
 98 683 l 1,25,-1
 497 683 l 1,26,27
 500 668 500 668 500 643.5 c 128,-1,28
 500 619 500 619 493 598 c 1,29,-1
 252 598 l 2,30,31
 212 598 212 598 189 599 c 1,32,-1
 190 534 l 1,33,-1
 190 386 l 1,0,-1
410 737 m 1,34,-1
 298 812 l 1,35,-1
 184 730 l 1,36,37
 171 735 171 735 158 747.5 c 128,-1,38
 145 760 145 760 141 774 c 1,39,-1
 255 885 l 1,40,41
 276.5 889.5 276.5 889.5 298.25 889.5 c 128,-1,42
 320 889.5 320 889.5 342 885 c 1,43,-1
 453 780 l 1,44,45
 448 765 448 765 435.5 753 c 128,-1,46
 423 741 423 741 410 737 c 1,34,-1
EndSplineSet
EndChar

StartChar: Edieresis
Encoding: 203 203 201
Width: 565
Flags: HMW
HStem: -1 86<254 450> 303 84<244.5 444 252 444> 598 85<244.5 252 252 493> 747 92
VStem: 92 98<121.5 130 130 304 386 534> 148 94<747 747 828 828> 356 94<747 747 828 828>
LayerCount: 2
Fore
SplineSet
190 386 m 1,0,-1
 252 387 l 1,1,-1
 444 387 l 1,2,3
 449 364 449 364 449 345 c 128,-1,4
 449 326 449 326 444 303 c 1,5,-1
 252 303 l 2,6,7
 213 303 213 303 190 304 c 1,8,-1
 190 130 l 2,9,10
 190 122 190 122 189.5 106.5 c 128,-1,11
 189 91 189 91 189 82 c 1,12,13
 217 85 217 85 254 85 c 2,14,-1
 516 85 l 1,15,16
 516 59 516 59 514 46 c 0,17,18
 505 -1 505 -1 450 -1 c 2,19,-1
 149 -1 l 2,20,21
 123 -1 123 -1 107.5 15.5 c 128,-1,22
 92 32 92 32 92 61 c 2,23,-1
 92 677 l 1,24,-1
 98 683 l 1,25,-1
 497 683 l 1,26,27
 500 668 500 668 500 643.5 c 128,-1,28
 500 619 500 619 493 598 c 1,29,-1
 252 598 l 2,30,31
 212 598 212 598 189 599 c 1,32,-1
 190 534 l 1,33,-1
 190 386 l 1,0,-1
403 839 m 128,-1,35
 430 839 430 839 450 828 c 1,36,37
 458 811 458 811 458 787.5 c 128,-1,38
 458 764 458 764 450 747 c 1,39,40
 433 736 433 736 403 736 c 128,-1,41
 373 736 373 736 356 747 c 1,42,43
 347 764 347 764 347 787.5 c 128,-1,44
 347 811 347 811 356 828 c 1,45,34
 376 839 376 839 403 839 c 128,-1,35
195 839 m 128,-1,47
 222 839 222 839 242 828 c 1,48,49
 251 811 251 811 251 787.5 c 128,-1,50
 251 764 251 764 242 747 c 1,51,52
 225 736 225 736 195 736 c 128,-1,53
 165 736 165 736 148 747 c 1,54,55
 140 764 140 764 140 787.5 c 128,-1,56
 140 811 140 811 148 828 c 1,57,46
 168 839 168 839 195 839 c 128,-1,47
EndSplineSet
EndChar

StartChar: Igrave
Encoding: 204 204 202
Width: 292
Flags: HMW
HStem: -4 691<137.5 153> 728 170
VStem: 13 244<779 817> 96 100<0 683 0 683>
LayerCount: 2
Fore
SplineSet
96 0 m 1,0,-1
 96 683 l 1,1,2
 115 687 115 687 145.5 687 c 0,3,4
 176 687 176 687 196 683 c 1,5,-1
 196 0 l 1,6,7
 176 -4 176 -4 145.5 -4 c 0,8,9
 115 -4 115 -4 96 0 c 1,0,-1
57 898 m 1,10,-1
 257 779 l 1,11,12
 251 743 251 743 228 728 c 1,13,-1
 13 817 l 1,14,15
 16 841 16 841 29 864 c 128,-1,16
 42 887 42 887 57 898 c 1,10,-1
EndSplineSet
EndChar

StartChar: Iacute
Encoding: 205 205 203
Width: 292
Flags: HMW
HStem: -4 691<137.5 153> 728 170
VStem: 48 244<779 817> 96 100<0 683 0 683>
LayerCount: 2
Fore
SplineSet
96 0 m 1,0,-1
 96 683 l 1,1,2
 115 687 115 687 145.5 687 c 0,3,4
 176 687 176 687 196 683 c 1,5,-1
 196 0 l 1,6,7
 176 -4 176 -4 145.5 -4 c 0,8,9
 115 -4 115 -4 96 0 c 1,0,-1
48 779 m 1,10,-1
 248 898 l 1,11,12
 263 887 263 887 276 864 c 128,-1,13
 289 841 289 841 292 817 c 1,14,-1
 77 728 l 1,15,16
 52 745 52 745 48 779 c 1,10,-1
EndSplineSet
EndChar

StartChar: Itilde
Encoding: 296 296 204
Width: 292
Flags: HMW
HStem: -4 691<137.5 153> 741 81<218.5 231 218.5 236.5>
VStem: -32 356<782 831> 96 100<0 683 0 683>
LayerCount: 2
Fore
SplineSet
96 0 m 1,0,-1
 96 683 l 1,1,2
 115 687 115 687 145.5 687 c 0,3,4
 176 687 176 687 196 683 c 1,5,-1
 196 0 l 1,6,7
 176 -4 176 -4 145.5 -4 c 0,8,9
 115 -4 115 -4 96 0 c 1,0,-1
158 756 m 2,10,-1
 101 783 l 2,11,12
 81 792 81 792 63.5 792 c 0,13,14
 46 792 46 792 28 767 c 1,15,-1
 16 753 l 1,16,17
 1 753 1 753 -13 761.5 c 128,-1,18
 -27 770 -27 770 -32 782 c 1,19,-1
 -24 802 l 2,20,21
 -10 835 -10 835 17 854 c 128,-1,22
 44 873 44 873 74 873 c 0,23,24
 104 873 104 873 134 858 c 2,25,-1
 191 831 l 1,26,27
 207 822 207 822 226 822 c 0,28,29
 245 822 245 822 264 847 c 1,30,-1
 276 861 l 1,31,32
 290 861 290 861 304 852.5 c 128,-1,33
 318 844 318 844 324 831 c 1,34,-1
 316 812 l 1,35,36
 300 778 300 778 273.5 759.5 c 128,-1,37
 247 741 247 741 219.5 741 c 0,38,39
 192 741 192 741 158 756 c 2,10,-1
EndSplineSet
EndChar

StartChar: Icircumflex
Encoding: 206 206 205
Width: 292
Flags: HMW
HStem: -4 691<137.5 153> 730 159
VStem: -12 312<774 780> 96 100<0 683 0 683>
LayerCount: 2
Fore
SplineSet
96 0 m 1,0,-1
 96 683 l 1,1,2
 115 687 115 687 145.5 687 c 0,3,4
 176 687 176 687 196 683 c 1,5,-1
 196 0 l 1,6,7
 176 -4 176 -4 145.5 -4 c 0,8,9
 115 -4 115 -4 96 0 c 1,0,-1
257 737 m 1,10,-1
 145 812 l 1,11,-1
 31 730 l 1,12,13
 18 735 18 735 5 747.5 c 128,-1,14
 -8 760 -8 760 -12 774 c 1,15,-1
 102 885 l 1,16,17
 124 889.5 124 889.5 145.75 889.5 c 128,-1,18
 167.5 889.5 167.5 889.5 189 885 c 1,19,-1
 300 780 l 1,20,21
 295 765 295 765 282.5 753 c 128,-1,22
 270 741 270 741 257 737 c 1,10,-1
EndSplineSet
EndChar

StartChar: Idieresis
Encoding: 207 207 206
Width: 292
Flags: HMW
HStem: -4 691<137.5 153> 747 92
VStem: -5 94<747 747 828 828> 96 100<0 683 0 683> 203 94<747 747 828 828>
LayerCount: 2
Fore
SplineSet
96 0 m 1,0,-1
 96 683 l 1,1,2
 115 687 115 687 145.5 687 c 0,3,4
 176 687 176 687 196 683 c 1,5,-1
 196 0 l 1,6,7
 176 -4 176 -4 145.5 -4 c 0,8,9
 115 -4 115 -4 96 0 c 1,0,-1
250 839 m 128,-1,11
 277 839 277 839 297 828 c 1,12,13
 305 811 305 811 305 787.5 c 0,14,15
 305 764 305 764 297 747 c 1,16,17
 280 736 280 736 250 736 c 128,-1,18
 220 736 220 736 203 747 c 1,19,20
 194 764 194 764 194 787.5 c 0,21,22
 194 811 194 811 203 828 c 1,23,10
 223 839 223 839 250 839 c 128,-1,11
42 839 m 128,-1,25
 69 839 69 839 89 828 c 1,26,27
 98 811 98 811 98 787.5 c 0,28,29
 98 764 98 764 89 747 c 1,30,31
 72 736 72 736 42 736 c 128,-1,32
 12 736 12 736 -5 747 c 1,33,34
 -13 764 -13 764 -13 787.5 c 0,35,36
 -13 811 -13 811 -5 828 c 1,37,24
 15 839 15 839 42 839 c 128,-1,25
EndSplineSet
EndChar

StartChar: IJ
Encoding: 306 306 207
Width: 735
Flags: HMW
HStem: -10 84<428 487.5 427.5 539.5> -4 691<137.5 153>
VStem: 96 100<0 683 0 683> 555 100<232 247 247 683>
LayerCount: 2
Fore
SplineSet
96 0 m 1,0,-1
 96 683 l 1,1,2
 115 687 115 687 145.5 687 c 128,-1,3
 176 687 176 687 196 683 c 1,4,-1
 196 0 l 1,5,6
 176 -4 176 -4 145.5 -4 c 128,-1,7
 115 -4 115 -4 96 0 c 1,0,-1
337 107 m 1,8,9
 392 74 392 74 449.5 74 c 128,-1,10
 507 74 507 74 531 110.5 c 128,-1,11
 555 147 555 147 555 232 c 2,12,-1
 555 683 l 1,13,14
 575 687 575 687 605.5 687 c 128,-1,15
 636 687 636 687 655 683 c 1,16,-1
 655 247 l 2,17,18
 655 187 655 187 647.5 144.5 c 128,-1,19
 640 102 640 102 619 65 c 0,20,21
 576.432432432 -10 576.432432432 -10 454 -10 c 0,22,23
 366 -10 366 -10 299 32 c 1,24,25
 307 75 307 75 337 107 c 1,8,9
EndSplineSet
EndChar

StartChar: Jcircumflex
Encoding: 308 308 208
Width: 446
Flags: HMW
HStem: -10 84<139 198.5 138.5 250.5> 730 159
VStem: 159 312<774 780> 266 100<232 247 247 683>
LayerCount: 2
Fore
SplineSet
48 107 m 1,0,1
 103 74 103 74 160.5 74 c 128,-1,2
 218 74 218 74 242 110.5 c 128,-1,3
 266 147 266 147 266 232 c 2,4,-1
 266 683 l 1,5,6
 286 687 286 687 316.5 687 c 128,-1,7
 347 687 347 687 366 683 c 1,8,-1
 366 247 l 2,9,10
 366 187 366 187 358.5 144.5 c 128,-1,11
 351 102 351 102 330 65 c 0,12,13
 287.432432432 -10 287.432432432 -10 165 -10 c 0,14,15
 77 -10 77 -10 10 32 c 1,16,17
 18 75 18 75 48 107 c 1,0,1
428 737 m 1,18,-1
 316 812 l 1,19,-1
 202 730 l 1,20,21
 189 735 189 735 176 747.5 c 128,-1,22
 163 760 163 760 159 774 c 1,23,-1
 273 885 l 1,24,25
 294.5 889.5 294.5 889.5 316.25 889.5 c 128,-1,26
 338 889.5 338 889.5 360 885 c 1,27,-1
 471 780 l 1,28,29
 466 765 466 765 453.5 753 c 128,-1,30
 441 741 441 741 428 737 c 1,18,-1
EndSplineSet
EndChar

StartChar: Lslash
Encoding: 321 321 209
Width: 517
Flags: HMW
HStem: -1 87<286 421>
VStem: 98 100<83 288 288 288 400 623>
LayerCount: 2
Fore
SplineSet
198 623 m 2,0,-1
 198 400 l 1,1,-1
 377 460 l 1,2,-1
 384 456 l 1,3,4
 389.761904762 436.095238095 389.761904762 436.095238095 389.761904762 416.833333333 c 0,5,6
 389.761904762 397.571428571 389.761904762 397.571428571 385 379 c 1,7,-1
 198 318 l 1,8,-1
 198 83 l 1,9,10
 245 86 245 86 286 86 c 2,11,-1
 488 86 l 1,12,13
 488 59 488 59 486 46 c 0,14,15
 477 -1 477 -1 421 -1 c 2,16,-1
 156 -1 l 2,17,18
 130 -1 130 -1 114 15.5 c 128,-1,19
 98 32 98 32 98 62 c 2,20,-1
 98 288 l 1,21,-1
 30 264 l 1,22,-1
 23 268 l 1,23,24
 16.95 286.15 16.95 286.15 16.95 305.675 c 0,25,26
 16.95 325.2 16.95 325.2 21 345 c 1,27,-1
 98 370 l 1,28,-1
 98 681 l 1,29,-1
 104 687 l 1,30,-1
 143 687 l 2,31,32
 173 687 173 687 185.5 672 c 128,-1,33
 198 657 198 657 198 623 c 2,0,-1
EndSplineSet
EndChar

StartChar: Ldot
Encoding: 319 319 210
Width: 511
Flags: HMW
HStem: -1 87<280 415> 307 92<344 344 444 444>
VStem: 92 100<83 623 83 681 83 681> 336 108
LayerCount: 2
Fore
SplineSet
280 86 m 2,0,-1
 482 86 l 1,1,2
 482 59 482 59 480 46 c 0,3,4
 471 -1 471 -1 415 -1 c 2,5,-1
 150 -1 l 2,6,7
 124 -1 124 -1 108 15.5 c 128,-1,8
 92 32 92 32 92 62 c 2,9,-1
 92 681 l 1,10,-1
 98 687 l 1,11,-1
 137 687 l 2,12,13
 167 687 167 687 179.5 672 c 128,-1,14
 192 657 192 657 192 623 c 2,15,-1
 192 83 l 1,16,17
 239 86 239 86 280 86 c 2,0,-1
336 353 m 128,-1,19
 336 381 336 381 344 399 c 1,20,21
 361 410 361 410 394.5 410 c 0,22,23
 428 410 428 410 444 399 c 1,24,25
 451 384 451 384 451 353 c 128,-1,26
 451 322 451 322 444 307 c 1,27,28
 429 295 429 295 396 295 c 0,29,30
 363 295 363 295 344 307 c 1,31,18
 336 325 336 325 336 353 c 128,-1,19
EndSplineSet
EndChar

StartChar: Nacute
Encoding: 323 323 211
Width: 678
Flags: HMW
HStem: -4 691<132.5 158.5 146 531.5> 565 122<146 180 146 177 146 181> 728 170
VStem: 92 93<0 326 0 682> 244 244<779 817> 493 93<360 624 624 646>
LayerCount: 2
Fore
SplineSet
181 565 m 1,0,-1
 177 565 l 1,1,2
 185 429 185 429 185 326 c 2,3,-1
 185 0 l 1,4,5
 162 -4 162 -4 138.5 -4 c 128,-1,6
 115 -4 115 -4 92 0 c 1,7,-1
 92 682 l 1,8,9
 120 687 120 687 153.5 687 c 128,-1,10
 187 687 187 687 212 683 c 1,11,-1
 430 256 l 2,12,13
 445 227 445 227 468 176.5 c 128,-1,14
 491 126 491 126 498 113 c 1,15,-1
 498 112 l 1,16,-1
 501 113 l 1,17,18
 493 239 493 239 493 360 c 2,19,-1
 493 624 l 2,20,21
 493 658 493 658 504.5 672.5 c 128,-1,22
 516 687 516 687 547 687 c 2,23,-1
 579 687 l 1,24,-1
 586 682 l 1,25,-1
 586 1 l 1,26,27
 558 -4 558 -4 524 -4 c 128,-1,28
 490 -4 490 -4 465 0 c 1,29,-1
 246 427 l 2,30,31
 216 486 216 486 181 565 c 1,0,-1
244 779 m 1,32,-1
 444 898 l 1,33,34
 459 887 459 887 472 864 c 128,-1,35
 485 841 485 841 488 817 c 1,36,-1
 273 728 l 1,37,38
 248 745 248 745 244 779 c 1,32,-1
EndSplineSet
EndChar

StartChar: Ntilde
Encoding: 209 209 212
Width: 678
Flags: HMW
HStem: -4 691<132.5 158.5 146 531.5> 565 122<146 180 146 177 146 181> 741 81<414.5 427 414.5 432.5>
VStem: 92 93<0 326 0 682> 164 356<782 831> 493 93<360 624 624 646>
LayerCount: 2
Fore
SplineSet
181 565 m 1,0,-1
 177 565 l 1,1,2
 185 429 185 429 185 326 c 2,3,-1
 185 0 l 1,4,5
 162 -4 162 -4 138.5 -4 c 128,-1,6
 115 -4 115 -4 92 0 c 1,7,-1
 92 682 l 1,8,9
 120 687 120 687 153.5 687 c 128,-1,10
 187 687 187 687 212 683 c 1,11,-1
 430 256 l 2,12,13
 445 227 445 227 468 176.5 c 128,-1,14
 491 126 491 126 498 113 c 1,15,-1
 498 112 l 1,16,-1
 501 113 l 1,17,18
 493 239 493 239 493 360 c 2,19,-1
 493 624 l 2,20,21
 493 658 493 658 504.5 672.5 c 128,-1,22
 516 687 516 687 547 687 c 2,23,-1
 579 687 l 1,24,-1
 586 682 l 1,25,-1
 586 1 l 1,26,27
 558 -4 558 -4 524 -4 c 128,-1,28
 490 -4 490 -4 465 0 c 1,29,-1
 246 427 l 2,30,31
 216 486 216 486 181 565 c 1,0,-1
354 756 m 2,32,-1
 297 783 l 2,33,34
 277 792 277 792 259.5 792 c 128,-1,35
 242 792 242 792 224 767 c 1,36,-1
 212 753 l 1,37,38
 197 753 197 753 183 761.5 c 128,-1,39
 169 770 169 770 164 782 c 1,40,-1
 172 802 l 2,41,42
 186 835 186 835 213 854 c 128,-1,43
 240 873 240 873 270 873 c 128,-1,44
 300 873 300 873 330 858 c 2,45,-1
 387 831 l 1,46,47
 403 822 403 822 422 822 c 128,-1,48
 441 822 441 822 460 847 c 1,49,-1
 472 861 l 1,50,51
 486 861 486 861 500 852.5 c 128,-1,52
 514 844 514 844 520 831 c 1,53,-1
 512 812 l 1,54,55
 496 778 496 778 469.5 759.5 c 128,-1,56
 443 741 443 741 415.5 741 c 128,-1,57
 388 741 388 741 354 756 c 2,32,-1
EndSplineSet
EndChar

StartChar: OE
Encoding: 338 338 213
Width: 894
Flags: HMW
HStem: -1 86<586 782> 303 84<575.5 775 583 775> 598 85<575 583 583 824>
VStem: 51 104<287 396.5> 424 97<121.5 130 130 304 386 534>
LayerCount: 2
Fore
SplineSet
521 130 m 1,0,-1
 520 83 l 1,1,2
 558 85 558 85 586 85 c 2,3,-1
 848 85 l 1,4,5
 848 59 848 59 845 46 c 0,6,7
 837 -1 837 -1 782 -1 c 2,8,-1
 453 -1 l 1,9,10
 367 -13 367 -13 330 -13 c 0,11,12
 226 -13 226 -13 158 47 c 0,13,14
 51 140 51 140 51 342 c 0,15,16
 51 431 51 431 77 509.5 c 128,-1,17
 103 588 103 588 158 636 c 0,18,19
 226 696 226 696 330 696 c 0,20,21
 357 696 357 696 456 683 c 1,22,-1
 829 683 l 1,23,24
 832 668 832 668 832 643 c 128,-1,25
 832 618 832 618 824 598 c 1,26,-1
 583 598 l 2,27,28
 543 598 543 598 520 599 c 1,29,-1
 521 534 l 1,30,-1
 521 386 l 1,31,-1
 583 387 l 1,32,-1
 775 387 l 1,33,34
 780 369 780 369 780 344.5 c 128,-1,35
 780 320 780 320 775 303 c 1,36,-1
 583 303 l 2,37,38
 544 303 544 303 521 304 c 1,39,-1
 521 130 l 1,0,-1
242 92.5 m 128,-1,41
 278 68 278 68 325.5 68 c 128,-1,42
 373 68 373 68 424 80 c 1,43,-1
 424 602 l 1,44,45
 368 615 368 615 323.5 615 c 128,-1,46
 279 615 279 615 242.5 590.5 c 128,-1,47
 206 566 206 566 188 523.5 c 128,-1,48
 170 481 170 481 162.5 437 c 128,-1,49
 155 393 155 393 155 342 c 128,-1,50
 155 291 155 291 162.5 246.5 c 128,-1,51
 170 202 170 202 188 159.5 c 128,-1,40
 206 117 206 117 242 92.5 c 128,-1,41
EndSplineSet
EndChar

StartChar: Ograve
Encoding: 210 210 214
Width: 657
Flags: HMW
HStem: -13 81<288.5 368> 615 81<288.5 368 288.5 399.5> 728 170
VStem: 51 105<287 396.5> 195 244<779 817> 500 106<287 396.5 287 403.5>
LayerCount: 2
Fore
SplineSet
156 342 m 128,-1,1
 156 290 156 290 163.5 246 c 128,-1,2
 171 202 171 202 188.5 159.5 c 128,-1,3
 206 117 206 117 241.5 92.5 c 128,-1,4
 277 68 277 68 323 68 c 128,-1,5
 369 68 369 68 400.5 85 c 128,-1,6
 432 102 432 102 450.5 128.5 c 128,-1,7
 469 155 469 155 480.5 192.5 c 0,8,9
 500 256.086956522 500 256.086956522 500 325.043478261 c 128,-1,10
 500 394 500 394 493 437.5 c 128,-1,11
 486 481 486 481 468.5 523.5 c 128,-1,12
 451 566 451 566 415 590.5 c 128,-1,13
 379 615 379 615 328 615 c 128,-1,14
 277 615 277 615 241.5 590.5 c 128,-1,15
 206 566 206 566 188.5 523.5 c 128,-1,16
 171 481 171 481 163.5 437.5 c 128,-1,0
 156 394 156 394 156 342 c 128,-1,1
157 47 m 0,17,18
 51 139 51 139 51 341.5 c 128,-1,19
 51 544 51 544 157 636 c 0,20,21
 225 696 225 696 328 696 c 128,-1,22
 431 696 431 696 499 636 c 1,23,24
 606 544 606 544 606 341.5 c 128,-1,25
 606 139 606 139 499 47 c 1,26,27
 431 -13 431 -13 328 -13 c 128,-1,28
 225 -13 225 -13 157 47 c 0,17,18
239 898 m 1,29,-1
 439 779 l 1,30,31
 433 743 433 743 410 728 c 1,32,-1
 195 817 l 1,33,34
 198 841 198 841 211 864 c 128,-1,35
 224 887 224 887 239 898 c 1,29,-1
EndSplineSet
EndChar

StartChar: Oacute
Encoding: 211 211 215
Width: 657
Flags: HMW
HStem: -13 81<288.5 368> 615 81<288.5 368 288.5 399.5> 728 170
VStem: 51 105<287 396.5> 230 244<779 817> 500 106<287 396.5 287 403.5>
LayerCount: 2
Fore
SplineSet
156 342 m 128,-1,1
 156 290 156 290 163.5 246 c 128,-1,2
 171 202 171 202 188.5 159.5 c 128,-1,3
 206 117 206 117 241.5 92.5 c 128,-1,4
 277 68 277 68 323 68 c 128,-1,5
 369 68 369 68 400.5 85 c 128,-1,6
 432 102 432 102 450.5 128.5 c 128,-1,7
 469 155 469 155 480.5 192.5 c 0,8,9
 500 256.086956522 500 256.086956522 500 325.043478261 c 128,-1,10
 500 394 500 394 493 437.5 c 128,-1,11
 486 481 486 481 468.5 523.5 c 128,-1,12
 451 566 451 566 415 590.5 c 128,-1,13
 379 615 379 615 328 615 c 128,-1,14
 277 615 277 615 241.5 590.5 c 128,-1,15
 206 566 206 566 188.5 523.5 c 128,-1,16
 171 481 171 481 163.5 437.5 c 128,-1,0
 156 394 156 394 156 342 c 128,-1,1
157 47 m 0,17,18
 51 139 51 139 51 341.5 c 128,-1,19
 51 544 51 544 157 636 c 0,20,21
 225 696 225 696 328 696 c 128,-1,22
 431 696 431 696 499 636 c 1,23,24
 606 544 606 544 606 341.5 c 128,-1,25
 606 139 606 139 499 47 c 1,26,27
 431 -13 431 -13 328 -13 c 128,-1,28
 225 -13 225 -13 157 47 c 0,17,18
230 779 m 1,29,-1
 430 898 l 1,30,31
 445 887 445 887 458 864 c 128,-1,32
 471 841 471 841 474 817 c 1,33,-1
 259 728 l 1,34,35
 234 745 234 745 230 779 c 1,29,-1
EndSplineSet
EndChar

StartChar: Ocircumflex
Encoding: 212 212 216
Width: 657
Flags: HMW
HStem: -13 81<288.5 368> 615 81<288.5 368 288.5 399.5> 730 159
VStem: 51 105<287 396.5> 170 312<774 780> 500 106<287 396.5 287 403.5>
LayerCount: 2
Fore
SplineSet
156 342 m 128,-1,1
 156 290 156 290 163.5 246 c 128,-1,2
 171 202 171 202 188.5 159.5 c 128,-1,3
 206 117 206 117 241.5 92.5 c 128,-1,4
 277 68 277 68 323 68 c 128,-1,5
 369 68 369 68 400.5 85 c 128,-1,6
 432 102 432 102 450.5 128.5 c 128,-1,7
 469 155 469 155 480.5 192.5 c 0,8,9
 500 256.086956522 500 256.086956522 500 325.043478261 c 128,-1,10
 500 394 500 394 493 437.5 c 128,-1,11
 486 481 486 481 468.5 523.5 c 128,-1,12
 451 566 451 566 415 590.5 c 128,-1,13
 379 615 379 615 328 615 c 128,-1,14
 277 615 277 615 241.5 590.5 c 128,-1,15
 206 566 206 566 188.5 523.5 c 128,-1,16
 171 481 171 481 163.5 437.5 c 128,-1,0
 156 394 156 394 156 342 c 128,-1,1
157 47 m 0,17,18
 51 139 51 139 51 341.5 c 128,-1,19
 51 544 51 544 157 636 c 0,20,21
 225 696 225 696 328 696 c 128,-1,22
 431 696 431 696 499 636 c 1,23,24
 606 544 606 544 606 341.5 c 128,-1,25
 606 139 606 139 499 47 c 1,26,27
 431 -13 431 -13 328 -13 c 128,-1,28
 225 -13 225 -13 157 47 c 0,17,18
439 737 m 1,29,-1
 327 812 l 1,30,-1
 213 730 l 1,31,32
 200 735 200 735 187 747.5 c 128,-1,33
 174 760 174 760 170 774 c 1,34,-1
 284 885 l 1,35,36
 305.5 889.5 305.5 889.5 327.25 889.5 c 128,-1,37
 349 889.5 349 889.5 371 885 c 1,38,-1
 482 780 l 1,39,40
 477 765 477 765 464.5 753 c 128,-1,41
 452 741 452 741 439 737 c 1,29,-1
EndSplineSet
EndChar

StartChar: Otilde
Encoding: 213 213 217
Width: 657
Flags: HMW
HStem: -13 81<288.5 368> 615 81<288.5 368 288.5 399.5> 747 81<398 410.5 398 415.5>
VStem: 51 105<287 396.5> 152 350<789 837> 500 106<287 396.5 287 403.5>
LayerCount: 2
Fore
SplineSet
156 342 m 128,-1,1
 156 290 156 290 163.5 246 c 128,-1,2
 171 202 171 202 188.5 159.5 c 128,-1,3
 206 117 206 117 241.5 92.5 c 128,-1,4
 277 68 277 68 323 68 c 128,-1,5
 369 68 369 68 400.5 85 c 128,-1,6
 432 102 432 102 450.5 128.5 c 128,-1,7
 469 155 469 155 480.5 192.5 c 0,8,9
 500 256.086956522 500 256.086956522 500 325.043478261 c 128,-1,10
 500 394 500 394 493 437.5 c 128,-1,11
 486 481 486 481 468.5 523.5 c 128,-1,12
 451 566 451 566 415 590.5 c 128,-1,13
 379 615 379 615 328 615 c 128,-1,14
 277 615 277 615 241.5 590.5 c 128,-1,15
 206 566 206 566 188.5 523.5 c 128,-1,16
 171 481 171 481 163.5 437.5 c 128,-1,0
 156 394 156 394 156 342 c 128,-1,1
157 47 m 0,17,18
 51 139 51 139 51 341.5 c 128,-1,19
 51 544 51 544 157 636 c 0,20,21
 225 696 225 696 328 696 c 128,-1,22
 431 696 431 696 499 636 c 1,23,24
 606 544 606 544 606 341.5 c 128,-1,25
 606 139 606 139 499 47 c 1,26,27
 431 -13 431 -13 328 -13 c 128,-1,28
 225 -13 225 -13 157 47 c 0,17,18
339 762 m 2,29,-1
 283 790 l 1,30,31
 259 798 259 798 251 798 c 0,32,33
 230 798 230 798 211 774 c 1,34,-1
 200 759 l 1,35,36
 185 759 185 759 171 767.5 c 128,-1,37
 157 776 157 776 152 789 c 1,38,-1
 161 808 l 1,39,40
 192 879 192 879 258 879 c 0,41,42
 283 879 283 879 315 863 c 1,43,-1
 371 837 l 1,44,45
 387 828 387 828 405 828 c 128,-1,46
 423 828 423 828 443 853 c 2,47,-1
 454 867 l 1,48,49
 490 865 490 865 502 837 c 1,50,-1
 493 818 l 2,51,52
 478 784 478 784 452 765.5 c 128,-1,53
 426 747 426 747 398.5 747 c 128,-1,54
 371 747 371 747 339 762 c 2,29,-1
EndSplineSet
EndChar

StartChar: Odieresis
Encoding: 214 214 218
Width: 657
Flags: HMW
HStem: -13 81<288.5 368> 615 81<288.5 368 288.5 399.5> 747 92
VStem: 51 105<287 396.5> 177 94<747 747 828 828> 385 94<747 747 828 828> 500 106<287 396.5 287 403.5>
LayerCount: 2
Fore
SplineSet
156 342 m 128,-1,1
 156 290 156 290 163.5 246 c 128,-1,2
 171 202 171 202 188.5 159.5 c 128,-1,3
 206 117 206 117 241.5 92.5 c 128,-1,4
 277 68 277 68 323 68 c 128,-1,5
 369 68 369 68 400.5 85 c 128,-1,6
 432 102 432 102 450.5 128.5 c 128,-1,7
 469 155 469 155 480.5 192.5 c 0,8,9
 500 256.086956522 500 256.086956522 500 325.043478261 c 128,-1,10
 500 394 500 394 493 437.5 c 128,-1,11
 486 481 486 481 468.5 523.5 c 128,-1,12
 451 566 451 566 415 590.5 c 128,-1,13
 379 615 379 615 328 615 c 128,-1,14
 277 615 277 615 241.5 590.5 c 128,-1,15
 206 566 206 566 188.5 523.5 c 128,-1,16
 171 481 171 481 163.5 437.5 c 128,-1,0
 156 394 156 394 156 342 c 128,-1,1
157 47 m 0,17,18
 51 139 51 139 51 341.5 c 128,-1,19
 51 544 51 544 157 636 c 0,20,21
 225 696 225 696 328 696 c 128,-1,22
 431 696 431 696 499 636 c 1,23,24
 606 544 606 544 606 341.5 c 128,-1,25
 606 139 606 139 499 47 c 1,26,27
 431 -13 431 -13 328 -13 c 128,-1,28
 225 -13 225 -13 157 47 c 0,17,18
432 839 m 128,-1,30
 459 839 459 839 479 828 c 1,31,32
 487 811 487 811 487 787.5 c 128,-1,33
 487 764 487 764 479 747 c 1,34,35
 462 736 462 736 432 736 c 128,-1,36
 402 736 402 736 385 747 c 1,37,38
 376 764 376 764 376 787.5 c 128,-1,39
 376 811 376 811 385 828 c 1,40,29
 405 839 405 839 432 839 c 128,-1,30
224 839 m 128,-1,42
 251 839 251 839 271 828 c 1,43,44
 280 811 280 811 280 787.5 c 128,-1,45
 280 764 280 764 271 747 c 1,46,47
 254 736 254 736 224 736 c 128,-1,48
 194 736 194 736 177 747 c 1,49,50
 169 764 169 764 169 787.5 c 128,-1,51
 169 811 169 811 177 828 c 1,52,41
 197 839 197 839 224 839 c 128,-1,42
EndSplineSet
EndChar

